%FSLAX45Y45*%
G04 Gerber Fmt 4.5, Leading zero omitted, Abs format (unit mm)*
G04 Created by KiCad (PCBNEW (6.0.4)) date 2022-08-05 19:54:17*
%MOMM*%
%LPD*%
G01*
G04 APERTURE LIST*
%TA.AperFunction,Profile*%
%ADD10C,0.200000*%
%TD*%
%ADD11C,0.200000*%
G04 APERTURE END LIST*
D10*
X13700900Y-11455400D02*
G75*
G03*
X13700900Y-11455400I-150000J0D01*
G01*
X16926700Y-5986400D02*
G75*
G03*
X16926700Y-5986400I-150000J0D01*
G01*
X13322300Y-11664201D02*
X17005300Y-11664201D01*
X17005300Y-11664201D02*
X17005300Y-5753100D01*
X17005300Y-5753100D02*
X13322300Y-5753100D01*
X13322300Y-5753100D02*
X13322300Y-11664201D01*
D11*
X13569919Y-11984677D02*
X13569919Y-11784677D01*
X13617538Y-11784677D01*
X13646109Y-11794201D01*
X13665157Y-11813248D01*
X13674681Y-11832296D01*
X13684205Y-11870391D01*
X13684205Y-11898963D01*
X13674681Y-11937058D01*
X13665157Y-11956105D01*
X13646109Y-11975153D01*
X13617538Y-11984677D01*
X13569919Y-11984677D01*
X13769919Y-11984677D02*
X13769919Y-11851343D01*
X13769919Y-11889439D02*
X13779443Y-11870391D01*
X13788967Y-11860867D01*
X13808014Y-11851343D01*
X13827062Y-11851343D01*
X13893728Y-11984677D02*
X13893728Y-11851343D01*
X13893728Y-11784677D02*
X13884205Y-11794201D01*
X13893728Y-11803724D01*
X13903252Y-11794201D01*
X13893728Y-11784677D01*
X13893728Y-11803724D01*
X14017538Y-11984677D02*
X13998490Y-11975153D01*
X13988967Y-11956105D01*
X13988967Y-11784677D01*
X14122300Y-11984677D02*
X14103252Y-11975153D01*
X14093728Y-11956105D01*
X14093728Y-11784677D01*
X14350871Y-11984677D02*
X14350871Y-11784677D01*
X14417538Y-11927534D01*
X14484205Y-11784677D01*
X14484205Y-11984677D01*
X14665157Y-11984677D02*
X14665157Y-11879915D01*
X14655633Y-11860867D01*
X14636586Y-11851343D01*
X14598490Y-11851343D01*
X14579443Y-11860867D01*
X14665157Y-11975153D02*
X14646109Y-11984677D01*
X14598490Y-11984677D01*
X14579443Y-11975153D01*
X14569919Y-11956105D01*
X14569919Y-11937058D01*
X14579443Y-11918010D01*
X14598490Y-11908486D01*
X14646109Y-11908486D01*
X14665157Y-11898963D01*
X14760395Y-11851343D02*
X14760395Y-12051343D01*
X14760395Y-11860867D02*
X14779443Y-11851343D01*
X14817538Y-11851343D01*
X14836586Y-11860867D01*
X14846109Y-11870391D01*
X14855633Y-11889439D01*
X14855633Y-11946582D01*
X14846109Y-11965629D01*
X14836586Y-11975153D01*
X14817538Y-11984677D01*
X14779443Y-11984677D01*
X14760395Y-11975153D01*
X14941348Y-11965629D02*
X14950871Y-11975153D01*
X14941348Y-11984677D01*
X14931824Y-11975153D01*
X14941348Y-11965629D01*
X14941348Y-11984677D01*
X14941348Y-11860867D02*
X14950871Y-11870391D01*
X14941348Y-11879915D01*
X14931824Y-11870391D01*
X14941348Y-11860867D01*
X14941348Y-11879915D01*
M02*
