%TF.GenerationSoftware,KiCad,Pcbnew,(6.0.2)*%
%TF.CreationDate,2022-03-14T12:25:25+05:30*%
%TF.ProjectId,led_web,6c65645f-7765-4622-9e6b-696361645f70,v1*%
%TF.SameCoordinates,Original*%
%TF.FileFunction,Legend,Top*%
%TF.FilePolarity,Positive*%
%FSLAX46Y46*%
G04 Gerber Fmt 4.6, Leading zero omitted, Abs format (unit mm)*
G04 Created by KiCad (PCBNEW (6.0.2)) date 2022-03-14 12:25:25*
%MOMM*%
%LPD*%
G01*
G04 APERTURE LIST*
%ADD10C,0.300000*%
%ADD11C,0.150000*%
%ADD12C,0.127000*%
%ADD13C,0.120000*%
G04 APERTURE END LIST*
D10*
X110478571Y-55923571D02*
X109764285Y-55923571D01*
X109764285Y-54423571D01*
X110978571Y-55137857D02*
X111478571Y-55137857D01*
X111692857Y-55923571D02*
X110978571Y-55923571D01*
X110978571Y-54423571D01*
X111692857Y-54423571D01*
X112335714Y-55923571D02*
X112335714Y-54423571D01*
X112692857Y-54423571D01*
X112907142Y-54495000D01*
X113050000Y-54637857D01*
X113121428Y-54780714D01*
X113192857Y-55066428D01*
X113192857Y-55280714D01*
X113121428Y-55566428D01*
X113050000Y-55709285D01*
X112907142Y-55852142D01*
X112692857Y-55923571D01*
X112335714Y-55923571D01*
X113478571Y-56066428D02*
X114621428Y-56066428D01*
X114835714Y-54423571D02*
X115192857Y-55923571D01*
X115478571Y-54852142D01*
X115764285Y-55923571D01*
X116121428Y-54423571D01*
X116692857Y-55137857D02*
X117192857Y-55137857D01*
X117407142Y-55923571D02*
X116692857Y-55923571D01*
X116692857Y-54423571D01*
X117407142Y-54423571D01*
X118550000Y-55137857D02*
X118764285Y-55209285D01*
X118835714Y-55280714D01*
X118907142Y-55423571D01*
X118907142Y-55637857D01*
X118835714Y-55780714D01*
X118764285Y-55852142D01*
X118621428Y-55923571D01*
X118050000Y-55923571D01*
X118050000Y-54423571D01*
X118550000Y-54423571D01*
X118692857Y-54495000D01*
X118764285Y-54566428D01*
X118835714Y-54709285D01*
X118835714Y-54852142D01*
X118764285Y-54995000D01*
X118692857Y-55066428D01*
X118550000Y-55137857D01*
X118050000Y-55137857D01*
D11*
%TO.C,U3*%
X119888095Y-63587380D02*
X119888095Y-64396904D01*
X119935714Y-64492142D01*
X119983333Y-64539761D01*
X120078571Y-64587380D01*
X120269047Y-64587380D01*
X120364285Y-64539761D01*
X120411904Y-64492142D01*
X120459523Y-64396904D01*
X120459523Y-63587380D01*
X120840476Y-63587380D02*
X121459523Y-63587380D01*
X121126190Y-63968333D01*
X121269047Y-63968333D01*
X121364285Y-64015952D01*
X121411904Y-64063571D01*
X121459523Y-64158809D01*
X121459523Y-64396904D01*
X121411904Y-64492142D01*
X121364285Y-64539761D01*
X121269047Y-64587380D01*
X120983333Y-64587380D01*
X120888095Y-64539761D01*
X120840476Y-64492142D01*
D12*
X122573142Y-66880619D02*
X122645714Y-66904809D01*
X122766666Y-66904809D01*
X122815047Y-66880619D01*
X122839238Y-66856428D01*
X122863428Y-66808047D01*
X122863428Y-66759666D01*
X122839238Y-66711285D01*
X122815047Y-66687095D01*
X122766666Y-66662904D01*
X122669904Y-66638714D01*
X122621523Y-66614523D01*
X122597333Y-66590333D01*
X122573142Y-66541952D01*
X122573142Y-66493571D01*
X122597333Y-66445190D01*
X122621523Y-66421000D01*
X122669904Y-66396809D01*
X122790857Y-66396809D01*
X122863428Y-66421000D01*
X123081142Y-66904809D02*
X123081142Y-66396809D01*
X123202095Y-66396809D01*
X123274666Y-66421000D01*
X123323047Y-66469380D01*
X123347238Y-66517761D01*
X123371428Y-66614523D01*
X123371428Y-66687095D01*
X123347238Y-66783857D01*
X123323047Y-66832238D01*
X123274666Y-66880619D01*
X123202095Y-66904809D01*
X123081142Y-66904809D01*
X123564952Y-66759666D02*
X123806857Y-66759666D01*
X123516571Y-66904809D02*
X123685904Y-66396809D01*
X123855238Y-66904809D01*
X130132666Y-66396809D02*
X130302000Y-66904809D01*
X130471333Y-66396809D01*
X130930952Y-66856428D02*
X130906761Y-66880619D01*
X130834190Y-66904809D01*
X130785809Y-66904809D01*
X130713238Y-66880619D01*
X130664857Y-66832238D01*
X130640666Y-66783857D01*
X130616476Y-66687095D01*
X130616476Y-66614523D01*
X130640666Y-66517761D01*
X130664857Y-66469380D01*
X130713238Y-66421000D01*
X130785809Y-66396809D01*
X130834190Y-66396809D01*
X130906761Y-66421000D01*
X130930952Y-66445190D01*
X131438952Y-66856428D02*
X131414761Y-66880619D01*
X131342190Y-66904809D01*
X131293809Y-66904809D01*
X131221238Y-66880619D01*
X131172857Y-66832238D01*
X131148666Y-66783857D01*
X131124476Y-66687095D01*
X131124476Y-66614523D01*
X131148666Y-66517761D01*
X131172857Y-66469380D01*
X131221238Y-66421000D01*
X131293809Y-66396809D01*
X131342190Y-66396809D01*
X131414761Y-66421000D01*
X131438952Y-66445190D01*
X125125238Y-66880619D02*
X125197809Y-66904809D01*
X125318761Y-66904809D01*
X125367142Y-66880619D01*
X125391333Y-66856428D01*
X125415523Y-66808047D01*
X125415523Y-66759666D01*
X125391333Y-66711285D01*
X125367142Y-66687095D01*
X125318761Y-66662904D01*
X125222000Y-66638714D01*
X125173619Y-66614523D01*
X125149428Y-66590333D01*
X125125238Y-66541952D01*
X125125238Y-66493571D01*
X125149428Y-66445190D01*
X125173619Y-66421000D01*
X125222000Y-66396809D01*
X125342952Y-66396809D01*
X125415523Y-66421000D01*
X125923523Y-66856428D02*
X125899333Y-66880619D01*
X125826761Y-66904809D01*
X125778380Y-66904809D01*
X125705809Y-66880619D01*
X125657428Y-66832238D01*
X125633238Y-66783857D01*
X125609047Y-66687095D01*
X125609047Y-66614523D01*
X125633238Y-66517761D01*
X125657428Y-66469380D01*
X125705809Y-66421000D01*
X125778380Y-66396809D01*
X125826761Y-66396809D01*
X125899333Y-66421000D01*
X125923523Y-66445190D01*
X126383142Y-66904809D02*
X126141238Y-66904809D01*
X126141238Y-66396809D01*
X127882952Y-66421000D02*
X127834571Y-66396809D01*
X127762000Y-66396809D01*
X127689428Y-66421000D01*
X127641047Y-66469380D01*
X127616857Y-66517761D01*
X127592666Y-66614523D01*
X127592666Y-66687095D01*
X127616857Y-66783857D01*
X127641047Y-66832238D01*
X127689428Y-66880619D01*
X127762000Y-66904809D01*
X127810380Y-66904809D01*
X127882952Y-66880619D01*
X127907142Y-66856428D01*
X127907142Y-66687095D01*
X127810380Y-66687095D01*
X128124857Y-66904809D02*
X128124857Y-66396809D01*
X128415142Y-66904809D01*
X128415142Y-66396809D01*
X128657047Y-66904809D02*
X128657047Y-66396809D01*
X128778000Y-66396809D01*
X128850571Y-66421000D01*
X128898952Y-66469380D01*
X128923142Y-66517761D01*
X128947333Y-66614523D01*
X128947333Y-66687095D01*
X128923142Y-66783857D01*
X128898952Y-66832238D01*
X128850571Y-66880619D01*
X128778000Y-66904809D01*
X128657047Y-66904809D01*
D11*
%TO.C,C1*%
X143343333Y-68937142D02*
X143295714Y-68984761D01*
X143152857Y-69032380D01*
X143057619Y-69032380D01*
X142914761Y-68984761D01*
X142819523Y-68889523D01*
X142771904Y-68794285D01*
X142724285Y-68603809D01*
X142724285Y-68460952D01*
X142771904Y-68270476D01*
X142819523Y-68175238D01*
X142914761Y-68080000D01*
X143057619Y-68032380D01*
X143152857Y-68032380D01*
X143295714Y-68080000D01*
X143343333Y-68127619D01*
X144295714Y-69032380D02*
X143724285Y-69032380D01*
X144010000Y-69032380D02*
X144010000Y-68032380D01*
X143914761Y-68175238D01*
X143819523Y-68270476D01*
X143724285Y-68318095D01*
%TO.C,U1*%
X114808095Y-58507380D02*
X114808095Y-59316904D01*
X114855714Y-59412142D01*
X114903333Y-59459761D01*
X114998571Y-59507380D01*
X115189047Y-59507380D01*
X115284285Y-59459761D01*
X115331904Y-59412142D01*
X115379523Y-59316904D01*
X115379523Y-58507380D01*
X116379523Y-59507380D02*
X115808095Y-59507380D01*
X116093809Y-59507380D02*
X116093809Y-58507380D01*
X115998571Y-58650238D01*
X115903333Y-58745476D01*
X115808095Y-58793095D01*
D12*
X110617000Y-58776809D02*
X110713761Y-58776809D01*
X110762142Y-58801000D01*
X110810523Y-58849380D01*
X110834714Y-58946142D01*
X110834714Y-59115476D01*
X110810523Y-59212238D01*
X110762142Y-59260619D01*
X110713761Y-59284809D01*
X110617000Y-59284809D01*
X110568619Y-59260619D01*
X110520238Y-59212238D01*
X110496047Y-59115476D01*
X110496047Y-58946142D01*
X110520238Y-58849380D01*
X110568619Y-58801000D01*
X110617000Y-58776809D01*
X111052428Y-58776809D02*
X111052428Y-59188047D01*
X111076619Y-59236428D01*
X111100809Y-59260619D01*
X111149190Y-59284809D01*
X111245952Y-59284809D01*
X111294333Y-59260619D01*
X111318523Y-59236428D01*
X111342714Y-59188047D01*
X111342714Y-58776809D01*
X111512047Y-58776809D02*
X111802333Y-58776809D01*
X111657190Y-59284809D02*
X111657190Y-58776809D01*
X114257666Y-62586809D02*
X114427000Y-63094809D01*
X114596333Y-62586809D01*
X115055952Y-63046428D02*
X115031761Y-63070619D01*
X114959190Y-63094809D01*
X114910809Y-63094809D01*
X114838238Y-63070619D01*
X114789857Y-63022238D01*
X114765666Y-62973857D01*
X114741476Y-62877095D01*
X114741476Y-62804523D01*
X114765666Y-62707761D01*
X114789857Y-62659380D01*
X114838238Y-62611000D01*
X114910809Y-62586809D01*
X114959190Y-62586809D01*
X115031761Y-62611000D01*
X115055952Y-62635190D01*
X115563952Y-63046428D02*
X115539761Y-63070619D01*
X115467190Y-63094809D01*
X115418809Y-63094809D01*
X115346238Y-63070619D01*
X115297857Y-63022238D01*
X115273666Y-62973857D01*
X115249476Y-62877095D01*
X115249476Y-62804523D01*
X115273666Y-62707761D01*
X115297857Y-62659380D01*
X115346238Y-62611000D01*
X115418809Y-62586809D01*
X115467190Y-62586809D01*
X115539761Y-62611000D01*
X115563952Y-62635190D01*
X112642952Y-62611000D02*
X112594571Y-62586809D01*
X112522000Y-62586809D01*
X112449428Y-62611000D01*
X112401047Y-62659380D01*
X112376857Y-62707761D01*
X112352666Y-62804523D01*
X112352666Y-62877095D01*
X112376857Y-62973857D01*
X112401047Y-63022238D01*
X112449428Y-63070619D01*
X112522000Y-63094809D01*
X112570380Y-63094809D01*
X112642952Y-63070619D01*
X112667142Y-63046428D01*
X112667142Y-62877095D01*
X112570380Y-62877095D01*
X112884857Y-63094809D02*
X112884857Y-62586809D01*
X113175142Y-63094809D01*
X113175142Y-62586809D01*
X113417047Y-63094809D02*
X113417047Y-62586809D01*
X113538000Y-62586809D01*
X113610571Y-62611000D01*
X113658952Y-62659380D01*
X113683142Y-62707761D01*
X113707333Y-62804523D01*
X113707333Y-62877095D01*
X113683142Y-62973857D01*
X113658952Y-63022238D01*
X113610571Y-63070619D01*
X113538000Y-63094809D01*
X113417047Y-63094809D01*
D11*
%TO.C,L1*%
X123658333Y-55697380D02*
X123182142Y-55697380D01*
X123182142Y-54697380D01*
X124515476Y-55697380D02*
X123944047Y-55697380D01*
X124229761Y-55697380D02*
X124229761Y-54697380D01*
X124134523Y-54840238D01*
X124039285Y-54935476D01*
X123944047Y-54983095D01*
D12*
X129497666Y-57506809D02*
X129667000Y-58014809D01*
X129836333Y-57506809D01*
X130295952Y-57966428D02*
X130271761Y-57990619D01*
X130199190Y-58014809D01*
X130150809Y-58014809D01*
X130078238Y-57990619D01*
X130029857Y-57942238D01*
X130005666Y-57893857D01*
X129981476Y-57797095D01*
X129981476Y-57724523D01*
X130005666Y-57627761D01*
X130029857Y-57579380D01*
X130078238Y-57531000D01*
X130150809Y-57506809D01*
X130199190Y-57506809D01*
X130271761Y-57531000D01*
X130295952Y-57555190D01*
X130803952Y-57966428D02*
X130779761Y-57990619D01*
X130707190Y-58014809D01*
X130658809Y-58014809D01*
X130586238Y-57990619D01*
X130537857Y-57942238D01*
X130513666Y-57893857D01*
X130489476Y-57797095D01*
X130489476Y-57724523D01*
X130513666Y-57627761D01*
X130537857Y-57579380D01*
X130586238Y-57531000D01*
X130658809Y-57506809D01*
X130707190Y-57506809D01*
X130779761Y-57531000D01*
X130803952Y-57555190D01*
X125977952Y-57531000D02*
X125929571Y-57506809D01*
X125857000Y-57506809D01*
X125784428Y-57531000D01*
X125736047Y-57579380D01*
X125711857Y-57627761D01*
X125687666Y-57724523D01*
X125687666Y-57797095D01*
X125711857Y-57893857D01*
X125736047Y-57942238D01*
X125784428Y-57990619D01*
X125857000Y-58014809D01*
X125905380Y-58014809D01*
X125977952Y-57990619D01*
X126002142Y-57966428D01*
X126002142Y-57797095D01*
X125905380Y-57797095D01*
X126219857Y-58014809D02*
X126219857Y-57506809D01*
X126510142Y-58014809D01*
X126510142Y-57506809D01*
X126752047Y-58014809D02*
X126752047Y-57506809D01*
X126873000Y-57506809D01*
X126945571Y-57531000D01*
X126993952Y-57579380D01*
X127018142Y-57627761D01*
X127042333Y-57724523D01*
X127042333Y-57797095D01*
X127018142Y-57893857D01*
X126993952Y-57942238D01*
X126945571Y-57990619D01*
X126873000Y-58014809D01*
X126752047Y-58014809D01*
X127508000Y-54204809D02*
X127508000Y-53696809D01*
X127628952Y-53696809D01*
X127701523Y-53721000D01*
X127749904Y-53769380D01*
X127774095Y-53817761D01*
X127798285Y-53914523D01*
X127798285Y-53987095D01*
X127774095Y-54083857D01*
X127749904Y-54132238D01*
X127701523Y-54180619D01*
X127628952Y-54204809D01*
X127508000Y-54204809D01*
X127991809Y-54059666D02*
X128233714Y-54059666D01*
X127943428Y-54204809D02*
X128112761Y-53696809D01*
X128282095Y-54204809D01*
X128378857Y-53696809D02*
X128669142Y-53696809D01*
X128524000Y-54204809D02*
X128524000Y-53696809D01*
X128814285Y-54059666D02*
X129056190Y-54059666D01*
X128765904Y-54204809D02*
X128935238Y-53696809D01*
X129104571Y-54204809D01*
D11*
%TO.C,U2*%
X137928095Y-110907380D02*
X137928095Y-111716904D01*
X137975714Y-111812142D01*
X138023333Y-111859761D01*
X138118571Y-111907380D01*
X138309047Y-111907380D01*
X138404285Y-111859761D01*
X138451904Y-111812142D01*
X138499523Y-111716904D01*
X138499523Y-110907380D01*
X138928095Y-111002619D02*
X138975714Y-110955000D01*
X139070952Y-110907380D01*
X139309047Y-110907380D01*
X139404285Y-110955000D01*
X139451904Y-111002619D01*
X139499523Y-111097857D01*
X139499523Y-111193095D01*
X139451904Y-111335952D01*
X138880476Y-111907380D01*
X139499523Y-111907380D01*
D13*
%TO.C,C1*%
X142265888Y-68538000D02*
X142265888Y-69892000D01*
X141825888Y-67661000D02*
X141825888Y-68175000D01*
X142105888Y-68117000D02*
X142105888Y-70313000D01*
X141025888Y-70255000D02*
X141025888Y-71462000D01*
X140665888Y-70255000D02*
X140665888Y-71629000D01*
X140304888Y-70255000D02*
X140304888Y-71735000D01*
X141865888Y-70255000D02*
X141865888Y-70715000D01*
X141225888Y-70255000D02*
X141225888Y-71337000D01*
X140545888Y-70255000D02*
X140545888Y-71670000D01*
X140384888Y-66714000D02*
X140384888Y-68175000D01*
X136940113Y-67740000D02*
X137440113Y-67740000D01*
X140064888Y-70255000D02*
X140064888Y-71776000D01*
X141945888Y-67832000D02*
X141945888Y-68175000D01*
X140785888Y-66850000D02*
X140785888Y-68175000D01*
X139744888Y-66635000D02*
X139744888Y-71795000D01*
X140264888Y-70255000D02*
X140264888Y-71743000D01*
X139984888Y-66646000D02*
X139984888Y-68175000D01*
X141505888Y-70255000D02*
X141505888Y-71116000D01*
X140424888Y-70255000D02*
X140424888Y-71706000D01*
X139904888Y-66639000D02*
X139904888Y-71791000D01*
X139944888Y-66642000D02*
X139944888Y-71788000D01*
X141385888Y-70255000D02*
X141385888Y-71219000D01*
X140104888Y-70255000D02*
X140104888Y-71771000D01*
X140545888Y-66760000D02*
X140545888Y-68175000D01*
X141065888Y-70255000D02*
X141065888Y-71439000D01*
X140184888Y-66672000D02*
X140184888Y-68175000D01*
X140905888Y-70255000D02*
X140905888Y-71525000D01*
X141265888Y-67120000D02*
X141265888Y-68175000D01*
X141105888Y-67015000D02*
X141105888Y-68175000D01*
X141305888Y-67150000D02*
X141305888Y-68175000D01*
X140224888Y-70255000D02*
X140224888Y-71751000D01*
X140264888Y-66687000D02*
X140264888Y-68175000D01*
X141585888Y-67389000D02*
X141585888Y-68175000D01*
X137190113Y-67490000D02*
X137190113Y-67990000D01*
X140224888Y-66679000D02*
X140224888Y-68175000D01*
X140985888Y-66947000D02*
X140985888Y-68175000D01*
X141105888Y-70255000D02*
X141105888Y-71415000D01*
X142025888Y-70255000D02*
X142025888Y-70466000D01*
X141425888Y-67244000D02*
X141425888Y-68175000D01*
X140865888Y-66886000D02*
X140865888Y-68175000D01*
X140585888Y-70255000D02*
X140585888Y-71657000D01*
X141465888Y-67278000D02*
X141465888Y-68175000D01*
X142305888Y-68697000D02*
X142305888Y-69733000D01*
X140745888Y-66833000D02*
X140745888Y-68175000D01*
X140505888Y-66747000D02*
X140505888Y-68175000D01*
X141665888Y-70255000D02*
X141665888Y-70958000D01*
X140024888Y-70255000D02*
X140024888Y-71780000D01*
X139984888Y-70255000D02*
X139984888Y-71784000D01*
X140745888Y-70255000D02*
X140745888Y-71597000D01*
X141865888Y-67715000D02*
X141865888Y-68175000D01*
X141425888Y-70255000D02*
X141425888Y-71186000D01*
X141225888Y-67093000D02*
X141225888Y-68175000D01*
X140985888Y-70255000D02*
X140985888Y-71483000D01*
X141545888Y-67351000D02*
X141545888Y-68175000D01*
X141985888Y-67896000D02*
X141985888Y-68175000D01*
X141985888Y-70255000D02*
X141985888Y-70534000D01*
X141745888Y-70255000D02*
X141745888Y-70868000D01*
X141825888Y-70255000D02*
X141825888Y-70769000D01*
X140825888Y-70255000D02*
X140825888Y-71563000D01*
X141345888Y-70255000D02*
X141345888Y-71250000D01*
X141545888Y-70255000D02*
X141545888Y-71079000D01*
X141905888Y-67772000D02*
X141905888Y-68175000D01*
X142225888Y-68410000D02*
X142225888Y-70020000D01*
X140865888Y-70255000D02*
X140865888Y-71544000D01*
X141265888Y-70255000D02*
X141265888Y-71310000D01*
X142185888Y-68300000D02*
X142185888Y-70130000D01*
X140945888Y-66925000D02*
X140945888Y-68175000D01*
X140384888Y-70255000D02*
X140384888Y-71716000D01*
X141305888Y-70255000D02*
X141305888Y-71280000D01*
X141945888Y-70255000D02*
X141945888Y-70598000D01*
X140064888Y-66654000D02*
X140064888Y-68175000D01*
X142145888Y-68204000D02*
X142145888Y-70226000D01*
X141705888Y-67516000D02*
X141705888Y-68175000D01*
X140465888Y-70255000D02*
X140465888Y-71695000D01*
X141505888Y-67314000D02*
X141505888Y-68175000D01*
X141185888Y-70255000D02*
X141185888Y-71364000D01*
X140505888Y-70255000D02*
X140505888Y-71683000D01*
X141905888Y-70255000D02*
X141905888Y-70658000D01*
X140625888Y-66787000D02*
X140625888Y-68175000D01*
X140104888Y-66659000D02*
X140104888Y-68175000D01*
X140705888Y-66817000D02*
X140705888Y-68175000D01*
X139784888Y-66635000D02*
X139784888Y-71795000D01*
X140945888Y-70255000D02*
X140945888Y-71505000D01*
X140024888Y-66650000D02*
X140024888Y-68175000D01*
X141145888Y-70255000D02*
X141145888Y-71390000D01*
X140184888Y-70255000D02*
X140184888Y-71758000D01*
X141065888Y-66991000D02*
X141065888Y-68175000D01*
X141705888Y-70255000D02*
X141705888Y-70914000D01*
X141185888Y-67066000D02*
X141185888Y-68175000D01*
X142345888Y-68931000D02*
X142345888Y-69499000D01*
X140585888Y-66773000D02*
X140585888Y-68175000D01*
X140344888Y-66704000D02*
X140344888Y-68175000D01*
X141585888Y-70255000D02*
X141585888Y-71041000D01*
X141345888Y-67180000D02*
X141345888Y-68175000D01*
X141625888Y-67430000D02*
X141625888Y-68175000D01*
X141025888Y-66968000D02*
X141025888Y-68175000D01*
X141665888Y-67472000D02*
X141665888Y-68175000D01*
X141625888Y-70255000D02*
X141625888Y-71000000D01*
X140625888Y-70255000D02*
X140625888Y-71643000D01*
X140705888Y-70255000D02*
X140705888Y-71613000D01*
X140424888Y-66724000D02*
X140424888Y-68175000D01*
X139864888Y-66637000D02*
X139864888Y-71793000D01*
X141745888Y-67562000D02*
X141745888Y-68175000D01*
X140905888Y-66905000D02*
X140905888Y-68175000D01*
X140465888Y-66735000D02*
X140465888Y-68175000D01*
X141465888Y-70255000D02*
X141465888Y-71152000D01*
X141385888Y-67211000D02*
X141385888Y-68175000D01*
X139824888Y-66636000D02*
X139824888Y-71794000D01*
X140344888Y-70255000D02*
X140344888Y-71726000D01*
X140144888Y-66665000D02*
X140144888Y-68175000D01*
X142065888Y-68037000D02*
X142065888Y-70393000D01*
X142025888Y-67964000D02*
X142025888Y-68175000D01*
X140144888Y-70255000D02*
X140144888Y-71765000D01*
X140785888Y-70255000D02*
X140785888Y-71580000D01*
X140304888Y-66695000D02*
X140304888Y-68175000D01*
X140825888Y-66867000D02*
X140825888Y-68175000D01*
X141145888Y-67040000D02*
X141145888Y-68175000D01*
X140665888Y-66801000D02*
X140665888Y-68175000D01*
X141785888Y-67610000D02*
X141785888Y-68175000D01*
X141785888Y-70255000D02*
X141785888Y-70820000D01*
X142364888Y-69215000D02*
G75*
G03*
X142364888Y-69215000I-2620000J0D01*
G01*
%TO.C,U2*%
X141050000Y-110575000D02*
X141050000Y-78245000D01*
X138930000Y-76115000D02*
X117320000Y-76115000D01*
X117730000Y-110575000D02*
X141050000Y-110575000D01*
X115190000Y-103675000D02*
X115190000Y-78245000D01*
X117730000Y-103675000D02*
X117730000Y-110575000D01*
X115190000Y-103675000D02*
X117730000Y-103675000D01*
X141050000Y-78245000D02*
G75*
G03*
X138920000Y-76115000I-2130002J-2D01*
G01*
X117320000Y-76115000D02*
G75*
G03*
X115190000Y-78245000I2J-2130002D01*
G01*
D11*
X114150000Y-83820000D02*
X114150000Y-85090000D01*
X114150000Y-85090000D02*
X114785000Y-84455000D01*
X114785000Y-84455000D02*
X114150000Y-83820000D01*
G36*
X114785000Y-84455000D02*
G01*
X114150000Y-85090000D01*
X114150000Y-83820000D01*
X114785000Y-84455000D01*
G37*
X114785000Y-84455000D02*
X114150000Y-85090000D01*
X114150000Y-83820000D01*
X114785000Y-84455000D01*
%TD*%
M02*
