%TF.GenerationSoftware,KiCad,Pcbnew,(6.0.2)*%
%TF.CreationDate,2022-03-14T12:25:25+05:30*%
%TF.ProjectId,led_web,6c65645f-7765-4622-9e6b-696361645f70,v1*%
%TF.SameCoordinates,Original*%
%TF.FileFunction,Copper,L1,Top*%
%TF.FilePolarity,Positive*%
%FSLAX46Y46*%
G04 Gerber Fmt 4.6, Leading zero omitted, Abs format (unit mm)*
G04 Created by KiCad (PCBNEW (6.0.2)) date 2022-03-14 12:25:25*
%MOMM*%
%LPD*%
G01*
G04 APERTURE LIST*
%TA.AperFunction,NonConductor*%
%ADD10C,0.200000*%
%TD*%
%ADD11C,0.300000*%
%TA.AperFunction,NonConductor*%
%ADD12C,0.300000*%
%TD*%
%TA.AperFunction,ComponentPad*%
%ADD13C,1.524000*%
%TD*%
%TA.AperFunction,ComponentPad*%
%ADD14R,1.600000X1.600000*%
%TD*%
%TA.AperFunction,ComponentPad*%
%ADD15C,1.600000*%
%TD*%
%TA.AperFunction,ComponentPad*%
%ADD16R,2.000000X2.000000*%
%TD*%
%TA.AperFunction,ComponentPad*%
%ADD17O,2.000000X1.600000*%
%TD*%
%TA.AperFunction,ViaPad*%
%ADD18C,0.800000*%
%TD*%
%TA.AperFunction,Conductor*%
%ADD19C,0.683260*%
%TD*%
%TA.AperFunction,Conductor*%
%ADD20C,0.250000*%
%TD*%
G04 APERTURE END LIST*
D10*
X127950001Y-112705000D02*
G75*
G03*
X127950001Y-112705000I-1J0D01*
G01*
D11*
D12*
X179607142Y-170430000D02*
X180321428Y-170430000D01*
X179464285Y-170858571D02*
X179964285Y-169358571D01*
X180464285Y-170858571D01*
X180964285Y-170858571D02*
X180964285Y-169358571D01*
X181821428Y-170858571D01*
X181821428Y-169358571D01*
X182321428Y-169358571D02*
X182821428Y-170858571D01*
X183321428Y-169358571D01*
X183821428Y-170072857D02*
X184321428Y-170072857D01*
X184535714Y-170858571D02*
X183821428Y-170858571D01*
X183821428Y-169358571D01*
X184535714Y-169358571D01*
X185107142Y-170787142D02*
X185321428Y-170858571D01*
X185678571Y-170858571D01*
X185821428Y-170787142D01*
X185892857Y-170715714D01*
X185964285Y-170572857D01*
X185964285Y-170430000D01*
X185892857Y-170287142D01*
X185821428Y-170215714D01*
X185678571Y-170144285D01*
X185392857Y-170072857D01*
X185250000Y-170001428D01*
X185178571Y-169930000D01*
X185107142Y-169787142D01*
X185107142Y-169644285D01*
X185178571Y-169501428D01*
X185250000Y-169430000D01*
X185392857Y-169358571D01*
X185750000Y-169358571D01*
X185964285Y-169430000D01*
X186607142Y-170858571D02*
X186607142Y-169358571D01*
X186607142Y-170072857D02*
X187464285Y-170072857D01*
X187464285Y-170858571D02*
X187464285Y-169358571D01*
X188107142Y-170430000D02*
X188821428Y-170430000D01*
X187964285Y-170858571D02*
X188464285Y-169358571D01*
X188964285Y-170858571D01*
X189464285Y-170858571D02*
X189464285Y-169358571D01*
X190321428Y-170858571D02*
X189678571Y-170001428D01*
X190321428Y-169358571D02*
X189464285Y-170215714D01*
X192964285Y-170858571D02*
X192464285Y-170144285D01*
X192107142Y-170858571D02*
X192107142Y-169358571D01*
X192678571Y-169358571D01*
X192821428Y-169430000D01*
X192892857Y-169501428D01*
X192964285Y-169644285D01*
X192964285Y-169858571D01*
X192892857Y-170001428D01*
X192821428Y-170072857D01*
X192678571Y-170144285D01*
X192107142Y-170144285D01*
X193535714Y-170430000D02*
X194250000Y-170430000D01*
X193392857Y-170858571D02*
X193892857Y-169358571D01*
X194392857Y-170858571D01*
X194678571Y-169358571D02*
X195535714Y-169358571D01*
X195107142Y-170858571D02*
X195107142Y-169358571D01*
X196035714Y-170858571D02*
X196035714Y-169358571D01*
X196035714Y-170072857D02*
X196892857Y-170072857D01*
X196892857Y-170858571D02*
X196892857Y-169358571D01*
X197892857Y-169358571D02*
X198178571Y-169358571D01*
X198321428Y-169430000D01*
X198464285Y-169572857D01*
X198535714Y-169858571D01*
X198535714Y-170358571D01*
X198464285Y-170644285D01*
X198321428Y-170787142D01*
X198178571Y-170858571D01*
X197892857Y-170858571D01*
X197750000Y-170787142D01*
X197607142Y-170644285D01*
X197535714Y-170358571D01*
X197535714Y-169858571D01*
X197607142Y-169572857D01*
X197750000Y-169430000D01*
X197892857Y-169358571D01*
X200035714Y-170858571D02*
X199535714Y-170144285D01*
X199178571Y-170858571D02*
X199178571Y-169358571D01*
X199750000Y-169358571D01*
X199892857Y-169430000D01*
X199964285Y-169501428D01*
X200035714Y-169644285D01*
X200035714Y-169858571D01*
X199964285Y-170001428D01*
X199892857Y-170072857D01*
X199750000Y-170144285D01*
X199178571Y-170144285D01*
X200678571Y-170072857D02*
X201178571Y-170072857D01*
X201392857Y-170858571D02*
X200678571Y-170858571D01*
X200678571Y-169358571D01*
X201392857Y-169358571D01*
D13*
%TO.P,U3,1,VCC*%
%TO.N,Net-(C1-Pad1)*%
X130810000Y-64770000D03*
%TO.P,U3,2,GND*%
%TO.N,GND*%
X128270000Y-64770000D03*
%TO.P,U3,3,OUT*%
%TO.N,Net-(U2-Pad2)*%
X125730000Y-64770000D03*
%TO.P,U3,4*%
%TO.N,N/C*%
X123190000Y-64770000D03*
%TD*%
D14*
%TO.P,C1,1*%
%TO.N,Net-(C1-Pad1)*%
X138494888Y-69215000D03*
D15*
%TO.P,C1,2*%
%TO.N,GND*%
X140994888Y-69215000D03*
%TD*%
D13*
%TO.P,U1,1,VCC*%
%TO.N,Net-(C1-Pad1)*%
X114935000Y-60960000D03*
%TO.P,U1,2,GND*%
%TO.N,GND*%
X113030000Y-60960000D03*
%TO.P,U1,3,SCL*%
%TO.N,Net-(U1-Pad3)*%
X111125000Y-60960000D03*
%TD*%
%TO.P,L1,1,VCC*%
%TO.N,Net-(C1-Pad1)*%
X130175000Y-55880000D03*
%TO.P,L1,2,DATA*%
%TO.N,Net-(L1-Pad2)*%
X128270000Y-55880000D03*
%TO.P,L1,3,GND*%
%TO.N,GND*%
X126365000Y-55880000D03*
%TD*%
D16*
%TO.P,U2,1,~{RST}*%
%TO.N,unconnected-(U2-Pad1)*%
X116690000Y-84455000D03*
D17*
%TO.P,U2,2,A0*%
%TO.N,Net-(U2-Pad2)*%
X116690000Y-86995000D03*
%TO.P,U2,3,D0*%
%TO.N,unconnected-(U2-Pad3)*%
X116690000Y-89535000D03*
%TO.P,U2,4,SCK/D5*%
%TO.N,unconnected-(U2-Pad4)*%
X116690000Y-92075000D03*
%TO.P,U2,5,MISO/D6*%
%TO.N,unconnected-(U2-Pad5)*%
X116690000Y-94615000D03*
%TO.P,U2,6,MOSI/D7*%
%TO.N,unconnected-(U2-Pad6)*%
X116690000Y-97155000D03*
%TO.P,U2,7,CS/D8*%
%TO.N,unconnected-(U2-Pad7)*%
X116690000Y-99695000D03*
%TO.P,U2,8,3V3*%
%TO.N,unconnected-(U2-Pad8)*%
X116690000Y-102235000D03*
%TO.P,U2,9,5V*%
%TO.N,Net-(C1-Pad1)*%
X139550000Y-102235000D03*
%TO.P,U2,10,GND*%
%TO.N,GND*%
X139550000Y-99695000D03*
%TO.P,U2,11,D4*%
%TO.N,unconnected-(U2-Pad11)*%
X139550000Y-97155000D03*
%TO.P,U2,12,D3*%
%TO.N,unconnected-(U2-Pad12)*%
X139550000Y-94615000D03*
%TO.P,U2,13,SDA/D2*%
%TO.N,Net-(U1-Pad4)*%
X139550000Y-92075000D03*
%TO.P,U2,14,SCL/D1*%
%TO.N,Net-(U1-Pad3)*%
X139550000Y-89535000D03*
%TO.P,U2,15,RX*%
%TO.N,Net-(L1-Pad2)*%
X139550000Y-86995000D03*
%TO.P,U2,16,TX*%
%TO.N,unconnected-(U2-Pad16)*%
X139550000Y-84455000D03*
%TD*%
D18*
%TO.N,Net-(L1-Pad2)*%
X135890000Y-84455000D03*
X135890000Y-74295000D03*
%TD*%
D19*
%TO.N,Net-(C1-Pad1)*%
X145415000Y-75565000D02*
X143510000Y-73660000D01*
X143510000Y-73660000D02*
X138430000Y-73660000D01*
X139550000Y-102235000D02*
X143510000Y-102235000D01*
X138430000Y-73660000D02*
X138494888Y-73595112D01*
X145415000Y-100330000D02*
X145415000Y-75565000D01*
X143510000Y-102235000D02*
X145415000Y-100330000D01*
X138494888Y-73595112D02*
X138494888Y-69215000D01*
D20*
%TO.N,Net-(L1-Pad2)*%
X128270000Y-57785000D02*
X135890000Y-65405000D01*
X135890000Y-84455000D02*
X138430000Y-86995000D01*
X138430000Y-86995000D02*
X139550000Y-86995000D01*
X128270000Y-55880000D02*
X128270000Y-57785000D01*
X135890000Y-65405000D02*
X135890000Y-74295000D01*
%TO.N,Net-(U1-Pad3)*%
X111125000Y-85090000D02*
X113030000Y-86995000D01*
X113030000Y-86995000D02*
X116690000Y-86995000D01*
X111125000Y-60960000D02*
X111125000Y-85090000D01*
%TD*%
%TA.AperFunction,Conductor*%
%TO.N,GND*%
G36*
X147384117Y-53233002D02*
G01*
X147430610Y-53286658D01*
X147441996Y-53339000D01*
X147441996Y-112071007D01*
X147421994Y-112139128D01*
X147368338Y-112185621D01*
X147315996Y-112197007D01*
X128328230Y-112197007D01*
X128265230Y-112180126D01*
X128263174Y-112178939D01*
X128256624Y-112173913D01*
X128248998Y-112170754D01*
X128248996Y-112170753D01*
X128116349Y-112115809D01*
X128108720Y-112112649D01*
X127950000Y-112091753D01*
X127791280Y-112112649D01*
X127783651Y-112115809D01*
X127651005Y-112170753D01*
X127651003Y-112170754D01*
X127643377Y-112173913D01*
X127636827Y-112178939D01*
X127634771Y-112180126D01*
X127571771Y-112197007D01*
X108584000Y-112197007D01*
X108515879Y-112177005D01*
X108469386Y-112123349D01*
X108458000Y-112071007D01*
X108458000Y-60960000D01*
X109849647Y-60960000D01*
X109869022Y-61181463D01*
X109926560Y-61396196D01*
X109928882Y-61401177D01*
X109928883Y-61401178D01*
X110018186Y-61592689D01*
X110018189Y-61592694D01*
X110020512Y-61597676D01*
X110148023Y-61779781D01*
X110305219Y-61936977D01*
X110309727Y-61940134D01*
X110309730Y-61940136D01*
X110437771Y-62029791D01*
X110482099Y-62085248D01*
X110491500Y-62133004D01*
X110491500Y-85011233D01*
X110490973Y-85022416D01*
X110489298Y-85029909D01*
X110489547Y-85037835D01*
X110489547Y-85037836D01*
X110491438Y-85097986D01*
X110491500Y-85101945D01*
X110491500Y-85129856D01*
X110491997Y-85133790D01*
X110491997Y-85133791D01*
X110492005Y-85133856D01*
X110492938Y-85145693D01*
X110494327Y-85189889D01*
X110499978Y-85209339D01*
X110503987Y-85228700D01*
X110506526Y-85248797D01*
X110509445Y-85256168D01*
X110509445Y-85256170D01*
X110522804Y-85289912D01*
X110526649Y-85301142D01*
X110536771Y-85335983D01*
X110538982Y-85343593D01*
X110543015Y-85350412D01*
X110543017Y-85350417D01*
X110549293Y-85361028D01*
X110557988Y-85378776D01*
X110565448Y-85397617D01*
X110570110Y-85404033D01*
X110570110Y-85404034D01*
X110591436Y-85433387D01*
X110597952Y-85443307D01*
X110620458Y-85481362D01*
X110634779Y-85495683D01*
X110647619Y-85510716D01*
X110659528Y-85527107D01*
X110665634Y-85532158D01*
X110693605Y-85555298D01*
X110702384Y-85563288D01*
X112526348Y-87387253D01*
X112533888Y-87395539D01*
X112538000Y-87402018D01*
X112543777Y-87407443D01*
X112587651Y-87448643D01*
X112590493Y-87451398D01*
X112610230Y-87471135D01*
X112613427Y-87473615D01*
X112622447Y-87481318D01*
X112654679Y-87511586D01*
X112661625Y-87515405D01*
X112661628Y-87515407D01*
X112672434Y-87521348D01*
X112688953Y-87532199D01*
X112704959Y-87544614D01*
X112712228Y-87547759D01*
X112712232Y-87547762D01*
X112745537Y-87562174D01*
X112756187Y-87567391D01*
X112794940Y-87588695D01*
X112802615Y-87590666D01*
X112802616Y-87590666D01*
X112814562Y-87593733D01*
X112833267Y-87600137D01*
X112851855Y-87608181D01*
X112859678Y-87609420D01*
X112859688Y-87609423D01*
X112895524Y-87615099D01*
X112907144Y-87617505D01*
X112942289Y-87626528D01*
X112949970Y-87628500D01*
X112970224Y-87628500D01*
X112989934Y-87630051D01*
X113009943Y-87633220D01*
X113017835Y-87632474D01*
X113053961Y-87629059D01*
X113065819Y-87628500D01*
X115270606Y-87628500D01*
X115338727Y-87648502D01*
X115373819Y-87682229D01*
X115483802Y-87839300D01*
X115645700Y-88001198D01*
X115650208Y-88004355D01*
X115650211Y-88004357D01*
X115728389Y-88059098D01*
X115833251Y-88132523D01*
X115838233Y-88134846D01*
X115838238Y-88134849D01*
X115872457Y-88150805D01*
X115925742Y-88197722D01*
X115945203Y-88265999D01*
X115924661Y-88333959D01*
X115872457Y-88379195D01*
X115838238Y-88395151D01*
X115838233Y-88395154D01*
X115833251Y-88397477D01*
X115728389Y-88470902D01*
X115650211Y-88525643D01*
X115650208Y-88525645D01*
X115645700Y-88528802D01*
X115483802Y-88690700D01*
X115352477Y-88878251D01*
X115350154Y-88883233D01*
X115350151Y-88883238D01*
X115258039Y-89080775D01*
X115255716Y-89085757D01*
X115196457Y-89306913D01*
X115176502Y-89535000D01*
X115196457Y-89763087D01*
X115255716Y-89984243D01*
X115258039Y-89989224D01*
X115258039Y-89989225D01*
X115350151Y-90186762D01*
X115350154Y-90186767D01*
X115352477Y-90191749D01*
X115483802Y-90379300D01*
X115645700Y-90541198D01*
X115650208Y-90544355D01*
X115650211Y-90544357D01*
X115728389Y-90599098D01*
X115833251Y-90672523D01*
X115838233Y-90674846D01*
X115838238Y-90674849D01*
X115872457Y-90690805D01*
X115925742Y-90737722D01*
X115945203Y-90805999D01*
X115924661Y-90873959D01*
X115872457Y-90919195D01*
X115838238Y-90935151D01*
X115838233Y-90935154D01*
X115833251Y-90937477D01*
X115728389Y-91010902D01*
X115650211Y-91065643D01*
X115650208Y-91065645D01*
X115645700Y-91068802D01*
X115483802Y-91230700D01*
X115352477Y-91418251D01*
X115350154Y-91423233D01*
X115350151Y-91423238D01*
X115258039Y-91620775D01*
X115255716Y-91625757D01*
X115196457Y-91846913D01*
X115176502Y-92075000D01*
X115196457Y-92303087D01*
X115255716Y-92524243D01*
X115258039Y-92529224D01*
X115258039Y-92529225D01*
X115350151Y-92726762D01*
X115350154Y-92726767D01*
X115352477Y-92731749D01*
X115483802Y-92919300D01*
X115645700Y-93081198D01*
X115650208Y-93084355D01*
X115650211Y-93084357D01*
X115728389Y-93139098D01*
X115833251Y-93212523D01*
X115838233Y-93214846D01*
X115838238Y-93214849D01*
X115872457Y-93230805D01*
X115925742Y-93277722D01*
X115945203Y-93345999D01*
X115924661Y-93413959D01*
X115872457Y-93459195D01*
X115838238Y-93475151D01*
X115838233Y-93475154D01*
X115833251Y-93477477D01*
X115728389Y-93550902D01*
X115650211Y-93605643D01*
X115650208Y-93605645D01*
X115645700Y-93608802D01*
X115483802Y-93770700D01*
X115352477Y-93958251D01*
X115350154Y-93963233D01*
X115350151Y-93963238D01*
X115258039Y-94160775D01*
X115255716Y-94165757D01*
X115196457Y-94386913D01*
X115176502Y-94615000D01*
X115196457Y-94843087D01*
X115255716Y-95064243D01*
X115258039Y-95069224D01*
X115258039Y-95069225D01*
X115350151Y-95266762D01*
X115350154Y-95266767D01*
X115352477Y-95271749D01*
X115483802Y-95459300D01*
X115645700Y-95621198D01*
X115650208Y-95624355D01*
X115650211Y-95624357D01*
X115728389Y-95679098D01*
X115833251Y-95752523D01*
X115838233Y-95754846D01*
X115838238Y-95754849D01*
X115872457Y-95770805D01*
X115925742Y-95817722D01*
X115945203Y-95885999D01*
X115924661Y-95953959D01*
X115872457Y-95999195D01*
X115838238Y-96015151D01*
X115838233Y-96015154D01*
X115833251Y-96017477D01*
X115728389Y-96090902D01*
X115650211Y-96145643D01*
X115650208Y-96145645D01*
X115645700Y-96148802D01*
X115483802Y-96310700D01*
X115352477Y-96498251D01*
X115350154Y-96503233D01*
X115350151Y-96503238D01*
X115258039Y-96700775D01*
X115255716Y-96705757D01*
X115196457Y-96926913D01*
X115176502Y-97155000D01*
X115196457Y-97383087D01*
X115255716Y-97604243D01*
X115258039Y-97609224D01*
X115258039Y-97609225D01*
X115350151Y-97806762D01*
X115350154Y-97806767D01*
X115352477Y-97811749D01*
X115483802Y-97999300D01*
X115645700Y-98161198D01*
X115650208Y-98164355D01*
X115650211Y-98164357D01*
X115728389Y-98219098D01*
X115833251Y-98292523D01*
X115838233Y-98294846D01*
X115838238Y-98294849D01*
X115872457Y-98310805D01*
X115925742Y-98357722D01*
X115945203Y-98425999D01*
X115924661Y-98493959D01*
X115872457Y-98539195D01*
X115838238Y-98555151D01*
X115838233Y-98555154D01*
X115833251Y-98557477D01*
X115728389Y-98630902D01*
X115650211Y-98685643D01*
X115650208Y-98685645D01*
X115645700Y-98688802D01*
X115483802Y-98850700D01*
X115352477Y-99038251D01*
X115350154Y-99043233D01*
X115350151Y-99043238D01*
X115350034Y-99043489D01*
X115255716Y-99245757D01*
X115196457Y-99466913D01*
X115176502Y-99695000D01*
X115196457Y-99923087D01*
X115197881Y-99928400D01*
X115197881Y-99928402D01*
X115221024Y-100014770D01*
X115255716Y-100144243D01*
X115258039Y-100149224D01*
X115258039Y-100149225D01*
X115350151Y-100346762D01*
X115350154Y-100346767D01*
X115352477Y-100351749D01*
X115411167Y-100435567D01*
X115474218Y-100525612D01*
X115483802Y-100539300D01*
X115645700Y-100701198D01*
X115650208Y-100704355D01*
X115650211Y-100704357D01*
X115728389Y-100759098D01*
X115833251Y-100832523D01*
X115838233Y-100834846D01*
X115838238Y-100834849D01*
X115872457Y-100850805D01*
X115925742Y-100897722D01*
X115945203Y-100965999D01*
X115924661Y-101033959D01*
X115872457Y-101079195D01*
X115838238Y-101095151D01*
X115838233Y-101095154D01*
X115833251Y-101097477D01*
X115728389Y-101170902D01*
X115650211Y-101225643D01*
X115650208Y-101225645D01*
X115645700Y-101228802D01*
X115483802Y-101390700D01*
X115352477Y-101578251D01*
X115350154Y-101583233D01*
X115350151Y-101583238D01*
X115258039Y-101780775D01*
X115255716Y-101785757D01*
X115196457Y-102006913D01*
X115176502Y-102235000D01*
X115196457Y-102463087D01*
X115255716Y-102684243D01*
X115258039Y-102689224D01*
X115258039Y-102689225D01*
X115350151Y-102886762D01*
X115350154Y-102886767D01*
X115352477Y-102891749D01*
X115399131Y-102958377D01*
X115475378Y-103067269D01*
X115483802Y-103079300D01*
X115645700Y-103241198D01*
X115650208Y-103244355D01*
X115650211Y-103244357D01*
X115728389Y-103299098D01*
X115833251Y-103372523D01*
X115838233Y-103374846D01*
X115838238Y-103374849D01*
X116035775Y-103466961D01*
X116040757Y-103469284D01*
X116046065Y-103470706D01*
X116046067Y-103470707D01*
X116256598Y-103527119D01*
X116256600Y-103527119D01*
X116261913Y-103528543D01*
X116361480Y-103537254D01*
X116430149Y-103543262D01*
X116430156Y-103543262D01*
X116432873Y-103543500D01*
X116947127Y-103543500D01*
X116949844Y-103543262D01*
X116949851Y-103543262D01*
X117018520Y-103537254D01*
X117118087Y-103528543D01*
X117123400Y-103527119D01*
X117123402Y-103527119D01*
X117333933Y-103470707D01*
X117333935Y-103470706D01*
X117339243Y-103469284D01*
X117344225Y-103466961D01*
X117541762Y-103374849D01*
X117541767Y-103374846D01*
X117546749Y-103372523D01*
X117651611Y-103299098D01*
X117729789Y-103244357D01*
X117729792Y-103244355D01*
X117734300Y-103241198D01*
X117896198Y-103079300D01*
X117904623Y-103067269D01*
X117980869Y-102958377D01*
X118027523Y-102891749D01*
X118029846Y-102886767D01*
X118029849Y-102886762D01*
X118121961Y-102689225D01*
X118121961Y-102689224D01*
X118124284Y-102684243D01*
X118183543Y-102463087D01*
X118203498Y-102235000D01*
X118183543Y-102006913D01*
X118124284Y-101785757D01*
X118121961Y-101780775D01*
X118029849Y-101583238D01*
X118029846Y-101583233D01*
X118027523Y-101578251D01*
X117896198Y-101390700D01*
X117734300Y-101228802D01*
X117729792Y-101225645D01*
X117729789Y-101225643D01*
X117651611Y-101170902D01*
X117546749Y-101097477D01*
X117541767Y-101095154D01*
X117541762Y-101095151D01*
X117507543Y-101079195D01*
X117454258Y-101032278D01*
X117434797Y-100964001D01*
X117455339Y-100896041D01*
X117507543Y-100850805D01*
X117541762Y-100834849D01*
X117541767Y-100834846D01*
X117546749Y-100832523D01*
X117651611Y-100759098D01*
X117729789Y-100704357D01*
X117729792Y-100704355D01*
X117734300Y-100701198D01*
X117896198Y-100539300D01*
X117905783Y-100525612D01*
X117968833Y-100435567D01*
X118027523Y-100351749D01*
X118029846Y-100346767D01*
X118029849Y-100346762D01*
X118121961Y-100149225D01*
X118121961Y-100149224D01*
X118124284Y-100144243D01*
X118158977Y-100014770D01*
X118182119Y-99928402D01*
X118182119Y-99928400D01*
X118183543Y-99923087D01*
X118203498Y-99695000D01*
X118183543Y-99466913D01*
X118124284Y-99245757D01*
X118029966Y-99043489D01*
X118029849Y-99043238D01*
X118029846Y-99043233D01*
X118027523Y-99038251D01*
X117896198Y-98850700D01*
X117734300Y-98688802D01*
X117729792Y-98685645D01*
X117729789Y-98685643D01*
X117651611Y-98630902D01*
X117546749Y-98557477D01*
X117541767Y-98555154D01*
X117541762Y-98555151D01*
X117507543Y-98539195D01*
X117454258Y-98492278D01*
X117434797Y-98424001D01*
X117455339Y-98356041D01*
X117507543Y-98310805D01*
X117541762Y-98294849D01*
X117541767Y-98294846D01*
X117546749Y-98292523D01*
X117651611Y-98219098D01*
X117729789Y-98164357D01*
X117729792Y-98164355D01*
X117734300Y-98161198D01*
X117896198Y-97999300D01*
X118027523Y-97811749D01*
X118029846Y-97806767D01*
X118029849Y-97806762D01*
X118121961Y-97609225D01*
X118121961Y-97609224D01*
X118124284Y-97604243D01*
X118183543Y-97383087D01*
X118203498Y-97155000D01*
X118183543Y-96926913D01*
X118124284Y-96705757D01*
X118121961Y-96700775D01*
X118029849Y-96503238D01*
X118029846Y-96503233D01*
X118027523Y-96498251D01*
X117896198Y-96310700D01*
X117734300Y-96148802D01*
X117729792Y-96145645D01*
X117729789Y-96145643D01*
X117651611Y-96090902D01*
X117546749Y-96017477D01*
X117541767Y-96015154D01*
X117541762Y-96015151D01*
X117507543Y-95999195D01*
X117454258Y-95952278D01*
X117434797Y-95884001D01*
X117455339Y-95816041D01*
X117507543Y-95770805D01*
X117541762Y-95754849D01*
X117541767Y-95754846D01*
X117546749Y-95752523D01*
X117651611Y-95679098D01*
X117729789Y-95624357D01*
X117729792Y-95624355D01*
X117734300Y-95621198D01*
X117896198Y-95459300D01*
X118027523Y-95271749D01*
X118029846Y-95266767D01*
X118029849Y-95266762D01*
X118121961Y-95069225D01*
X118121961Y-95069224D01*
X118124284Y-95064243D01*
X118183543Y-94843087D01*
X118203498Y-94615000D01*
X118183543Y-94386913D01*
X118124284Y-94165757D01*
X118121961Y-94160775D01*
X118029849Y-93963238D01*
X118029846Y-93963233D01*
X118027523Y-93958251D01*
X117896198Y-93770700D01*
X117734300Y-93608802D01*
X117729792Y-93605645D01*
X117729789Y-93605643D01*
X117651611Y-93550902D01*
X117546749Y-93477477D01*
X117541767Y-93475154D01*
X117541762Y-93475151D01*
X117507543Y-93459195D01*
X117454258Y-93412278D01*
X117434797Y-93344001D01*
X117455339Y-93276041D01*
X117507543Y-93230805D01*
X117541762Y-93214849D01*
X117541767Y-93214846D01*
X117546749Y-93212523D01*
X117651611Y-93139098D01*
X117729789Y-93084357D01*
X117729792Y-93084355D01*
X117734300Y-93081198D01*
X117896198Y-92919300D01*
X118027523Y-92731749D01*
X118029846Y-92726767D01*
X118029849Y-92726762D01*
X118121961Y-92529225D01*
X118121961Y-92529224D01*
X118124284Y-92524243D01*
X118183543Y-92303087D01*
X118203498Y-92075000D01*
X118183543Y-91846913D01*
X118124284Y-91625757D01*
X118121961Y-91620775D01*
X118029849Y-91423238D01*
X118029846Y-91423233D01*
X118027523Y-91418251D01*
X117896198Y-91230700D01*
X117734300Y-91068802D01*
X117729792Y-91065645D01*
X117729789Y-91065643D01*
X117651611Y-91010902D01*
X117546749Y-90937477D01*
X117541767Y-90935154D01*
X117541762Y-90935151D01*
X117507543Y-90919195D01*
X117454258Y-90872278D01*
X117434797Y-90804001D01*
X117455339Y-90736041D01*
X117507543Y-90690805D01*
X117541762Y-90674849D01*
X117541767Y-90674846D01*
X117546749Y-90672523D01*
X117651611Y-90599098D01*
X117729789Y-90544357D01*
X117729792Y-90544355D01*
X117734300Y-90541198D01*
X117896198Y-90379300D01*
X118027523Y-90191749D01*
X118029846Y-90186767D01*
X118029849Y-90186762D01*
X118121961Y-89989225D01*
X118121961Y-89989224D01*
X118124284Y-89984243D01*
X118183543Y-89763087D01*
X118203498Y-89535000D01*
X118183543Y-89306913D01*
X118124284Y-89085757D01*
X118121961Y-89080775D01*
X118029849Y-88883238D01*
X118029846Y-88883233D01*
X118027523Y-88878251D01*
X117896198Y-88690700D01*
X117734300Y-88528802D01*
X117729792Y-88525645D01*
X117729789Y-88525643D01*
X117651611Y-88470902D01*
X117546749Y-88397477D01*
X117541767Y-88395154D01*
X117541762Y-88395151D01*
X117507543Y-88379195D01*
X117454258Y-88332278D01*
X117434797Y-88264001D01*
X117455339Y-88196041D01*
X117507543Y-88150805D01*
X117541762Y-88134849D01*
X117541767Y-88134846D01*
X117546749Y-88132523D01*
X117651611Y-88059098D01*
X117729789Y-88004357D01*
X117729792Y-88004355D01*
X117734300Y-88001198D01*
X117896198Y-87839300D01*
X118027523Y-87651749D01*
X118029846Y-87646767D01*
X118029849Y-87646762D01*
X118121961Y-87449225D01*
X118121961Y-87449224D01*
X118124284Y-87444243D01*
X118183543Y-87223087D01*
X118203498Y-86995000D01*
X118183543Y-86766913D01*
X118124284Y-86545757D01*
X118121961Y-86540775D01*
X118029849Y-86343238D01*
X118029846Y-86343233D01*
X118027523Y-86338251D01*
X117896198Y-86150700D01*
X117867365Y-86121867D01*
X117833339Y-86059555D01*
X117838404Y-85988740D01*
X117880951Y-85931904D01*
X117912232Y-85914790D01*
X117928293Y-85908769D01*
X117928296Y-85908767D01*
X117936705Y-85905615D01*
X118053261Y-85818261D01*
X118140615Y-85701705D01*
X118191745Y-85565316D01*
X118198500Y-85503134D01*
X118198500Y-84455000D01*
X134976496Y-84455000D01*
X134996458Y-84644928D01*
X135055473Y-84826556D01*
X135150960Y-84991944D01*
X135155378Y-84996851D01*
X135155379Y-84996852D01*
X135248216Y-85099958D01*
X135278747Y-85133866D01*
X135433248Y-85246118D01*
X135439276Y-85248802D01*
X135439278Y-85248803D01*
X135561450Y-85303197D01*
X135607712Y-85323794D01*
X135700858Y-85343593D01*
X135788056Y-85362128D01*
X135788061Y-85362128D01*
X135794513Y-85363500D01*
X135850406Y-85363500D01*
X135918527Y-85383502D01*
X135939501Y-85400405D01*
X137926343Y-87387247D01*
X137933887Y-87395537D01*
X137938000Y-87402018D01*
X137943777Y-87407443D01*
X137987667Y-87448658D01*
X137990494Y-87451398D01*
X138010230Y-87471134D01*
X138013420Y-87473608D01*
X138022447Y-87481318D01*
X138054679Y-87511586D01*
X138065858Y-87517732D01*
X138072432Y-87521346D01*
X138088956Y-87532199D01*
X138104959Y-87544613D01*
X138133147Y-87556811D01*
X138187718Y-87602221D01*
X138197296Y-87619195D01*
X138210148Y-87646757D01*
X138210154Y-87646768D01*
X138212477Y-87651749D01*
X138343802Y-87839300D01*
X138505700Y-88001198D01*
X138510208Y-88004355D01*
X138510211Y-88004357D01*
X138588389Y-88059098D01*
X138693251Y-88132523D01*
X138698233Y-88134846D01*
X138698238Y-88134849D01*
X138732457Y-88150805D01*
X138785742Y-88197722D01*
X138805203Y-88265999D01*
X138784661Y-88333959D01*
X138732457Y-88379195D01*
X138698238Y-88395151D01*
X138698233Y-88395154D01*
X138693251Y-88397477D01*
X138588389Y-88470902D01*
X138510211Y-88525643D01*
X138510208Y-88525645D01*
X138505700Y-88528802D01*
X138343802Y-88690700D01*
X138212477Y-88878251D01*
X138210154Y-88883233D01*
X138210151Y-88883238D01*
X138118039Y-89080775D01*
X138115716Y-89085757D01*
X138056457Y-89306913D01*
X138036502Y-89535000D01*
X138056457Y-89763087D01*
X138115716Y-89984243D01*
X138118039Y-89989224D01*
X138118039Y-89989225D01*
X138210151Y-90186762D01*
X138210154Y-90186767D01*
X138212477Y-90191749D01*
X138343802Y-90379300D01*
X138505700Y-90541198D01*
X138510208Y-90544355D01*
X138510211Y-90544357D01*
X138588389Y-90599098D01*
X138693251Y-90672523D01*
X138698233Y-90674846D01*
X138698238Y-90674849D01*
X138732457Y-90690805D01*
X138785742Y-90737722D01*
X138805203Y-90805999D01*
X138784661Y-90873959D01*
X138732457Y-90919195D01*
X138698238Y-90935151D01*
X138698233Y-90935154D01*
X138693251Y-90937477D01*
X138588389Y-91010902D01*
X138510211Y-91065643D01*
X138510208Y-91065645D01*
X138505700Y-91068802D01*
X138343802Y-91230700D01*
X138212477Y-91418251D01*
X138210154Y-91423233D01*
X138210151Y-91423238D01*
X138118039Y-91620775D01*
X138115716Y-91625757D01*
X138056457Y-91846913D01*
X138036502Y-92075000D01*
X138056457Y-92303087D01*
X138115716Y-92524243D01*
X138118039Y-92529224D01*
X138118039Y-92529225D01*
X138210151Y-92726762D01*
X138210154Y-92726767D01*
X138212477Y-92731749D01*
X138343802Y-92919300D01*
X138505700Y-93081198D01*
X138510208Y-93084355D01*
X138510211Y-93084357D01*
X138588389Y-93139098D01*
X138693251Y-93212523D01*
X138698233Y-93214846D01*
X138698238Y-93214849D01*
X138732457Y-93230805D01*
X138785742Y-93277722D01*
X138805203Y-93345999D01*
X138784661Y-93413959D01*
X138732457Y-93459195D01*
X138698238Y-93475151D01*
X138698233Y-93475154D01*
X138693251Y-93477477D01*
X138588389Y-93550902D01*
X138510211Y-93605643D01*
X138510208Y-93605645D01*
X138505700Y-93608802D01*
X138343802Y-93770700D01*
X138212477Y-93958251D01*
X138210154Y-93963233D01*
X138210151Y-93963238D01*
X138118039Y-94160775D01*
X138115716Y-94165757D01*
X138056457Y-94386913D01*
X138036502Y-94615000D01*
X138056457Y-94843087D01*
X138115716Y-95064243D01*
X138118039Y-95069224D01*
X138118039Y-95069225D01*
X138210151Y-95266762D01*
X138210154Y-95266767D01*
X138212477Y-95271749D01*
X138343802Y-95459300D01*
X138505700Y-95621198D01*
X138510208Y-95624355D01*
X138510211Y-95624357D01*
X138588389Y-95679098D01*
X138693251Y-95752523D01*
X138698233Y-95754846D01*
X138698238Y-95754849D01*
X138732457Y-95770805D01*
X138785742Y-95817722D01*
X138805203Y-95885999D01*
X138784661Y-95953959D01*
X138732457Y-95999195D01*
X138698238Y-96015151D01*
X138698233Y-96015154D01*
X138693251Y-96017477D01*
X138588389Y-96090902D01*
X138510211Y-96145643D01*
X138510208Y-96145645D01*
X138505700Y-96148802D01*
X138343802Y-96310700D01*
X138212477Y-96498251D01*
X138210154Y-96503233D01*
X138210151Y-96503238D01*
X138118039Y-96700775D01*
X138115716Y-96705757D01*
X138056457Y-96926913D01*
X138036502Y-97155000D01*
X138056457Y-97383087D01*
X138115716Y-97604243D01*
X138118039Y-97609224D01*
X138118039Y-97609225D01*
X138210151Y-97806762D01*
X138210154Y-97806767D01*
X138212477Y-97811749D01*
X138343802Y-97999300D01*
X138505700Y-98161198D01*
X138510208Y-98164355D01*
X138510211Y-98164357D01*
X138588389Y-98219098D01*
X138693251Y-98292523D01*
X138698233Y-98294846D01*
X138698238Y-98294849D01*
X138733049Y-98311081D01*
X138786334Y-98357998D01*
X138805795Y-98426275D01*
X138785253Y-98494235D01*
X138733049Y-98539471D01*
X138698489Y-98555586D01*
X138688993Y-98561069D01*
X138510533Y-98686028D01*
X138502125Y-98693084D01*
X138348084Y-98847125D01*
X138341028Y-98855533D01*
X138216069Y-99033993D01*
X138210586Y-99043489D01*
X138118510Y-99240947D01*
X138114764Y-99251239D01*
X138068606Y-99423503D01*
X138068942Y-99437599D01*
X138076884Y-99441000D01*
X141017967Y-99441000D01*
X141031498Y-99437027D01*
X141032727Y-99428478D01*
X140985236Y-99251239D01*
X140981490Y-99240947D01*
X140889414Y-99043489D01*
X140883931Y-99033993D01*
X140758972Y-98855533D01*
X140751916Y-98847125D01*
X140597875Y-98693084D01*
X140589467Y-98686028D01*
X140411007Y-98561069D01*
X140401511Y-98555586D01*
X140366951Y-98539471D01*
X140313666Y-98492554D01*
X140294205Y-98424277D01*
X140314747Y-98356317D01*
X140366951Y-98311081D01*
X140401762Y-98294849D01*
X140401767Y-98294846D01*
X140406749Y-98292523D01*
X140511611Y-98219098D01*
X140589789Y-98164357D01*
X140589792Y-98164355D01*
X140594300Y-98161198D01*
X140756198Y-97999300D01*
X140887523Y-97811749D01*
X140889846Y-97806767D01*
X140889849Y-97806762D01*
X140981961Y-97609225D01*
X140981961Y-97609224D01*
X140984284Y-97604243D01*
X141043543Y-97383087D01*
X141063498Y-97155000D01*
X141043543Y-96926913D01*
X140984284Y-96705757D01*
X140981961Y-96700775D01*
X140889849Y-96503238D01*
X140889846Y-96503233D01*
X140887523Y-96498251D01*
X140756198Y-96310700D01*
X140594300Y-96148802D01*
X140589792Y-96145645D01*
X140589789Y-96145643D01*
X140511611Y-96090902D01*
X140406749Y-96017477D01*
X140401767Y-96015154D01*
X140401762Y-96015151D01*
X140367543Y-95999195D01*
X140314258Y-95952278D01*
X140294797Y-95884001D01*
X140315339Y-95816041D01*
X140367543Y-95770805D01*
X140401762Y-95754849D01*
X140401767Y-95754846D01*
X140406749Y-95752523D01*
X140511611Y-95679098D01*
X140589789Y-95624357D01*
X140589792Y-95624355D01*
X140594300Y-95621198D01*
X140756198Y-95459300D01*
X140887523Y-95271749D01*
X140889846Y-95266767D01*
X140889849Y-95266762D01*
X140981961Y-95069225D01*
X140981961Y-95069224D01*
X140984284Y-95064243D01*
X141043543Y-94843087D01*
X141063498Y-94615000D01*
X141043543Y-94386913D01*
X140984284Y-94165757D01*
X140981961Y-94160775D01*
X140889849Y-93963238D01*
X140889846Y-93963233D01*
X140887523Y-93958251D01*
X140756198Y-93770700D01*
X140594300Y-93608802D01*
X140589792Y-93605645D01*
X140589789Y-93605643D01*
X140511611Y-93550902D01*
X140406749Y-93477477D01*
X140401767Y-93475154D01*
X140401762Y-93475151D01*
X140367543Y-93459195D01*
X140314258Y-93412278D01*
X140294797Y-93344001D01*
X140315339Y-93276041D01*
X140367543Y-93230805D01*
X140401762Y-93214849D01*
X140401767Y-93214846D01*
X140406749Y-93212523D01*
X140511611Y-93139098D01*
X140589789Y-93084357D01*
X140589792Y-93084355D01*
X140594300Y-93081198D01*
X140756198Y-92919300D01*
X140887523Y-92731749D01*
X140889846Y-92726767D01*
X140889849Y-92726762D01*
X140981961Y-92529225D01*
X140981961Y-92529224D01*
X140984284Y-92524243D01*
X141043543Y-92303087D01*
X141063498Y-92075000D01*
X141043543Y-91846913D01*
X140984284Y-91625757D01*
X140981961Y-91620775D01*
X140889849Y-91423238D01*
X140889846Y-91423233D01*
X140887523Y-91418251D01*
X140756198Y-91230700D01*
X140594300Y-91068802D01*
X140589792Y-91065645D01*
X140589789Y-91065643D01*
X140511611Y-91010902D01*
X140406749Y-90937477D01*
X140401767Y-90935154D01*
X140401762Y-90935151D01*
X140367543Y-90919195D01*
X140314258Y-90872278D01*
X140294797Y-90804001D01*
X140315339Y-90736041D01*
X140367543Y-90690805D01*
X140401762Y-90674849D01*
X140401767Y-90674846D01*
X140406749Y-90672523D01*
X140511611Y-90599098D01*
X140589789Y-90544357D01*
X140589792Y-90544355D01*
X140594300Y-90541198D01*
X140756198Y-90379300D01*
X140887523Y-90191749D01*
X140889846Y-90186767D01*
X140889849Y-90186762D01*
X140981961Y-89989225D01*
X140981961Y-89989224D01*
X140984284Y-89984243D01*
X141043543Y-89763087D01*
X141063498Y-89535000D01*
X141043543Y-89306913D01*
X140984284Y-89085757D01*
X140981961Y-89080775D01*
X140889849Y-88883238D01*
X140889846Y-88883233D01*
X140887523Y-88878251D01*
X140756198Y-88690700D01*
X140594300Y-88528802D01*
X140589792Y-88525645D01*
X140589789Y-88525643D01*
X140511611Y-88470902D01*
X140406749Y-88397477D01*
X140401767Y-88395154D01*
X140401762Y-88395151D01*
X140367543Y-88379195D01*
X140314258Y-88332278D01*
X140294797Y-88264001D01*
X140315339Y-88196041D01*
X140367543Y-88150805D01*
X140401762Y-88134849D01*
X140401767Y-88134846D01*
X140406749Y-88132523D01*
X140511611Y-88059098D01*
X140589789Y-88004357D01*
X140589792Y-88004355D01*
X140594300Y-88001198D01*
X140756198Y-87839300D01*
X140887523Y-87651749D01*
X140889846Y-87646767D01*
X140889849Y-87646762D01*
X140981961Y-87449225D01*
X140981961Y-87449224D01*
X140984284Y-87444243D01*
X141043543Y-87223087D01*
X141063498Y-86995000D01*
X141043543Y-86766913D01*
X140984284Y-86545757D01*
X140981961Y-86540775D01*
X140889849Y-86343238D01*
X140889846Y-86343233D01*
X140887523Y-86338251D01*
X140756198Y-86150700D01*
X140594300Y-85988802D01*
X140589792Y-85985645D01*
X140589789Y-85985643D01*
X140467805Y-85900229D01*
X140406749Y-85857477D01*
X140401767Y-85855154D01*
X140401762Y-85855151D01*
X140367543Y-85839195D01*
X140314258Y-85792278D01*
X140294797Y-85724001D01*
X140315339Y-85656041D01*
X140367543Y-85610805D01*
X140401762Y-85594849D01*
X140401767Y-85594846D01*
X140406749Y-85592523D01*
X140529558Y-85506531D01*
X140589789Y-85464357D01*
X140589792Y-85464355D01*
X140594300Y-85461198D01*
X140756198Y-85299300D01*
X140791557Y-85248803D01*
X140832809Y-85189889D01*
X140887523Y-85111749D01*
X140889846Y-85106767D01*
X140889849Y-85106762D01*
X140981961Y-84909225D01*
X140981961Y-84909224D01*
X140984284Y-84904243D01*
X141006785Y-84820271D01*
X141042119Y-84688402D01*
X141042119Y-84688400D01*
X141043543Y-84683087D01*
X141063498Y-84455000D01*
X141043543Y-84226913D01*
X141042119Y-84221598D01*
X140985707Y-84011067D01*
X140985706Y-84011065D01*
X140984284Y-84005757D01*
X140941100Y-83913148D01*
X140889849Y-83803238D01*
X140889846Y-83803233D01*
X140887523Y-83798251D01*
X140793437Y-83663882D01*
X140759357Y-83615211D01*
X140759355Y-83615208D01*
X140756198Y-83610700D01*
X140594300Y-83448802D01*
X140589792Y-83445645D01*
X140589789Y-83445643D01*
X140456824Y-83352540D01*
X140406749Y-83317477D01*
X140401767Y-83315154D01*
X140401762Y-83315151D01*
X140204225Y-83223039D01*
X140204224Y-83223039D01*
X140199243Y-83220716D01*
X140193935Y-83219294D01*
X140193933Y-83219293D01*
X139983402Y-83162881D01*
X139983400Y-83162881D01*
X139978087Y-83161457D01*
X139878520Y-83152746D01*
X139809851Y-83146738D01*
X139809844Y-83146738D01*
X139807127Y-83146500D01*
X139292873Y-83146500D01*
X139290156Y-83146738D01*
X139290149Y-83146738D01*
X139221480Y-83152746D01*
X139121913Y-83161457D01*
X139116600Y-83162881D01*
X139116598Y-83162881D01*
X138906067Y-83219293D01*
X138906065Y-83219294D01*
X138900757Y-83220716D01*
X138895776Y-83223039D01*
X138895775Y-83223039D01*
X138698238Y-83315151D01*
X138698233Y-83315154D01*
X138693251Y-83317477D01*
X138643176Y-83352540D01*
X138510211Y-83445643D01*
X138510208Y-83445645D01*
X138505700Y-83448802D01*
X138343802Y-83610700D01*
X138340645Y-83615208D01*
X138340643Y-83615211D01*
X138306563Y-83663882D01*
X138212477Y-83798251D01*
X138210154Y-83803233D01*
X138210151Y-83803238D01*
X138158900Y-83913148D01*
X138115716Y-84005757D01*
X138114294Y-84011065D01*
X138114293Y-84011067D01*
X138057881Y-84221598D01*
X138056457Y-84226913D01*
X138036502Y-84455000D01*
X138056457Y-84683087D01*
X138057881Y-84688400D01*
X138057881Y-84688402D01*
X138093216Y-84820271D01*
X138115716Y-84904243D01*
X138118039Y-84909224D01*
X138118039Y-84909225D01*
X138210151Y-85106762D01*
X138210154Y-85106767D01*
X138212477Y-85111749D01*
X138267191Y-85189889D01*
X138308444Y-85248803D01*
X138343802Y-85299300D01*
X138505700Y-85461198D01*
X138510208Y-85464355D01*
X138510211Y-85464357D01*
X138570442Y-85506531D01*
X138693251Y-85592523D01*
X138698233Y-85594846D01*
X138698238Y-85594849D01*
X138732457Y-85610805D01*
X138785742Y-85657722D01*
X138805203Y-85725999D01*
X138784661Y-85793959D01*
X138732457Y-85839195D01*
X138698238Y-85855151D01*
X138698233Y-85855154D01*
X138693251Y-85857477D01*
X138505700Y-85988802D01*
X138501810Y-85992692D01*
X138501804Y-85992697D01*
X138501798Y-85992703D01*
X138501795Y-85992705D01*
X138497596Y-85996228D01*
X138496888Y-85995384D01*
X138439486Y-86026729D01*
X138368671Y-86021664D01*
X138323608Y-85992703D01*
X136837122Y-84506217D01*
X136803096Y-84443905D01*
X136800907Y-84430292D01*
X136784232Y-84271635D01*
X136784232Y-84271633D01*
X136783542Y-84265072D01*
X136724527Y-84083444D01*
X136629040Y-83918056D01*
X136501253Y-83776134D01*
X136346752Y-83663882D01*
X136340724Y-83661198D01*
X136340722Y-83661197D01*
X136178319Y-83588891D01*
X136178318Y-83588891D01*
X136172288Y-83586206D01*
X136078888Y-83566353D01*
X135991944Y-83547872D01*
X135991939Y-83547872D01*
X135985487Y-83546500D01*
X135794513Y-83546500D01*
X135788061Y-83547872D01*
X135788056Y-83547872D01*
X135701112Y-83566353D01*
X135607712Y-83586206D01*
X135601682Y-83588891D01*
X135601681Y-83588891D01*
X135439278Y-83661197D01*
X135439276Y-83661198D01*
X135433248Y-83663882D01*
X135278747Y-83776134D01*
X135150960Y-83918056D01*
X135055473Y-84083444D01*
X134996458Y-84265072D01*
X134976496Y-84455000D01*
X118198500Y-84455000D01*
X118198500Y-83406866D01*
X118191745Y-83344684D01*
X118140615Y-83208295D01*
X118053261Y-83091739D01*
X117936705Y-83004385D01*
X117800316Y-82953255D01*
X117738134Y-82946500D01*
X115641866Y-82946500D01*
X115579684Y-82953255D01*
X115443295Y-83004385D01*
X115326739Y-83091739D01*
X115239385Y-83208295D01*
X115188255Y-83344684D01*
X115181500Y-83406866D01*
X115181500Y-85503134D01*
X115188255Y-85565316D01*
X115239385Y-85701705D01*
X115326739Y-85818261D01*
X115443295Y-85905615D01*
X115451704Y-85908767D01*
X115451707Y-85908769D01*
X115467768Y-85914790D01*
X115524533Y-85957431D01*
X115549234Y-86023992D01*
X115534027Y-86093341D01*
X115512635Y-86121867D01*
X115483802Y-86150700D01*
X115480645Y-86155208D01*
X115480643Y-86155211D01*
X115373819Y-86307771D01*
X115318362Y-86352099D01*
X115270606Y-86361500D01*
X113344594Y-86361500D01*
X113276473Y-86341498D01*
X113255499Y-86324595D01*
X111795405Y-84864500D01*
X111761379Y-84802188D01*
X111758500Y-84775405D01*
X111758500Y-64770000D01*
X121914647Y-64770000D01*
X121934022Y-64991463D01*
X121964379Y-65104756D01*
X121989785Y-65199570D01*
X121991560Y-65206196D01*
X121993882Y-65211177D01*
X121993883Y-65211178D01*
X122083186Y-65402689D01*
X122083189Y-65402694D01*
X122085512Y-65407676D01*
X122088668Y-65412183D01*
X122088669Y-65412185D01*
X122138789Y-65483763D01*
X122213023Y-65589781D01*
X122370219Y-65746977D01*
X122374727Y-65750134D01*
X122374730Y-65750136D01*
X122450495Y-65803187D01*
X122552323Y-65874488D01*
X122557305Y-65876811D01*
X122557310Y-65876814D01*
X122747810Y-65965645D01*
X122753804Y-65968440D01*
X122759112Y-65969862D01*
X122759114Y-65969863D01*
X122824949Y-65987503D01*
X122968537Y-66025978D01*
X123190000Y-66045353D01*
X123411463Y-66025978D01*
X123555051Y-65987503D01*
X123620886Y-65969863D01*
X123620888Y-65969862D01*
X123626196Y-65968440D01*
X123632190Y-65965645D01*
X123822690Y-65876814D01*
X123822695Y-65876811D01*
X123827677Y-65874488D01*
X123929505Y-65803187D01*
X124005270Y-65750136D01*
X124005273Y-65750134D01*
X124009781Y-65746977D01*
X124166977Y-65589781D01*
X124241212Y-65483763D01*
X124291331Y-65412185D01*
X124291332Y-65412183D01*
X124294488Y-65407676D01*
X124296811Y-65402694D01*
X124296814Y-65402689D01*
X124345805Y-65297627D01*
X124392723Y-65244342D01*
X124461000Y-65224881D01*
X124528960Y-65245423D01*
X124574195Y-65297627D01*
X124623186Y-65402689D01*
X124623189Y-65402694D01*
X124625512Y-65407676D01*
X124628668Y-65412183D01*
X124628669Y-65412185D01*
X124678789Y-65483763D01*
X124753023Y-65589781D01*
X124910219Y-65746977D01*
X124914727Y-65750134D01*
X124914730Y-65750136D01*
X124990495Y-65803187D01*
X125092323Y-65874488D01*
X125097305Y-65876811D01*
X125097310Y-65876814D01*
X125287810Y-65965645D01*
X125293804Y-65968440D01*
X125299112Y-65969862D01*
X125299114Y-65969863D01*
X125364949Y-65987503D01*
X125508537Y-66025978D01*
X125730000Y-66045353D01*
X125951463Y-66025978D01*
X126095051Y-65987503D01*
X126160886Y-65969863D01*
X126160888Y-65969862D01*
X126166196Y-65968440D01*
X126172190Y-65965645D01*
X126362690Y-65876814D01*
X126362695Y-65876811D01*
X126367677Y-65874488D01*
X126432959Y-65828777D01*
X127575777Y-65828777D01*
X127585074Y-65840793D01*
X127628069Y-65870898D01*
X127637555Y-65876376D01*
X127828993Y-65965645D01*
X127839285Y-65969391D01*
X128043309Y-66024059D01*
X128054104Y-66025962D01*
X128264525Y-66044372D01*
X128275475Y-66044372D01*
X128485896Y-66025962D01*
X128496691Y-66024059D01*
X128700715Y-65969391D01*
X128711007Y-65965645D01*
X128902445Y-65876376D01*
X128911931Y-65870898D01*
X128955764Y-65840207D01*
X128964139Y-65829729D01*
X128957071Y-65816281D01*
X128282812Y-65142022D01*
X128268868Y-65134408D01*
X128267035Y-65134539D01*
X128260420Y-65138790D01*
X127582207Y-65817003D01*
X127575777Y-65828777D01*
X126432959Y-65828777D01*
X126469505Y-65803187D01*
X126545270Y-65750136D01*
X126545273Y-65750134D01*
X126549781Y-65746977D01*
X126706977Y-65589781D01*
X126781212Y-65483763D01*
X126831331Y-65412185D01*
X126831332Y-65412183D01*
X126834488Y-65407676D01*
X126836811Y-65402694D01*
X126836814Y-65402689D01*
X126886081Y-65297035D01*
X126932999Y-65243750D01*
X127001276Y-65224289D01*
X127069236Y-65244831D01*
X127114471Y-65297035D01*
X127163623Y-65402441D01*
X127169103Y-65411932D01*
X127199794Y-65455765D01*
X127210271Y-65464140D01*
X127223718Y-65457072D01*
X127897978Y-64782812D01*
X127904356Y-64771132D01*
X128634408Y-64771132D01*
X128634539Y-64772965D01*
X128638790Y-64779580D01*
X129317003Y-65457793D01*
X129328777Y-65464223D01*
X129340793Y-65454926D01*
X129370897Y-65411932D01*
X129376377Y-65402441D01*
X129425529Y-65297035D01*
X129472447Y-65243750D01*
X129540724Y-65224289D01*
X129608684Y-65244831D01*
X129653919Y-65297035D01*
X129703186Y-65402689D01*
X129703189Y-65402694D01*
X129705512Y-65407676D01*
X129708668Y-65412183D01*
X129708669Y-65412185D01*
X129758789Y-65483763D01*
X129833023Y-65589781D01*
X129990219Y-65746977D01*
X129994727Y-65750134D01*
X129994730Y-65750136D01*
X130070495Y-65803187D01*
X130172323Y-65874488D01*
X130177305Y-65876811D01*
X130177310Y-65876814D01*
X130367810Y-65965645D01*
X130373804Y-65968440D01*
X130379112Y-65969862D01*
X130379114Y-65969863D01*
X130444949Y-65987503D01*
X130588537Y-66025978D01*
X130810000Y-66045353D01*
X131031463Y-66025978D01*
X131175051Y-65987503D01*
X131240886Y-65969863D01*
X131240888Y-65969862D01*
X131246196Y-65968440D01*
X131252190Y-65965645D01*
X131442690Y-65876814D01*
X131442695Y-65876811D01*
X131447677Y-65874488D01*
X131549505Y-65803187D01*
X131625270Y-65750136D01*
X131625273Y-65750134D01*
X131629781Y-65746977D01*
X131786977Y-65589781D01*
X131861212Y-65483763D01*
X131911331Y-65412185D01*
X131911332Y-65412183D01*
X131914488Y-65407676D01*
X131916811Y-65402694D01*
X131916814Y-65402689D01*
X132006117Y-65211178D01*
X132006118Y-65211177D01*
X132008440Y-65206196D01*
X132010216Y-65199570D01*
X132035621Y-65104756D01*
X132065978Y-64991463D01*
X132085353Y-64770000D01*
X132065978Y-64548537D01*
X132008440Y-64333804D01*
X131965805Y-64242373D01*
X131916814Y-64137311D01*
X131916811Y-64137306D01*
X131914488Y-64132324D01*
X131911331Y-64127815D01*
X131790136Y-63954730D01*
X131790134Y-63954727D01*
X131786977Y-63950219D01*
X131629781Y-63793023D01*
X131625273Y-63789866D01*
X131625270Y-63789864D01*
X131549505Y-63736813D01*
X131447677Y-63665512D01*
X131442695Y-63663189D01*
X131442690Y-63663186D01*
X131251178Y-63573883D01*
X131251177Y-63573882D01*
X131246196Y-63571560D01*
X131240888Y-63570138D01*
X131240886Y-63570137D01*
X131175051Y-63552497D01*
X131031463Y-63514022D01*
X130810000Y-63494647D01*
X130588537Y-63514022D01*
X130444949Y-63552497D01*
X130379114Y-63570137D01*
X130379112Y-63570138D01*
X130373804Y-63571560D01*
X130368823Y-63573882D01*
X130368822Y-63573883D01*
X130177311Y-63663186D01*
X130177306Y-63663189D01*
X130172324Y-63665512D01*
X130167817Y-63668668D01*
X130167815Y-63668669D01*
X129994730Y-63789864D01*
X129994727Y-63789866D01*
X129990219Y-63793023D01*
X129833023Y-63950219D01*
X129829866Y-63954727D01*
X129829864Y-63954730D01*
X129708669Y-64127815D01*
X129705512Y-64132324D01*
X129703189Y-64137306D01*
X129703186Y-64137311D01*
X129653919Y-64242965D01*
X129607001Y-64296250D01*
X129538724Y-64315711D01*
X129470764Y-64295169D01*
X129425529Y-64242965D01*
X129376377Y-64137559D01*
X129370897Y-64128068D01*
X129340206Y-64084235D01*
X129329729Y-64075860D01*
X129316282Y-64082928D01*
X128642022Y-64757188D01*
X128634408Y-64771132D01*
X127904356Y-64771132D01*
X127905592Y-64768868D01*
X127905461Y-64767035D01*
X127901210Y-64760420D01*
X127222997Y-64082207D01*
X127211223Y-64075777D01*
X127199207Y-64085074D01*
X127169103Y-64128068D01*
X127163623Y-64137559D01*
X127114471Y-64242965D01*
X127067553Y-64296250D01*
X126999276Y-64315711D01*
X126931316Y-64295169D01*
X126886081Y-64242965D01*
X126836814Y-64137311D01*
X126836811Y-64137306D01*
X126834488Y-64132324D01*
X126831331Y-64127815D01*
X126710136Y-63954730D01*
X126710134Y-63954727D01*
X126706977Y-63950219D01*
X126549781Y-63793023D01*
X126545273Y-63789866D01*
X126545270Y-63789864D01*
X126469505Y-63736813D01*
X126431599Y-63710271D01*
X127575860Y-63710271D01*
X127582928Y-63723718D01*
X128257188Y-64397978D01*
X128271132Y-64405592D01*
X128272965Y-64405461D01*
X128279580Y-64401210D01*
X128957793Y-63722997D01*
X128964223Y-63711223D01*
X128954926Y-63699207D01*
X128911931Y-63669102D01*
X128902445Y-63663624D01*
X128711007Y-63574355D01*
X128700715Y-63570609D01*
X128496691Y-63515941D01*
X128485896Y-63514038D01*
X128275475Y-63495628D01*
X128264525Y-63495628D01*
X128054104Y-63514038D01*
X128043309Y-63515941D01*
X127839285Y-63570609D01*
X127828993Y-63574355D01*
X127637559Y-63663623D01*
X127628068Y-63669103D01*
X127584235Y-63699794D01*
X127575860Y-63710271D01*
X126431599Y-63710271D01*
X126367677Y-63665512D01*
X126362695Y-63663189D01*
X126362690Y-63663186D01*
X126171178Y-63573883D01*
X126171177Y-63573882D01*
X126166196Y-63571560D01*
X126160888Y-63570138D01*
X126160886Y-63570137D01*
X126095051Y-63552497D01*
X125951463Y-63514022D01*
X125730000Y-63494647D01*
X125508537Y-63514022D01*
X125364949Y-63552497D01*
X125299114Y-63570137D01*
X125299112Y-63570138D01*
X125293804Y-63571560D01*
X125288823Y-63573882D01*
X125288822Y-63573883D01*
X125097311Y-63663186D01*
X125097306Y-63663189D01*
X125092324Y-63665512D01*
X125087817Y-63668668D01*
X125087815Y-63668669D01*
X124914730Y-63789864D01*
X124914727Y-63789866D01*
X124910219Y-63793023D01*
X124753023Y-63950219D01*
X124749866Y-63954727D01*
X124749864Y-63954730D01*
X124628669Y-64127815D01*
X124625512Y-64132324D01*
X124623189Y-64137306D01*
X124623186Y-64137311D01*
X124574195Y-64242373D01*
X124527277Y-64295658D01*
X124459000Y-64315119D01*
X124391040Y-64294577D01*
X124345805Y-64242373D01*
X124296814Y-64137311D01*
X124296811Y-64137306D01*
X124294488Y-64132324D01*
X124291331Y-64127815D01*
X124170136Y-63954730D01*
X124170134Y-63954727D01*
X124166977Y-63950219D01*
X124009781Y-63793023D01*
X124005273Y-63789866D01*
X124005270Y-63789864D01*
X123929505Y-63736813D01*
X123827677Y-63665512D01*
X123822695Y-63663189D01*
X123822690Y-63663186D01*
X123631178Y-63573883D01*
X123631177Y-63573882D01*
X123626196Y-63571560D01*
X123620888Y-63570138D01*
X123620886Y-63570137D01*
X123555051Y-63552497D01*
X123411463Y-63514022D01*
X123190000Y-63494647D01*
X122968537Y-63514022D01*
X122824949Y-63552497D01*
X122759114Y-63570137D01*
X122759112Y-63570138D01*
X122753804Y-63571560D01*
X122748823Y-63573882D01*
X122748822Y-63573883D01*
X122557311Y-63663186D01*
X122557306Y-63663189D01*
X122552324Y-63665512D01*
X122547817Y-63668668D01*
X122547815Y-63668669D01*
X122374730Y-63789864D01*
X122374727Y-63789866D01*
X122370219Y-63793023D01*
X122213023Y-63950219D01*
X122209866Y-63954727D01*
X122209864Y-63954730D01*
X122088669Y-64127815D01*
X122085512Y-64132324D01*
X122083189Y-64137306D01*
X122083186Y-64137311D01*
X122034195Y-64242373D01*
X121991560Y-64333804D01*
X121934022Y-64548537D01*
X121914647Y-64770000D01*
X111758500Y-64770000D01*
X111758500Y-62133004D01*
X111778502Y-62064883D01*
X111812229Y-62029791D01*
X111827959Y-62018777D01*
X112335777Y-62018777D01*
X112345074Y-62030793D01*
X112388069Y-62060898D01*
X112397555Y-62066376D01*
X112588993Y-62155645D01*
X112599285Y-62159391D01*
X112803309Y-62214059D01*
X112814104Y-62215962D01*
X113024525Y-62234372D01*
X113035475Y-62234372D01*
X113245896Y-62215962D01*
X113256691Y-62214059D01*
X113460715Y-62159391D01*
X113471007Y-62155645D01*
X113662445Y-62066376D01*
X113671931Y-62060898D01*
X113715764Y-62030207D01*
X113724139Y-62019729D01*
X113717071Y-62006281D01*
X113042812Y-61332022D01*
X113028868Y-61324408D01*
X113027035Y-61324539D01*
X113020420Y-61328790D01*
X112342207Y-62007003D01*
X112335777Y-62018777D01*
X111827959Y-62018777D01*
X111940270Y-61940136D01*
X111940273Y-61940134D01*
X111944781Y-61936977D01*
X112101977Y-61779781D01*
X112229488Y-61597676D01*
X112231811Y-61592694D01*
X112231814Y-61592689D01*
X112321117Y-61401178D01*
X112321118Y-61401177D01*
X112323440Y-61396196D01*
X112347223Y-61307439D01*
X112379834Y-61250956D01*
X112657978Y-60972812D01*
X112664356Y-60961132D01*
X113394408Y-60961132D01*
X113394539Y-60962965D01*
X113398790Y-60969580D01*
X113680166Y-61250956D01*
X113712777Y-61307439D01*
X113736560Y-61396196D01*
X113738882Y-61401177D01*
X113738883Y-61401178D01*
X113828186Y-61592689D01*
X113828189Y-61592694D01*
X113830512Y-61597676D01*
X113958023Y-61779781D01*
X114115219Y-61936977D01*
X114119727Y-61940134D01*
X114119730Y-61940136D01*
X114195495Y-61993187D01*
X114297323Y-62064488D01*
X114302305Y-62066811D01*
X114302310Y-62066814D01*
X114444256Y-62133004D01*
X114498804Y-62158440D01*
X114504112Y-62159862D01*
X114504114Y-62159863D01*
X114569949Y-62177503D01*
X114713537Y-62215978D01*
X114935000Y-62235353D01*
X115156463Y-62215978D01*
X115300051Y-62177503D01*
X115365886Y-62159863D01*
X115365888Y-62159862D01*
X115371196Y-62158440D01*
X115425744Y-62133004D01*
X115567690Y-62066814D01*
X115567695Y-62066811D01*
X115572677Y-62064488D01*
X115674505Y-61993187D01*
X115750270Y-61940136D01*
X115750273Y-61940134D01*
X115754781Y-61936977D01*
X115911977Y-61779781D01*
X116039488Y-61597676D01*
X116041811Y-61592694D01*
X116041814Y-61592689D01*
X116131117Y-61401178D01*
X116131118Y-61401177D01*
X116133440Y-61396196D01*
X116190978Y-61181463D01*
X116210353Y-60960000D01*
X116190978Y-60738537D01*
X116133440Y-60523804D01*
X116131117Y-60518822D01*
X116041814Y-60327311D01*
X116041811Y-60327306D01*
X116039488Y-60322324D01*
X115911977Y-60140219D01*
X115754781Y-59983023D01*
X115750273Y-59979866D01*
X115750270Y-59979864D01*
X115674505Y-59926813D01*
X115572677Y-59855512D01*
X115567695Y-59853189D01*
X115567690Y-59853186D01*
X115376178Y-59763883D01*
X115376177Y-59763882D01*
X115371196Y-59761560D01*
X115365888Y-59760138D01*
X115365886Y-59760137D01*
X115300051Y-59742497D01*
X115156463Y-59704022D01*
X114935000Y-59684647D01*
X114713537Y-59704022D01*
X114569949Y-59742497D01*
X114504114Y-59760137D01*
X114504112Y-59760138D01*
X114498804Y-59761560D01*
X114493823Y-59763882D01*
X114493822Y-59763883D01*
X114302311Y-59853186D01*
X114302306Y-59853189D01*
X114297324Y-59855512D01*
X114292817Y-59858668D01*
X114292815Y-59858669D01*
X114119730Y-59979864D01*
X114119727Y-59979866D01*
X114115219Y-59983023D01*
X113958023Y-60140219D01*
X113830512Y-60322324D01*
X113828189Y-60327306D01*
X113828186Y-60327311D01*
X113738883Y-60518822D01*
X113736560Y-60523804D01*
X113717325Y-60595592D01*
X113712778Y-60612560D01*
X113680166Y-60669044D01*
X113402022Y-60947188D01*
X113394408Y-60961132D01*
X112664356Y-60961132D01*
X112665592Y-60958868D01*
X112665461Y-60957035D01*
X112661210Y-60950420D01*
X112379834Y-60669044D01*
X112347222Y-60612560D01*
X112342676Y-60595592D01*
X112323440Y-60523804D01*
X112321117Y-60518822D01*
X112231814Y-60327311D01*
X112231811Y-60327306D01*
X112229488Y-60322324D01*
X112101977Y-60140219D01*
X111944781Y-59983023D01*
X111940273Y-59979866D01*
X111940270Y-59979864D01*
X111864505Y-59926813D01*
X111826599Y-59900271D01*
X112335860Y-59900271D01*
X112342928Y-59913718D01*
X113017188Y-60587978D01*
X113031132Y-60595592D01*
X113032965Y-60595461D01*
X113039580Y-60591210D01*
X113717793Y-59912997D01*
X113724223Y-59901223D01*
X113714926Y-59889207D01*
X113671931Y-59859102D01*
X113662445Y-59853624D01*
X113471007Y-59764355D01*
X113460715Y-59760609D01*
X113256691Y-59705941D01*
X113245896Y-59704038D01*
X113035475Y-59685628D01*
X113024525Y-59685628D01*
X112814104Y-59704038D01*
X112803309Y-59705941D01*
X112599285Y-59760609D01*
X112588993Y-59764355D01*
X112397559Y-59853623D01*
X112388068Y-59859103D01*
X112344235Y-59889794D01*
X112335860Y-59900271D01*
X111826599Y-59900271D01*
X111762677Y-59855512D01*
X111757695Y-59853189D01*
X111757690Y-59853186D01*
X111566178Y-59763883D01*
X111566177Y-59763882D01*
X111561196Y-59761560D01*
X111555888Y-59760138D01*
X111555886Y-59760137D01*
X111490051Y-59742497D01*
X111346463Y-59704022D01*
X111125000Y-59684647D01*
X110903537Y-59704022D01*
X110759949Y-59742497D01*
X110694114Y-59760137D01*
X110694112Y-59760138D01*
X110688804Y-59761560D01*
X110683823Y-59763882D01*
X110683822Y-59763883D01*
X110492311Y-59853186D01*
X110492306Y-59853189D01*
X110487324Y-59855512D01*
X110482817Y-59858668D01*
X110482815Y-59858669D01*
X110309730Y-59979864D01*
X110309727Y-59979866D01*
X110305219Y-59983023D01*
X110148023Y-60140219D01*
X110020512Y-60322324D01*
X110018189Y-60327306D01*
X110018186Y-60327311D01*
X109928883Y-60518822D01*
X109926560Y-60523804D01*
X109869022Y-60738537D01*
X109849647Y-60960000D01*
X108458000Y-60960000D01*
X108458000Y-56938777D01*
X125670777Y-56938777D01*
X125680074Y-56950793D01*
X125723069Y-56980898D01*
X125732555Y-56986376D01*
X125923993Y-57075645D01*
X125934285Y-57079391D01*
X126138309Y-57134059D01*
X126149104Y-57135962D01*
X126359525Y-57154372D01*
X126370475Y-57154372D01*
X126580896Y-57135962D01*
X126591691Y-57134059D01*
X126795715Y-57079391D01*
X126806007Y-57075645D01*
X126997445Y-56986376D01*
X127006931Y-56980898D01*
X127050764Y-56950207D01*
X127059139Y-56939729D01*
X127052071Y-56926281D01*
X126377812Y-56252022D01*
X126363868Y-56244408D01*
X126362035Y-56244539D01*
X126355420Y-56248790D01*
X125677207Y-56927003D01*
X125670777Y-56938777D01*
X108458000Y-56938777D01*
X108458000Y-55885475D01*
X125090628Y-55885475D01*
X125109038Y-56095896D01*
X125110941Y-56106691D01*
X125165609Y-56310715D01*
X125169355Y-56321007D01*
X125258623Y-56512441D01*
X125264103Y-56521932D01*
X125294794Y-56565765D01*
X125305271Y-56574140D01*
X125318718Y-56567072D01*
X125992978Y-55892812D01*
X125999356Y-55881132D01*
X126729408Y-55881132D01*
X126729539Y-55882965D01*
X126733790Y-55889580D01*
X127015166Y-56170956D01*
X127047777Y-56227439D01*
X127071560Y-56316196D01*
X127073882Y-56321177D01*
X127073883Y-56321178D01*
X127163186Y-56512689D01*
X127163189Y-56512694D01*
X127165512Y-56517676D01*
X127293023Y-56699781D01*
X127450219Y-56856977D01*
X127454727Y-56860134D01*
X127454730Y-56860136D01*
X127582771Y-56949791D01*
X127627099Y-57005248D01*
X127636500Y-57053004D01*
X127636500Y-57706233D01*
X127635973Y-57717416D01*
X127634298Y-57724909D01*
X127634547Y-57732835D01*
X127634547Y-57732836D01*
X127636438Y-57792986D01*
X127636500Y-57796945D01*
X127636500Y-57824856D01*
X127636997Y-57828790D01*
X127636997Y-57828791D01*
X127637005Y-57828856D01*
X127637938Y-57840693D01*
X127639327Y-57884889D01*
X127644978Y-57904339D01*
X127648987Y-57923700D01*
X127651526Y-57943797D01*
X127654445Y-57951168D01*
X127654445Y-57951170D01*
X127667804Y-57984912D01*
X127671649Y-57996142D01*
X127683982Y-58038593D01*
X127688015Y-58045412D01*
X127688017Y-58045417D01*
X127694293Y-58056028D01*
X127702988Y-58073776D01*
X127710448Y-58092617D01*
X127715110Y-58099033D01*
X127715110Y-58099034D01*
X127736436Y-58128387D01*
X127742952Y-58138307D01*
X127765458Y-58176362D01*
X127779779Y-58190683D01*
X127792619Y-58205716D01*
X127804528Y-58222107D01*
X127810634Y-58227158D01*
X127838605Y-58250298D01*
X127847384Y-58258288D01*
X135219595Y-65630499D01*
X135253621Y-65692811D01*
X135256500Y-65719594D01*
X135256500Y-73592476D01*
X135236498Y-73660597D01*
X135224142Y-73676779D01*
X135150960Y-73758056D01*
X135055473Y-73923444D01*
X134996458Y-74105072D01*
X134976496Y-74295000D01*
X134977186Y-74301565D01*
X134994839Y-74469520D01*
X134996458Y-74484928D01*
X135055473Y-74666556D01*
X135150960Y-74831944D01*
X135155378Y-74836851D01*
X135155379Y-74836852D01*
X135224642Y-74913776D01*
X135278747Y-74973866D01*
X135433248Y-75086118D01*
X135439276Y-75088802D01*
X135439278Y-75088803D01*
X135601681Y-75161109D01*
X135607712Y-75163794D01*
X135701113Y-75183647D01*
X135788056Y-75202128D01*
X135788061Y-75202128D01*
X135794513Y-75203500D01*
X135985487Y-75203500D01*
X135991939Y-75202128D01*
X135991944Y-75202128D01*
X136078887Y-75183647D01*
X136172288Y-75163794D01*
X136178319Y-75161109D01*
X136340722Y-75088803D01*
X136340724Y-75088802D01*
X136346752Y-75086118D01*
X136501253Y-74973866D01*
X136555358Y-74913776D01*
X136624621Y-74836852D01*
X136624622Y-74836851D01*
X136629040Y-74831944D01*
X136724527Y-74666556D01*
X136783542Y-74484928D01*
X136785162Y-74469520D01*
X136802814Y-74301565D01*
X136803504Y-74295000D01*
X136783542Y-74105072D01*
X136724527Y-73923444D01*
X136629040Y-73758056D01*
X136555863Y-73676785D01*
X136525147Y-73612779D01*
X136523500Y-73592476D01*
X136523500Y-70063134D01*
X137186388Y-70063134D01*
X137193143Y-70125316D01*
X137244273Y-70261705D01*
X137331627Y-70378261D01*
X137448183Y-70465615D01*
X137456591Y-70468767D01*
X137562988Y-70508654D01*
X137619752Y-70551296D01*
X137644452Y-70617858D01*
X137644758Y-70626636D01*
X137644758Y-73300309D01*
X137632607Y-73352115D01*
X137632845Y-73352203D01*
X137632131Y-73354144D01*
X137631617Y-73356334D01*
X137627454Y-73364721D01*
X137625803Y-73371344D01*
X137621211Y-73389762D01*
X137615941Y-73406076D01*
X137608893Y-73423695D01*
X137608891Y-73423703D01*
X137606358Y-73430035D01*
X137605244Y-73436766D01*
X137597676Y-73482478D01*
X137595625Y-73492379D01*
X137584420Y-73537319D01*
X137584419Y-73537326D01*
X137582769Y-73543944D01*
X137582579Y-73550764D01*
X137582049Y-73569737D01*
X137580407Y-73586796D01*
X137576190Y-73612265D01*
X137576547Y-73619081D01*
X137576547Y-73619085D01*
X137578972Y-73665344D01*
X137579096Y-73675454D01*
X137577612Y-73728582D01*
X137582299Y-73753153D01*
X137582447Y-73753929D01*
X137584505Y-73770937D01*
X137585857Y-73796721D01*
X137587668Y-73803295D01*
X137587668Y-73803296D01*
X137599975Y-73847974D01*
X137602266Y-73857820D01*
X137612223Y-73910020D01*
X137622392Y-73933746D01*
X137628050Y-73949903D01*
X137634908Y-73974799D01*
X137638094Y-73980841D01*
X137638094Y-73980842D01*
X137659696Y-74021815D01*
X137664050Y-74030943D01*
X137684987Y-74079793D01*
X137688959Y-74085341D01*
X137688960Y-74085343D01*
X137700012Y-74100780D01*
X137709018Y-74115362D01*
X137721054Y-74138190D01*
X137725463Y-74143407D01*
X137755355Y-74178779D01*
X137761566Y-74186757D01*
X137792511Y-74229981D01*
X137811700Y-74247260D01*
X137823619Y-74259559D01*
X137840277Y-74279270D01*
X137845696Y-74283413D01*
X137845697Y-74283414D01*
X137882483Y-74311539D01*
X137890265Y-74317999D01*
X137929777Y-74353576D01*
X137935711Y-74356947D01*
X137935714Y-74356949D01*
X137952219Y-74366325D01*
X137966514Y-74375787D01*
X137981588Y-74387312D01*
X137981593Y-74387315D01*
X137987013Y-74391459D01*
X138035203Y-74413931D01*
X138044150Y-74418549D01*
X138090382Y-74444811D01*
X138096896Y-74446827D01*
X138096895Y-74446827D01*
X138115040Y-74452444D01*
X138131023Y-74458611D01*
X138154417Y-74469520D01*
X138161077Y-74471009D01*
X138161081Y-74471010D01*
X138206285Y-74481115D01*
X138216057Y-74483715D01*
X138260313Y-74497415D01*
X138260319Y-74497416D01*
X138266831Y-74499432D01*
X138273627Y-74500003D01*
X138273629Y-74500003D01*
X138283703Y-74500849D01*
X138292550Y-74501591D01*
X138309486Y-74504183D01*
X138334678Y-74509814D01*
X138340330Y-74510130D01*
X138388960Y-74510130D01*
X138399503Y-74510572D01*
X138450893Y-74514887D01*
X138457653Y-74513985D01*
X138457656Y-74513985D01*
X138478250Y-74511237D01*
X138494913Y-74510130D01*
X143105675Y-74510130D01*
X143173796Y-74530132D01*
X143194770Y-74547035D01*
X144527965Y-75880231D01*
X144561991Y-75942543D01*
X144564870Y-75969326D01*
X144564870Y-99925675D01*
X144544868Y-99993796D01*
X144527965Y-100014770D01*
X143194770Y-101347965D01*
X143132458Y-101381991D01*
X143105675Y-101384870D01*
X140802558Y-101384870D01*
X140734437Y-101364868D01*
X140713463Y-101347965D01*
X140594300Y-101228802D01*
X140589792Y-101225645D01*
X140589789Y-101225643D01*
X140511611Y-101170902D01*
X140406749Y-101097477D01*
X140401767Y-101095154D01*
X140401762Y-101095151D01*
X140366951Y-101078919D01*
X140313666Y-101032002D01*
X140294205Y-100963725D01*
X140314747Y-100895765D01*
X140366951Y-100850529D01*
X140401511Y-100834414D01*
X140411007Y-100828931D01*
X140589467Y-100703972D01*
X140597875Y-100696916D01*
X140751916Y-100542875D01*
X140758972Y-100534467D01*
X140883931Y-100356007D01*
X140889414Y-100346511D01*
X140981490Y-100149053D01*
X140985236Y-100138761D01*
X141031394Y-99966497D01*
X141031058Y-99952401D01*
X141023116Y-99949000D01*
X138082033Y-99949000D01*
X138068502Y-99952973D01*
X138067273Y-99961522D01*
X138114764Y-100138761D01*
X138118510Y-100149053D01*
X138210586Y-100346511D01*
X138216069Y-100356007D01*
X138341028Y-100534467D01*
X138348084Y-100542875D01*
X138502125Y-100696916D01*
X138510533Y-100703972D01*
X138688993Y-100828931D01*
X138698489Y-100834414D01*
X138733049Y-100850529D01*
X138786334Y-100897446D01*
X138805795Y-100965723D01*
X138785253Y-101033683D01*
X138733049Y-101078919D01*
X138698238Y-101095151D01*
X138698233Y-101095154D01*
X138693251Y-101097477D01*
X138588389Y-101170902D01*
X138510211Y-101225643D01*
X138510208Y-101225645D01*
X138505700Y-101228802D01*
X138343802Y-101390700D01*
X138212477Y-101578251D01*
X138210154Y-101583233D01*
X138210151Y-101583238D01*
X138118039Y-101780775D01*
X138115716Y-101785757D01*
X138056457Y-102006913D01*
X138036502Y-102235000D01*
X138056457Y-102463087D01*
X138115716Y-102684243D01*
X138118039Y-102689224D01*
X138118039Y-102689225D01*
X138210151Y-102886762D01*
X138210154Y-102886767D01*
X138212477Y-102891749D01*
X138259131Y-102958377D01*
X138335378Y-103067269D01*
X138343802Y-103079300D01*
X138505700Y-103241198D01*
X138510208Y-103244355D01*
X138510211Y-103244357D01*
X138588389Y-103299098D01*
X138693251Y-103372523D01*
X138698233Y-103374846D01*
X138698238Y-103374849D01*
X138895775Y-103466961D01*
X138900757Y-103469284D01*
X138906065Y-103470706D01*
X138906067Y-103470707D01*
X139116598Y-103527119D01*
X139116600Y-103527119D01*
X139121913Y-103528543D01*
X139221480Y-103537254D01*
X139290149Y-103543262D01*
X139290156Y-103543262D01*
X139292873Y-103543500D01*
X139807127Y-103543500D01*
X139809844Y-103543262D01*
X139809851Y-103543262D01*
X139878520Y-103537254D01*
X139978087Y-103528543D01*
X139983400Y-103527119D01*
X139983402Y-103527119D01*
X140193933Y-103470707D01*
X140193935Y-103470706D01*
X140199243Y-103469284D01*
X140204225Y-103466961D01*
X140401762Y-103374849D01*
X140401767Y-103374846D01*
X140406749Y-103372523D01*
X140511611Y-103299098D01*
X140589789Y-103244357D01*
X140589792Y-103244355D01*
X140594300Y-103241198D01*
X140713463Y-103122035D01*
X140775775Y-103088009D01*
X140802558Y-103085130D01*
X143468960Y-103085130D01*
X143479503Y-103085572D01*
X143530893Y-103089887D01*
X143537652Y-103088985D01*
X143537657Y-103088985D01*
X143610612Y-103079251D01*
X143613667Y-103078881D01*
X143657790Y-103074087D01*
X143693629Y-103070194D01*
X143700097Y-103068017D01*
X143703115Y-103067354D01*
X143703598Y-103067269D01*
X143703758Y-103067232D01*
X143704207Y-103067101D01*
X143707218Y-103066361D01*
X143713981Y-103065459D01*
X143789573Y-103037945D01*
X143792481Y-103036927D01*
X143800435Y-103034250D01*
X143868692Y-103011280D01*
X143874536Y-103007769D01*
X143877369Y-103006460D01*
X143877790Y-103006286D01*
X143877937Y-103006216D01*
X143878372Y-103005979D01*
X143881138Y-103004618D01*
X143887550Y-103002284D01*
X143955504Y-102959159D01*
X143957973Y-102957634D01*
X144027019Y-102916147D01*
X144031978Y-102911457D01*
X144034442Y-102909587D01*
X144035222Y-102909045D01*
X144039137Y-102906085D01*
X144043506Y-102903312D01*
X144047726Y-102899539D01*
X144101197Y-102846068D01*
X144103719Y-102843615D01*
X144156266Y-102793924D01*
X144156268Y-102793922D01*
X144161224Y-102789235D01*
X144165058Y-102783593D01*
X144169484Y-102778393D01*
X144169888Y-102778737D01*
X144176424Y-102770841D01*
X145987110Y-100960156D01*
X145994877Y-100953013D01*
X146034270Y-100919723D01*
X146038415Y-100914302D01*
X146083110Y-100855844D01*
X146085009Y-100853423D01*
X146131138Y-100796049D01*
X146131141Y-100796044D01*
X146135417Y-100790726D01*
X146138452Y-100784612D01*
X146140114Y-100782013D01*
X146140389Y-100781621D01*
X146140489Y-100781460D01*
X146140716Y-100781047D01*
X146142315Y-100778407D01*
X146146459Y-100772987D01*
X146149344Y-100766801D01*
X146180440Y-100700117D01*
X146181774Y-100697344D01*
X146214513Y-100631392D01*
X146214515Y-100631388D01*
X146217547Y-100625279D01*
X146219198Y-100618659D01*
X146220273Y-100615736D01*
X146220449Y-100615313D01*
X146220503Y-100615160D01*
X146220645Y-100614677D01*
X146221633Y-100611774D01*
X146224520Y-100605583D01*
X146226010Y-100598918D01*
X146242063Y-100527104D01*
X146242770Y-100524110D01*
X146262231Y-100446056D01*
X146262422Y-100439234D01*
X146262840Y-100436180D01*
X146263016Y-100435199D01*
X146263688Y-100430362D01*
X146264814Y-100425322D01*
X146265130Y-100419670D01*
X146265130Y-100344026D01*
X146265179Y-100340508D01*
X146267197Y-100268239D01*
X146267388Y-100261418D01*
X146266109Y-100254712D01*
X146265562Y-100247915D01*
X146266096Y-100247872D01*
X146265130Y-100237672D01*
X146265130Y-75606040D01*
X146265572Y-75595497D01*
X146269316Y-75550905D01*
X146269887Y-75544107D01*
X146259253Y-75464399D01*
X146258883Y-75461346D01*
X146250931Y-75388152D01*
X146250930Y-75388149D01*
X146250194Y-75381371D01*
X146248018Y-75374906D01*
X146247355Y-75371888D01*
X146247270Y-75371405D01*
X146247234Y-75371250D01*
X146247106Y-75370809D01*
X146246360Y-75367774D01*
X146245459Y-75361020D01*
X146217956Y-75285457D01*
X146216939Y-75282552D01*
X146193456Y-75212772D01*
X146193454Y-75212767D01*
X146191280Y-75206308D01*
X146187770Y-75200466D01*
X146186461Y-75197633D01*
X146186287Y-75197212D01*
X146186217Y-75197064D01*
X146185979Y-75196628D01*
X146184618Y-75193862D01*
X146182284Y-75187450D01*
X146139159Y-75119496D01*
X146137634Y-75117027D01*
X146096147Y-75047981D01*
X146091457Y-75043022D01*
X146089587Y-75040558D01*
X146089045Y-75039778D01*
X146086085Y-75035863D01*
X146083312Y-75031494D01*
X146079539Y-75027274D01*
X146026069Y-74973804D01*
X146023616Y-74971282D01*
X145973924Y-74918734D01*
X145973922Y-74918732D01*
X145969235Y-74913776D01*
X145963593Y-74909942D01*
X145958393Y-74905516D01*
X145958737Y-74905112D01*
X145950841Y-74898576D01*
X144140161Y-73087896D01*
X144133018Y-73080129D01*
X144104128Y-73045943D01*
X144099723Y-73040730D01*
X144035809Y-72991863D01*
X144033407Y-72989979D01*
X143976049Y-72943862D01*
X143976044Y-72943859D01*
X143970726Y-72939583D01*
X143964612Y-72936548D01*
X143962013Y-72934886D01*
X143961629Y-72934617D01*
X143961460Y-72934512D01*
X143961050Y-72934286D01*
X143958409Y-72932687D01*
X143952987Y-72928541D01*
X143880095Y-72894551D01*
X143877322Y-72893217D01*
X143805279Y-72857454D01*
X143798660Y-72855804D01*
X143795745Y-72854731D01*
X143795316Y-72854553D01*
X143795153Y-72854495D01*
X143794684Y-72854357D01*
X143791770Y-72853365D01*
X143785583Y-72850480D01*
X143707096Y-72832935D01*
X143704121Y-72832232D01*
X143670698Y-72823899D01*
X143632679Y-72814420D01*
X143632677Y-72814420D01*
X143626056Y-72812769D01*
X143619235Y-72812578D01*
X143616180Y-72812160D01*
X143615203Y-72811984D01*
X143610357Y-72811312D01*
X143605322Y-72810186D01*
X143599670Y-72809870D01*
X143524026Y-72809870D01*
X143520508Y-72809821D01*
X143519027Y-72809780D01*
X143441418Y-72807612D01*
X143434712Y-72808891D01*
X143427915Y-72809438D01*
X143427872Y-72808904D01*
X143417672Y-72809870D01*
X139471018Y-72809870D01*
X139402897Y-72789868D01*
X139356404Y-72736212D01*
X139345018Y-72683870D01*
X139345018Y-70626636D01*
X139365020Y-70558515D01*
X139418676Y-70512022D01*
X139426788Y-70508654D01*
X139533185Y-70468767D01*
X139541593Y-70465615D01*
X139658149Y-70378261D01*
X139716007Y-70301062D01*
X140273381Y-70301062D01*
X140282677Y-70313077D01*
X140333882Y-70348931D01*
X140343377Y-70354414D01*
X140540835Y-70446490D01*
X140551127Y-70450236D01*
X140761576Y-70506625D01*
X140772369Y-70508528D01*
X140989413Y-70527517D01*
X141000363Y-70527517D01*
X141217407Y-70508528D01*
X141228200Y-70506625D01*
X141438649Y-70450236D01*
X141448941Y-70446490D01*
X141646399Y-70354414D01*
X141655894Y-70348931D01*
X141707936Y-70312491D01*
X141716312Y-70302012D01*
X141709244Y-70288566D01*
X141007700Y-69587022D01*
X140993756Y-69579408D01*
X140991923Y-69579539D01*
X140985308Y-69583790D01*
X140279811Y-70289287D01*
X140273381Y-70301062D01*
X139716007Y-70301062D01*
X139745503Y-70261705D01*
X139796633Y-70125316D01*
X139803388Y-70063134D01*
X139803388Y-70059815D01*
X139827041Y-69992890D01*
X139873044Y-69957196D01*
X139872029Y-69955266D01*
X139882888Y-69949558D01*
X139883133Y-69949368D01*
X139883291Y-69949347D01*
X139921322Y-69929356D01*
X140622866Y-69227812D01*
X140629244Y-69216132D01*
X141359296Y-69216132D01*
X141359427Y-69217965D01*
X141363678Y-69224580D01*
X142069175Y-69930077D01*
X142080950Y-69936507D01*
X142092965Y-69927211D01*
X142128819Y-69876006D01*
X142134302Y-69866511D01*
X142226378Y-69669053D01*
X142230124Y-69658761D01*
X142286513Y-69448312D01*
X142288416Y-69437519D01*
X142307405Y-69220475D01*
X142307405Y-69209525D01*
X142288416Y-68992481D01*
X142286513Y-68981688D01*
X142230124Y-68771239D01*
X142226378Y-68760947D01*
X142134302Y-68563489D01*
X142128819Y-68553994D01*
X142092379Y-68501952D01*
X142081900Y-68493576D01*
X142068454Y-68500644D01*
X141366910Y-69202188D01*
X141359296Y-69216132D01*
X140629244Y-69216132D01*
X140630480Y-69213868D01*
X140630349Y-69212035D01*
X140626098Y-69205420D01*
X139920601Y-68499923D01*
X139878859Y-68477129D01*
X139868859Y-68474953D01*
X139818661Y-68424747D01*
X139803437Y-68371186D01*
X139803388Y-68370281D01*
X139803388Y-68366866D01*
X139796633Y-68304684D01*
X139745503Y-68168295D01*
X139715295Y-68127988D01*
X140273464Y-68127988D01*
X140280532Y-68141434D01*
X140982076Y-68842978D01*
X140996020Y-68850592D01*
X140997853Y-68850461D01*
X141004468Y-68846210D01*
X141709965Y-68140713D01*
X141716395Y-68128938D01*
X141707099Y-68116923D01*
X141655894Y-68081069D01*
X141646399Y-68075586D01*
X141448941Y-67983510D01*
X141438649Y-67979764D01*
X141228200Y-67923375D01*
X141217407Y-67921472D01*
X141000363Y-67902483D01*
X140989413Y-67902483D01*
X140772369Y-67921472D01*
X140761576Y-67923375D01*
X140551127Y-67979764D01*
X140540835Y-67983510D01*
X140343377Y-68075586D01*
X140333882Y-68081069D01*
X140281840Y-68117509D01*
X140273464Y-68127988D01*
X139715295Y-68127988D01*
X139658149Y-68051739D01*
X139541593Y-67964385D01*
X139405204Y-67913255D01*
X139343022Y-67906500D01*
X137646754Y-67906500D01*
X137584572Y-67913255D01*
X137448183Y-67964385D01*
X137331627Y-68051739D01*
X137244273Y-68168295D01*
X137193143Y-68304684D01*
X137186388Y-68366866D01*
X137186388Y-70063134D01*
X136523500Y-70063134D01*
X136523500Y-65483763D01*
X136524027Y-65472579D01*
X136525701Y-65465091D01*
X136523562Y-65397032D01*
X136523500Y-65393075D01*
X136523500Y-65365144D01*
X136522994Y-65361138D01*
X136522061Y-65349292D01*
X136520922Y-65313037D01*
X136520673Y-65305110D01*
X136515022Y-65285658D01*
X136511014Y-65266306D01*
X136509467Y-65254063D01*
X136508474Y-65246203D01*
X136505556Y-65238832D01*
X136492200Y-65205097D01*
X136488355Y-65193870D01*
X136487721Y-65191687D01*
X136476018Y-65151407D01*
X136471984Y-65144585D01*
X136471981Y-65144579D01*
X136465706Y-65133968D01*
X136457010Y-65116218D01*
X136452472Y-65104756D01*
X136452469Y-65104751D01*
X136449552Y-65097383D01*
X136423573Y-65061625D01*
X136417057Y-65051707D01*
X136398575Y-65020457D01*
X136394542Y-65013637D01*
X136380218Y-64999313D01*
X136367376Y-64984278D01*
X136355472Y-64967893D01*
X136321406Y-64939711D01*
X136312627Y-64931722D01*
X128940405Y-57559500D01*
X128906379Y-57497188D01*
X128903500Y-57470405D01*
X128903500Y-57053004D01*
X128923502Y-56984883D01*
X128957229Y-56949791D01*
X129085270Y-56860136D01*
X129085273Y-56860134D01*
X129089781Y-56856977D01*
X129133405Y-56813353D01*
X129195717Y-56779327D01*
X129266532Y-56784392D01*
X129311595Y-56813353D01*
X129355219Y-56856977D01*
X129359727Y-56860134D01*
X129359730Y-56860136D01*
X129435495Y-56913187D01*
X129537323Y-56984488D01*
X129542305Y-56986811D01*
X129542310Y-56986814D01*
X129684256Y-57053004D01*
X129738804Y-57078440D01*
X129744112Y-57079862D01*
X129744114Y-57079863D01*
X129809949Y-57097503D01*
X129953537Y-57135978D01*
X130175000Y-57155353D01*
X130396463Y-57135978D01*
X130540051Y-57097503D01*
X130605886Y-57079863D01*
X130605888Y-57079862D01*
X130611196Y-57078440D01*
X130665744Y-57053004D01*
X130807690Y-56986814D01*
X130807695Y-56986811D01*
X130812677Y-56984488D01*
X130914505Y-56913187D01*
X130990270Y-56860136D01*
X130990273Y-56860134D01*
X130994781Y-56856977D01*
X131151977Y-56699781D01*
X131279488Y-56517676D01*
X131281811Y-56512694D01*
X131281814Y-56512689D01*
X131371117Y-56321178D01*
X131371118Y-56321177D01*
X131373440Y-56316196D01*
X131430978Y-56101463D01*
X131450353Y-55880000D01*
X131430978Y-55658537D01*
X131373440Y-55443804D01*
X131371117Y-55438822D01*
X131281814Y-55247311D01*
X131281811Y-55247306D01*
X131279488Y-55242324D01*
X131276331Y-55237815D01*
X131155136Y-55064730D01*
X131155134Y-55064727D01*
X131151977Y-55060219D01*
X130994781Y-54903023D01*
X130990273Y-54899866D01*
X130990270Y-54899864D01*
X130914505Y-54846813D01*
X130812677Y-54775512D01*
X130807695Y-54773189D01*
X130807690Y-54773186D01*
X130616178Y-54683883D01*
X130616177Y-54683882D01*
X130611196Y-54681560D01*
X130605888Y-54680138D01*
X130605886Y-54680137D01*
X130540051Y-54662497D01*
X130396463Y-54624022D01*
X130175000Y-54604647D01*
X129953537Y-54624022D01*
X129809949Y-54662497D01*
X129744114Y-54680137D01*
X129744112Y-54680138D01*
X129738804Y-54681560D01*
X129733823Y-54683882D01*
X129733822Y-54683883D01*
X129542311Y-54773186D01*
X129542306Y-54773189D01*
X129537324Y-54775512D01*
X129532817Y-54778668D01*
X129532815Y-54778669D01*
X129359730Y-54899864D01*
X129359727Y-54899866D01*
X129355219Y-54903023D01*
X129311595Y-54946647D01*
X129249283Y-54980673D01*
X129178468Y-54975608D01*
X129133405Y-54946647D01*
X129089781Y-54903023D01*
X129085273Y-54899866D01*
X129085270Y-54899864D01*
X129009505Y-54846813D01*
X128907677Y-54775512D01*
X128902695Y-54773189D01*
X128902690Y-54773186D01*
X128711178Y-54683883D01*
X128711177Y-54683882D01*
X128706196Y-54681560D01*
X128700888Y-54680138D01*
X128700886Y-54680137D01*
X128635051Y-54662497D01*
X128491463Y-54624022D01*
X128270000Y-54604647D01*
X128048537Y-54624022D01*
X127904949Y-54662497D01*
X127839114Y-54680137D01*
X127839112Y-54680138D01*
X127833804Y-54681560D01*
X127828823Y-54683882D01*
X127828822Y-54683883D01*
X127637311Y-54773186D01*
X127637306Y-54773189D01*
X127632324Y-54775512D01*
X127627817Y-54778668D01*
X127627815Y-54778669D01*
X127454730Y-54899864D01*
X127454727Y-54899866D01*
X127450219Y-54903023D01*
X127293023Y-55060219D01*
X127289866Y-55064727D01*
X127289864Y-55064730D01*
X127168669Y-55237815D01*
X127165512Y-55242324D01*
X127163189Y-55247306D01*
X127163186Y-55247311D01*
X127073883Y-55438822D01*
X127071560Y-55443804D01*
X127052325Y-55515592D01*
X127047778Y-55532560D01*
X127015166Y-55589044D01*
X126737022Y-55867188D01*
X126729408Y-55881132D01*
X125999356Y-55881132D01*
X126000592Y-55878868D01*
X126000461Y-55877035D01*
X125996210Y-55870420D01*
X125317997Y-55192207D01*
X125306223Y-55185777D01*
X125294207Y-55195074D01*
X125264103Y-55238068D01*
X125258623Y-55247559D01*
X125169355Y-55438993D01*
X125165609Y-55449285D01*
X125110941Y-55653309D01*
X125109038Y-55664104D01*
X125090628Y-55874525D01*
X125090628Y-55885475D01*
X108458000Y-55885475D01*
X108458000Y-54820271D01*
X125670860Y-54820271D01*
X125677928Y-54833718D01*
X126352188Y-55507978D01*
X126366132Y-55515592D01*
X126367965Y-55515461D01*
X126374580Y-55511210D01*
X127052793Y-54832997D01*
X127059223Y-54821223D01*
X127049926Y-54809207D01*
X127006931Y-54779102D01*
X126997445Y-54773624D01*
X126806007Y-54684355D01*
X126795715Y-54680609D01*
X126591691Y-54625941D01*
X126580896Y-54624038D01*
X126370475Y-54605628D01*
X126359525Y-54605628D01*
X126149104Y-54624038D01*
X126138309Y-54625941D01*
X125934285Y-54680609D01*
X125923993Y-54684355D01*
X125732559Y-54773623D01*
X125723068Y-54779103D01*
X125679235Y-54809794D01*
X125670860Y-54820271D01*
X108458000Y-54820271D01*
X108458000Y-53339000D01*
X108478002Y-53270879D01*
X108531658Y-53224386D01*
X108584000Y-53213000D01*
X147315996Y-53213000D01*
X147384117Y-53233002D01*
G37*
%TD.AperFunction*%
%TD*%
M02*
