%TF.GenerationSoftware,KiCad,Pcbnew,(6.0.4)*%
%TF.CreationDate,2022-08-05T18:27:13+05:30*%
%TF.ProjectId,led_web,6c65645f-7765-4622-9e6b-696361645f70,v1*%
%TF.SameCoordinates,Original*%
%TF.FileFunction,Copper,L2,Bot*%
%TF.FilePolarity,Positive*%
%FSLAX46Y46*%
G04 Gerber Fmt 4.6, Leading zero omitted, Abs format (unit mm)*
G04 Created by KiCad (PCBNEW (6.0.4)) date 2022-08-05 18:27:13*
%MOMM*%
%LPD*%
G01*
G04 APERTURE LIST*
%TA.AperFunction,ComponentPad*%
%ADD10O,2.000000X1.600000*%
%TD*%
%TA.AperFunction,ComponentPad*%
%ADD11R,1.600000X1.600000*%
%TD*%
%TA.AperFunction,ComponentPad*%
%ADD12C,1.600000*%
%TD*%
%TA.AperFunction,ComponentPad*%
%ADD13O,1.600000X2.000000*%
%TD*%
%TA.AperFunction,ComponentPad*%
%ADD14R,1.560000X1.560000*%
%TD*%
%TA.AperFunction,ComponentPad*%
%ADD15C,1.560000*%
%TD*%
%TA.AperFunction,ComponentPad*%
%ADD16R,2.000000X2.000000*%
%TD*%
%TA.AperFunction,ViaPad*%
%ADD17C,0.800000*%
%TD*%
%TA.AperFunction,Conductor*%
%ADD18C,0.683260*%
%TD*%
%TA.AperFunction,Conductor*%
%ADD19C,0.250000*%
%TD*%
G04 APERTURE END LIST*
D10*
%TO.P,U1,1,SDA*%
%TO.N,Net-(U1-Pad1)*%
X155448000Y-67206000D03*
%TO.P,U1,2,SCL*%
%TO.N,Net-(U1-Pad2)*%
X152908000Y-67206000D03*
%TO.P,U1,3,VCC*%
%TO.N,Net-(C1-Pad1)*%
X150368000Y-67206000D03*
%TO.P,U1,4,GND*%
%TO.N,GND*%
X147828000Y-67206000D03*
%TD*%
D11*
%TO.P,C1,1*%
%TO.N,Net-(C1-Pad1)*%
X137983000Y-82042000D03*
D12*
%TO.P,C1,2*%
%TO.N,GND*%
X135483000Y-82042000D03*
%TD*%
D10*
%TO.P,L1,1,VCC*%
%TO.N,Net-(C1-Pad1)*%
X154178000Y-60749400D03*
%TO.P,L1,2,DATA*%
%TO.N,Net-(L1-Pad2)*%
X151638000Y-60749400D03*
%TO.P,L1,3,GND*%
%TO.N,GND*%
X149098000Y-60749400D03*
%TD*%
D13*
%TO.P,U3,1,VCC*%
%TO.N,Net-(C1-Pad1)*%
X159784000Y-75184000D03*
%TO.P,U3,2,GND*%
%TO.N,GND*%
X159784000Y-77724000D03*
%TO.P,U3,3,OUT*%
%TO.N,Net-(RV1-Pad1)*%
X159784000Y-80264000D03*
%TD*%
D14*
%TO.P,RV1,1,1*%
%TO.N,Net-(RV1-Pad1)*%
X163495000Y-78780000D03*
D15*
%TO.P,RV1,2,2*%
%TO.N,Net-(RV1-Pad2)*%
X168495000Y-81280000D03*
%TO.P,RV1,3,3*%
%TO.N,unconnected-(RV1-Pad3)*%
X163495000Y-83780000D03*
%TD*%
D16*
%TO.P,U2,1,~{RST}*%
%TO.N,unconnected-(U2-Pad1)*%
X160528000Y-110767000D03*
D13*
%TO.P,U2,2,A0*%
%TO.N,Net-(RV1-Pad2)*%
X157988000Y-110767000D03*
%TO.P,U2,3,D0*%
%TO.N,unconnected-(U2-Pad3)*%
X155448000Y-110767000D03*
%TO.P,U2,4,SCK/D5*%
%TO.N,unconnected-(U2-Pad4)*%
X152908000Y-110767000D03*
%TO.P,U2,5,MISO/D6*%
%TO.N,unconnected-(U2-Pad5)*%
X150368000Y-110767000D03*
%TO.P,U2,6,MOSI/D7*%
%TO.N,unconnected-(U2-Pad6)*%
X147828000Y-110767000D03*
%TO.P,U2,7,CS/D8*%
%TO.N,unconnected-(U2-Pad7)*%
X145288000Y-110767000D03*
%TO.P,U2,8,3V3*%
%TO.N,unconnected-(U2-Pad8)*%
X142748000Y-110767000D03*
%TO.P,U2,9,5V*%
%TO.N,Net-(C1-Pad1)*%
X142748000Y-87907000D03*
%TO.P,U2,10,GND*%
%TO.N,GND*%
X145288000Y-87907000D03*
%TO.P,U2,11,D4*%
%TO.N,unconnected-(U2-Pad11)*%
X147828000Y-87907000D03*
%TO.P,U2,12,D3*%
%TO.N,unconnected-(U2-Pad12)*%
X150368000Y-87907000D03*
%TO.P,U2,13,SDA/D2*%
%TO.N,Net-(U1-Pad1)*%
X152908000Y-87907000D03*
%TO.P,U2,14,SCL/D1*%
%TO.N,Net-(U1-Pad2)*%
X155448000Y-87907000D03*
%TO.P,U2,15,RX*%
%TO.N,Net-(L1-Pad2)*%
X157988000Y-87907000D03*
%TO.P,U2,16,TX*%
%TO.N,unconnected-(U2-Pad16)*%
X160528000Y-87907000D03*
%TD*%
D17*
%TO.N,Net-(U1-Pad1)*%
X153035000Y-73533000D03*
%TD*%
D18*
%TO.N,Net-(C1-Pad1)*%
X150368000Y-67206000D02*
X150368000Y-64516000D01*
X159784000Y-75184000D02*
X152273000Y-75184000D01*
X152273000Y-75184000D02*
X150368000Y-73279000D01*
X139977000Y-87907000D02*
X137983000Y-85913000D01*
X150368000Y-73279000D02*
X150368000Y-67206000D01*
X154178000Y-63373000D02*
X154178000Y-60749400D01*
X150876000Y-64008000D02*
X153543000Y-64008000D01*
X153543000Y-64008000D02*
X154178000Y-63373000D01*
X137983000Y-85913000D02*
X137983000Y-82042000D01*
X150368000Y-64516000D02*
X150876000Y-64008000D01*
X137983000Y-82042000D02*
X137983000Y-77409000D01*
X142113000Y-73279000D02*
X150368000Y-73279000D01*
X137983000Y-77409000D02*
X142113000Y-73279000D01*
X142748000Y-87907000D02*
X139977000Y-87907000D01*
D19*
%TO.N,Net-(U1-Pad1)*%
X153035000Y-72263000D02*
X153035000Y-73533000D01*
X155448000Y-67206000D02*
X155448000Y-69850000D01*
X155448000Y-69850000D02*
X153035000Y-72263000D01*
%TD*%
%TA.AperFunction,Conductor*%
%TO.N,GND*%
G36*
X169994121Y-57552002D02*
G01*
X170040614Y-57605658D01*
X170052000Y-57658000D01*
X170052000Y-116515007D01*
X170031998Y-116583128D01*
X169978342Y-116629621D01*
X169926000Y-116641007D01*
X133350000Y-116641007D01*
X133281879Y-116621005D01*
X133235386Y-116567349D01*
X133224000Y-116515007D01*
X133224000Y-114517202D01*
X134003306Y-114517202D01*
X134003316Y-114517376D01*
X134017514Y-114763615D01*
X134018651Y-114768661D01*
X134018652Y-114768667D01*
X134040848Y-114867157D01*
X134071777Y-115004398D01*
X134164637Y-115233087D01*
X134293602Y-115443537D01*
X134455206Y-115630099D01*
X134645111Y-115787761D01*
X134858217Y-115912290D01*
X135088799Y-116000341D01*
X135093865Y-116001372D01*
X135093866Y-116001372D01*
X135186622Y-116020243D01*
X135330667Y-116049549D01*
X135469417Y-116054637D01*
X135572159Y-116058405D01*
X135572163Y-116058405D01*
X135577323Y-116058594D01*
X135582443Y-116057938D01*
X135582445Y-116057938D01*
X135703305Y-116042455D01*
X135822145Y-116027231D01*
X135827093Y-116025746D01*
X135827100Y-116025745D01*
X136053607Y-115957789D01*
X136053606Y-115957789D01*
X136058557Y-115956304D01*
X136280210Y-115847717D01*
X136284415Y-115844717D01*
X136284421Y-115844714D01*
X136476948Y-115707386D01*
X136476950Y-115707384D01*
X136481152Y-115704387D01*
X136655986Y-115530162D01*
X136800017Y-115329722D01*
X136909377Y-115108449D01*
X136942522Y-114999356D01*
X136979625Y-114877238D01*
X136979626Y-114877232D01*
X136981129Y-114872286D01*
X137013346Y-114627575D01*
X137015144Y-114554000D01*
X136994920Y-114308008D01*
X136934790Y-114068621D01*
X136836370Y-113842271D01*
X136702302Y-113635034D01*
X136680114Y-113610649D01*
X136539666Y-113456298D01*
X136539664Y-113456296D01*
X136536188Y-113452476D01*
X136532137Y-113449277D01*
X136532133Y-113449273D01*
X136346545Y-113302706D01*
X136342487Y-113299501D01*
X136126403Y-113180216D01*
X135913243Y-113104732D01*
X135898607Y-113099549D01*
X135898605Y-113099548D01*
X135893738Y-113097825D01*
X135772240Y-113076183D01*
X135655829Y-113055446D01*
X135655825Y-113055446D01*
X135650741Y-113054540D01*
X135571359Y-113053570D01*
X135409107Y-113051588D01*
X135409105Y-113051588D01*
X135403937Y-113051525D01*
X135159954Y-113088859D01*
X134925346Y-113165541D01*
X134706412Y-113279511D01*
X134702279Y-113282614D01*
X134702276Y-113282616D01*
X134675519Y-113302706D01*
X134509032Y-113427708D01*
X134338506Y-113606153D01*
X134199415Y-113810052D01*
X134197239Y-113814741D01*
X134197235Y-113814747D01*
X134097671Y-114029240D01*
X134095494Y-114033931D01*
X134094114Y-114038909D01*
X134094112Y-114038913D01*
X134049088Y-114201266D01*
X134029534Y-114271777D01*
X134003306Y-114517202D01*
X133224000Y-114517202D01*
X133224000Y-111017800D01*
X141747500Y-111017800D01*
X141762880Y-111169216D01*
X141823662Y-111363172D01*
X141922203Y-111540944D01*
X142054477Y-111695271D01*
X142215081Y-111819848D01*
X142397455Y-111909587D01*
X142403633Y-111911196D01*
X142403635Y-111911197D01*
X142587966Y-111959212D01*
X142587969Y-111959212D01*
X142594148Y-111960822D01*
X142675328Y-111965076D01*
X142790744Y-111971125D01*
X142790748Y-111971125D01*
X142797126Y-111971459D01*
X142998097Y-111941065D01*
X143188852Y-111870881D01*
X143194273Y-111867520D01*
X143356176Y-111767137D01*
X143356180Y-111767134D01*
X143361599Y-111763774D01*
X143509280Y-111624119D01*
X143625863Y-111457621D01*
X143706586Y-111271081D01*
X143748151Y-111072120D01*
X143748500Y-111065461D01*
X143748500Y-111017800D01*
X144287500Y-111017800D01*
X144302880Y-111169216D01*
X144363662Y-111363172D01*
X144462203Y-111540944D01*
X144594477Y-111695271D01*
X144755081Y-111819848D01*
X144937455Y-111909587D01*
X144943633Y-111911196D01*
X144943635Y-111911197D01*
X145127966Y-111959212D01*
X145127969Y-111959212D01*
X145134148Y-111960822D01*
X145215328Y-111965076D01*
X145330744Y-111971125D01*
X145330748Y-111971125D01*
X145337126Y-111971459D01*
X145538097Y-111941065D01*
X145728852Y-111870881D01*
X145734273Y-111867520D01*
X145896176Y-111767137D01*
X145896180Y-111767134D01*
X145901599Y-111763774D01*
X146049280Y-111624119D01*
X146165863Y-111457621D01*
X146246586Y-111271081D01*
X146288151Y-111072120D01*
X146288500Y-111065461D01*
X146288500Y-111017800D01*
X146827500Y-111017800D01*
X146842880Y-111169216D01*
X146903662Y-111363172D01*
X147002203Y-111540944D01*
X147134477Y-111695271D01*
X147295081Y-111819848D01*
X147477455Y-111909587D01*
X147483633Y-111911196D01*
X147483635Y-111911197D01*
X147667966Y-111959212D01*
X147667969Y-111959212D01*
X147674148Y-111960822D01*
X147755328Y-111965076D01*
X147870744Y-111971125D01*
X147870748Y-111971125D01*
X147877126Y-111971459D01*
X148078097Y-111941065D01*
X148268852Y-111870881D01*
X148274273Y-111867520D01*
X148436176Y-111767137D01*
X148436180Y-111767134D01*
X148441599Y-111763774D01*
X148589280Y-111624119D01*
X148705863Y-111457621D01*
X148786586Y-111271081D01*
X148828151Y-111072120D01*
X148828500Y-111065461D01*
X148828500Y-111017800D01*
X149367500Y-111017800D01*
X149382880Y-111169216D01*
X149443662Y-111363172D01*
X149542203Y-111540944D01*
X149674477Y-111695271D01*
X149835081Y-111819848D01*
X150017455Y-111909587D01*
X150023633Y-111911196D01*
X150023635Y-111911197D01*
X150207966Y-111959212D01*
X150207969Y-111959212D01*
X150214148Y-111960822D01*
X150295328Y-111965076D01*
X150410744Y-111971125D01*
X150410748Y-111971125D01*
X150417126Y-111971459D01*
X150618097Y-111941065D01*
X150808852Y-111870881D01*
X150814273Y-111867520D01*
X150976176Y-111767137D01*
X150976180Y-111767134D01*
X150981599Y-111763774D01*
X151129280Y-111624119D01*
X151245863Y-111457621D01*
X151326586Y-111271081D01*
X151368151Y-111072120D01*
X151368500Y-111065461D01*
X151368500Y-111017800D01*
X151907500Y-111017800D01*
X151922880Y-111169216D01*
X151983662Y-111363172D01*
X152082203Y-111540944D01*
X152214477Y-111695271D01*
X152375081Y-111819848D01*
X152557455Y-111909587D01*
X152563633Y-111911196D01*
X152563635Y-111911197D01*
X152747966Y-111959212D01*
X152747969Y-111959212D01*
X152754148Y-111960822D01*
X152835328Y-111965076D01*
X152950744Y-111971125D01*
X152950748Y-111971125D01*
X152957126Y-111971459D01*
X153158097Y-111941065D01*
X153348852Y-111870881D01*
X153354273Y-111867520D01*
X153516176Y-111767137D01*
X153516180Y-111767134D01*
X153521599Y-111763774D01*
X153669280Y-111624119D01*
X153785863Y-111457621D01*
X153866586Y-111271081D01*
X153908151Y-111072120D01*
X153908500Y-111065461D01*
X153908500Y-111017800D01*
X154447500Y-111017800D01*
X154462880Y-111169216D01*
X154523662Y-111363172D01*
X154622203Y-111540944D01*
X154754477Y-111695271D01*
X154915081Y-111819848D01*
X155097455Y-111909587D01*
X155103633Y-111911196D01*
X155103635Y-111911197D01*
X155287966Y-111959212D01*
X155287969Y-111959212D01*
X155294148Y-111960822D01*
X155375328Y-111965076D01*
X155490744Y-111971125D01*
X155490748Y-111971125D01*
X155497126Y-111971459D01*
X155698097Y-111941065D01*
X155888852Y-111870881D01*
X155894273Y-111867520D01*
X156056176Y-111767137D01*
X156056180Y-111767134D01*
X156061599Y-111763774D01*
X156209280Y-111624119D01*
X156325863Y-111457621D01*
X156406586Y-111271081D01*
X156448151Y-111072120D01*
X156448500Y-111065461D01*
X156448500Y-111017800D01*
X156987500Y-111017800D01*
X157002880Y-111169216D01*
X157063662Y-111363172D01*
X157162203Y-111540944D01*
X157294477Y-111695271D01*
X157455081Y-111819848D01*
X157637455Y-111909587D01*
X157643633Y-111911196D01*
X157643635Y-111911197D01*
X157827966Y-111959212D01*
X157827969Y-111959212D01*
X157834148Y-111960822D01*
X157915328Y-111965076D01*
X158030744Y-111971125D01*
X158030748Y-111971125D01*
X158037126Y-111971459D01*
X158238097Y-111941065D01*
X158428852Y-111870881D01*
X158434273Y-111867520D01*
X158564546Y-111786748D01*
X159327500Y-111786748D01*
X159339133Y-111845231D01*
X159383448Y-111911552D01*
X159449769Y-111955867D01*
X159461938Y-111958288D01*
X159461939Y-111958288D01*
X159502184Y-111966293D01*
X159508252Y-111967500D01*
X161547748Y-111967500D01*
X161553816Y-111966293D01*
X161594061Y-111958288D01*
X161594062Y-111958288D01*
X161606231Y-111955867D01*
X161672552Y-111911552D01*
X161716867Y-111845231D01*
X161728500Y-111786748D01*
X161728500Y-109747252D01*
X161716867Y-109688769D01*
X161672552Y-109622448D01*
X161606231Y-109578133D01*
X161594062Y-109575712D01*
X161594061Y-109575712D01*
X161553816Y-109567707D01*
X161547748Y-109566500D01*
X159508252Y-109566500D01*
X159502184Y-109567707D01*
X159461939Y-109575712D01*
X159461938Y-109575712D01*
X159449769Y-109578133D01*
X159383448Y-109622448D01*
X159339133Y-109688769D01*
X159327500Y-109747252D01*
X159327500Y-111786748D01*
X158564546Y-111786748D01*
X158596176Y-111767137D01*
X158596180Y-111767134D01*
X158601599Y-111763774D01*
X158749280Y-111624119D01*
X158865863Y-111457621D01*
X158946586Y-111271081D01*
X158988151Y-111072120D01*
X158988500Y-111065461D01*
X158988500Y-110516200D01*
X158973120Y-110364784D01*
X158912338Y-110170828D01*
X158813797Y-109993056D01*
X158681523Y-109838729D01*
X158520919Y-109714152D01*
X158338545Y-109624413D01*
X158332367Y-109622804D01*
X158332365Y-109622803D01*
X158148034Y-109574788D01*
X158148031Y-109574788D01*
X158141852Y-109573178D01*
X158060672Y-109568924D01*
X157945256Y-109562875D01*
X157945252Y-109562875D01*
X157938874Y-109562541D01*
X157737903Y-109592935D01*
X157547148Y-109663119D01*
X157541728Y-109666479D01*
X157541727Y-109666480D01*
X157379824Y-109766863D01*
X157379820Y-109766866D01*
X157374401Y-109770226D01*
X157226720Y-109909881D01*
X157110137Y-110076379D01*
X157029414Y-110262919D01*
X156987849Y-110461880D01*
X156987500Y-110468539D01*
X156987500Y-111017800D01*
X156448500Y-111017800D01*
X156448500Y-110516200D01*
X156433120Y-110364784D01*
X156372338Y-110170828D01*
X156273797Y-109993056D01*
X156141523Y-109838729D01*
X155980919Y-109714152D01*
X155798545Y-109624413D01*
X155792367Y-109622804D01*
X155792365Y-109622803D01*
X155608034Y-109574788D01*
X155608031Y-109574788D01*
X155601852Y-109573178D01*
X155520672Y-109568924D01*
X155405256Y-109562875D01*
X155405252Y-109562875D01*
X155398874Y-109562541D01*
X155197903Y-109592935D01*
X155007148Y-109663119D01*
X155001728Y-109666479D01*
X155001727Y-109666480D01*
X154839824Y-109766863D01*
X154839820Y-109766866D01*
X154834401Y-109770226D01*
X154686720Y-109909881D01*
X154570137Y-110076379D01*
X154489414Y-110262919D01*
X154447849Y-110461880D01*
X154447500Y-110468539D01*
X154447500Y-111017800D01*
X153908500Y-111017800D01*
X153908500Y-110516200D01*
X153893120Y-110364784D01*
X153832338Y-110170828D01*
X153733797Y-109993056D01*
X153601523Y-109838729D01*
X153440919Y-109714152D01*
X153258545Y-109624413D01*
X153252367Y-109622804D01*
X153252365Y-109622803D01*
X153068034Y-109574788D01*
X153068031Y-109574788D01*
X153061852Y-109573178D01*
X152980672Y-109568924D01*
X152865256Y-109562875D01*
X152865252Y-109562875D01*
X152858874Y-109562541D01*
X152657903Y-109592935D01*
X152467148Y-109663119D01*
X152461728Y-109666479D01*
X152461727Y-109666480D01*
X152299824Y-109766863D01*
X152299820Y-109766866D01*
X152294401Y-109770226D01*
X152146720Y-109909881D01*
X152030137Y-110076379D01*
X151949414Y-110262919D01*
X151907849Y-110461880D01*
X151907500Y-110468539D01*
X151907500Y-111017800D01*
X151368500Y-111017800D01*
X151368500Y-110516200D01*
X151353120Y-110364784D01*
X151292338Y-110170828D01*
X151193797Y-109993056D01*
X151061523Y-109838729D01*
X150900919Y-109714152D01*
X150718545Y-109624413D01*
X150712367Y-109622804D01*
X150712365Y-109622803D01*
X150528034Y-109574788D01*
X150528031Y-109574788D01*
X150521852Y-109573178D01*
X150440672Y-109568924D01*
X150325256Y-109562875D01*
X150325252Y-109562875D01*
X150318874Y-109562541D01*
X150117903Y-109592935D01*
X149927148Y-109663119D01*
X149921728Y-109666479D01*
X149921727Y-109666480D01*
X149759824Y-109766863D01*
X149759820Y-109766866D01*
X149754401Y-109770226D01*
X149606720Y-109909881D01*
X149490137Y-110076379D01*
X149409414Y-110262919D01*
X149367849Y-110461880D01*
X149367500Y-110468539D01*
X149367500Y-111017800D01*
X148828500Y-111017800D01*
X148828500Y-110516200D01*
X148813120Y-110364784D01*
X148752338Y-110170828D01*
X148653797Y-109993056D01*
X148521523Y-109838729D01*
X148360919Y-109714152D01*
X148178545Y-109624413D01*
X148172367Y-109622804D01*
X148172365Y-109622803D01*
X147988034Y-109574788D01*
X147988031Y-109574788D01*
X147981852Y-109573178D01*
X147900672Y-109568924D01*
X147785256Y-109562875D01*
X147785252Y-109562875D01*
X147778874Y-109562541D01*
X147577903Y-109592935D01*
X147387148Y-109663119D01*
X147381728Y-109666479D01*
X147381727Y-109666480D01*
X147219824Y-109766863D01*
X147219820Y-109766866D01*
X147214401Y-109770226D01*
X147066720Y-109909881D01*
X146950137Y-110076379D01*
X146869414Y-110262919D01*
X146827849Y-110461880D01*
X146827500Y-110468539D01*
X146827500Y-111017800D01*
X146288500Y-111017800D01*
X146288500Y-110516200D01*
X146273120Y-110364784D01*
X146212338Y-110170828D01*
X146113797Y-109993056D01*
X145981523Y-109838729D01*
X145820919Y-109714152D01*
X145638545Y-109624413D01*
X145632367Y-109622804D01*
X145632365Y-109622803D01*
X145448034Y-109574788D01*
X145448031Y-109574788D01*
X145441852Y-109573178D01*
X145360672Y-109568924D01*
X145245256Y-109562875D01*
X145245252Y-109562875D01*
X145238874Y-109562541D01*
X145037903Y-109592935D01*
X144847148Y-109663119D01*
X144841728Y-109666479D01*
X144841727Y-109666480D01*
X144679824Y-109766863D01*
X144679820Y-109766866D01*
X144674401Y-109770226D01*
X144526720Y-109909881D01*
X144410137Y-110076379D01*
X144329414Y-110262919D01*
X144287849Y-110461880D01*
X144287500Y-110468539D01*
X144287500Y-111017800D01*
X143748500Y-111017800D01*
X143748500Y-110516200D01*
X143733120Y-110364784D01*
X143672338Y-110170828D01*
X143573797Y-109993056D01*
X143441523Y-109838729D01*
X143280919Y-109714152D01*
X143098545Y-109624413D01*
X143092367Y-109622804D01*
X143092365Y-109622803D01*
X142908034Y-109574788D01*
X142908031Y-109574788D01*
X142901852Y-109573178D01*
X142820672Y-109568924D01*
X142705256Y-109562875D01*
X142705252Y-109562875D01*
X142698874Y-109562541D01*
X142497903Y-109592935D01*
X142307148Y-109663119D01*
X142301728Y-109666479D01*
X142301727Y-109666480D01*
X142139824Y-109766863D01*
X142139820Y-109766866D01*
X142134401Y-109770226D01*
X141986720Y-109909881D01*
X141870137Y-110076379D01*
X141789414Y-110262919D01*
X141747849Y-110461880D01*
X141747500Y-110468539D01*
X141747500Y-111017800D01*
X133224000Y-111017800D01*
X133224000Y-83128062D01*
X134761493Y-83128062D01*
X134770789Y-83140077D01*
X134821994Y-83175931D01*
X134831489Y-83181414D01*
X135028947Y-83273490D01*
X135039239Y-83277236D01*
X135249688Y-83333625D01*
X135260481Y-83335528D01*
X135477525Y-83354517D01*
X135488475Y-83354517D01*
X135705519Y-83335528D01*
X135716312Y-83333625D01*
X135926761Y-83277236D01*
X135937053Y-83273490D01*
X136134511Y-83181414D01*
X136144006Y-83175931D01*
X136196048Y-83139491D01*
X136204424Y-83129012D01*
X136197356Y-83115566D01*
X135495812Y-82414022D01*
X135481868Y-82406408D01*
X135480035Y-82406539D01*
X135473420Y-82410790D01*
X134767923Y-83116287D01*
X134761493Y-83128062D01*
X133224000Y-83128062D01*
X133224000Y-82047475D01*
X134170483Y-82047475D01*
X134189472Y-82264519D01*
X134191375Y-82275312D01*
X134247764Y-82485761D01*
X134251510Y-82496053D01*
X134343586Y-82693511D01*
X134349069Y-82703006D01*
X134385509Y-82755048D01*
X134395988Y-82763424D01*
X134409434Y-82756356D01*
X135110978Y-82054812D01*
X135117356Y-82043132D01*
X135847408Y-82043132D01*
X135847539Y-82044965D01*
X135851790Y-82051580D01*
X136557287Y-82757077D01*
X136569062Y-82763507D01*
X136581077Y-82754211D01*
X136616931Y-82703006D01*
X136622414Y-82693511D01*
X136714490Y-82496053D01*
X136718236Y-82485761D01*
X136734793Y-82423969D01*
X136771745Y-82363346D01*
X136835606Y-82332325D01*
X136906100Y-82340753D01*
X136960847Y-82385956D01*
X136982500Y-82456580D01*
X136982500Y-82861748D01*
X136994133Y-82920231D01*
X137038448Y-82986552D01*
X137104769Y-83030867D01*
X137116938Y-83033288D01*
X137116939Y-83033288D01*
X137157184Y-83041293D01*
X137163252Y-83042500D01*
X137314870Y-83042500D01*
X137382991Y-83062502D01*
X137429484Y-83116158D01*
X137440870Y-83168500D01*
X137440870Y-85898200D01*
X137440759Y-85903477D01*
X137438201Y-85964499D01*
X137440163Y-85972863D01*
X137447966Y-86006133D01*
X137450129Y-86017805D01*
X137455931Y-86060160D01*
X137459338Y-86068034D01*
X137459340Y-86068040D01*
X137461746Y-86073599D01*
X137468777Y-86094859D01*
X137472120Y-86109109D01*
X137492724Y-86146588D01*
X137497939Y-86157234D01*
X137511510Y-86188595D01*
X137511512Y-86188599D01*
X137514922Y-86196478D01*
X137520328Y-86203154D01*
X137524128Y-86207847D01*
X137536621Y-86226438D01*
X137543676Y-86239270D01*
X137550573Y-86247261D01*
X137574664Y-86271352D01*
X137583490Y-86281153D01*
X137602992Y-86305237D01*
X137602994Y-86305239D01*
X137608397Y-86311911D01*
X137615395Y-86316884D01*
X137615400Y-86316889D01*
X137623368Y-86322551D01*
X137639474Y-86336162D01*
X139583158Y-88279845D01*
X139586812Y-88283654D01*
X139628184Y-88328646D01*
X139635483Y-88333172D01*
X139635486Y-88333174D01*
X139664529Y-88351181D01*
X139674299Y-88357895D01*
X139708364Y-88383752D01*
X139721974Y-88389140D01*
X139741983Y-88399204D01*
X139747124Y-88402392D01*
X139747127Y-88402393D01*
X139754423Y-88406917D01*
X139795493Y-88418849D01*
X139806721Y-88422694D01*
X139838481Y-88435268D01*
X139846468Y-88438430D01*
X139855008Y-88439328D01*
X139855013Y-88439329D01*
X139861022Y-88439961D01*
X139882994Y-88444271D01*
X139897059Y-88448357D01*
X139907586Y-88449130D01*
X139941659Y-88449130D01*
X139954828Y-88449820D01*
X139994188Y-88453957D01*
X140002654Y-88452525D01*
X140002657Y-88452525D01*
X140012299Y-88450894D01*
X140033311Y-88449130D01*
X141719486Y-88449130D01*
X141787607Y-88469132D01*
X141829688Y-88514044D01*
X141922203Y-88680944D01*
X142054477Y-88835271D01*
X142215081Y-88959848D01*
X142397455Y-89049587D01*
X142403633Y-89051196D01*
X142403635Y-89051197D01*
X142587966Y-89099212D01*
X142587969Y-89099212D01*
X142594148Y-89100822D01*
X142675328Y-89105076D01*
X142790744Y-89111125D01*
X142790748Y-89111125D01*
X142797126Y-89111459D01*
X142998097Y-89081065D01*
X143188852Y-89010881D01*
X143194273Y-89007520D01*
X143356176Y-88907137D01*
X143356180Y-88907134D01*
X143361599Y-88903774D01*
X143509280Y-88764119D01*
X143625863Y-88597621D01*
X143706586Y-88411081D01*
X143740035Y-88250969D01*
X143773544Y-88188378D01*
X143835574Y-88153840D01*
X143906429Y-88158320D01*
X143963614Y-88200396D01*
X143988893Y-88265754D01*
X143994472Y-88329520D01*
X143996375Y-88340312D01*
X144052764Y-88550761D01*
X144056510Y-88561053D01*
X144148586Y-88758511D01*
X144154069Y-88768007D01*
X144279028Y-88946467D01*
X144286084Y-88954875D01*
X144440125Y-89108916D01*
X144448533Y-89115972D01*
X144626993Y-89240931D01*
X144636489Y-89246414D01*
X144833947Y-89338490D01*
X144844239Y-89342236D01*
X145016503Y-89388394D01*
X145030599Y-89388058D01*
X145034000Y-89380116D01*
X145034000Y-89374967D01*
X145542000Y-89374967D01*
X145545973Y-89388498D01*
X145554522Y-89389727D01*
X145731761Y-89342236D01*
X145742053Y-89338490D01*
X145939511Y-89246414D01*
X145949007Y-89240931D01*
X146127467Y-89115972D01*
X146135875Y-89108916D01*
X146289916Y-88954875D01*
X146296972Y-88946467D01*
X146421931Y-88768007D01*
X146427414Y-88758511D01*
X146519490Y-88561053D01*
X146523236Y-88550761D01*
X146579625Y-88340312D01*
X146581528Y-88329520D01*
X146587248Y-88264143D01*
X146613112Y-88198025D01*
X146670615Y-88156386D01*
X146741502Y-88152445D01*
X146803267Y-88187454D01*
X146836299Y-88250299D01*
X146838124Y-88262390D01*
X146842880Y-88309216D01*
X146903662Y-88503172D01*
X147002203Y-88680944D01*
X147134477Y-88835271D01*
X147295081Y-88959848D01*
X147477455Y-89049587D01*
X147483633Y-89051196D01*
X147483635Y-89051197D01*
X147667966Y-89099212D01*
X147667969Y-89099212D01*
X147674148Y-89100822D01*
X147755328Y-89105076D01*
X147870744Y-89111125D01*
X147870748Y-89111125D01*
X147877126Y-89111459D01*
X148078097Y-89081065D01*
X148268852Y-89010881D01*
X148274273Y-89007520D01*
X148436176Y-88907137D01*
X148436180Y-88907134D01*
X148441599Y-88903774D01*
X148589280Y-88764119D01*
X148705863Y-88597621D01*
X148786586Y-88411081D01*
X148814003Y-88279845D01*
X148827162Y-88216856D01*
X148827163Y-88216851D01*
X148828151Y-88212120D01*
X148828500Y-88205461D01*
X148828500Y-88157800D01*
X149367500Y-88157800D01*
X149367823Y-88160979D01*
X149380284Y-88283654D01*
X149382880Y-88309216D01*
X149443662Y-88503172D01*
X149542203Y-88680944D01*
X149674477Y-88835271D01*
X149835081Y-88959848D01*
X150017455Y-89049587D01*
X150023633Y-89051196D01*
X150023635Y-89051197D01*
X150207966Y-89099212D01*
X150207969Y-89099212D01*
X150214148Y-89100822D01*
X150295328Y-89105076D01*
X150410744Y-89111125D01*
X150410748Y-89111125D01*
X150417126Y-89111459D01*
X150618097Y-89081065D01*
X150808852Y-89010881D01*
X150814273Y-89007520D01*
X150976176Y-88907137D01*
X150976180Y-88907134D01*
X150981599Y-88903774D01*
X151129280Y-88764119D01*
X151245863Y-88597621D01*
X151326586Y-88411081D01*
X151354003Y-88279845D01*
X151367162Y-88216856D01*
X151367163Y-88216851D01*
X151368151Y-88212120D01*
X151368500Y-88205461D01*
X151368500Y-88157800D01*
X151907500Y-88157800D01*
X151907823Y-88160979D01*
X151920284Y-88283654D01*
X151922880Y-88309216D01*
X151983662Y-88503172D01*
X152082203Y-88680944D01*
X152214477Y-88835271D01*
X152375081Y-88959848D01*
X152557455Y-89049587D01*
X152563633Y-89051196D01*
X152563635Y-89051197D01*
X152747966Y-89099212D01*
X152747969Y-89099212D01*
X152754148Y-89100822D01*
X152835328Y-89105076D01*
X152950744Y-89111125D01*
X152950748Y-89111125D01*
X152957126Y-89111459D01*
X153158097Y-89081065D01*
X153348852Y-89010881D01*
X153354273Y-89007520D01*
X153516176Y-88907137D01*
X153516180Y-88907134D01*
X153521599Y-88903774D01*
X153669280Y-88764119D01*
X153785863Y-88597621D01*
X153866586Y-88411081D01*
X153894003Y-88279845D01*
X153907162Y-88216856D01*
X153907163Y-88216851D01*
X153908151Y-88212120D01*
X153908500Y-88205461D01*
X153908500Y-88157800D01*
X154447500Y-88157800D01*
X154447823Y-88160979D01*
X154460284Y-88283654D01*
X154462880Y-88309216D01*
X154523662Y-88503172D01*
X154622203Y-88680944D01*
X154754477Y-88835271D01*
X154915081Y-88959848D01*
X155097455Y-89049587D01*
X155103633Y-89051196D01*
X155103635Y-89051197D01*
X155287966Y-89099212D01*
X155287969Y-89099212D01*
X155294148Y-89100822D01*
X155375328Y-89105076D01*
X155490744Y-89111125D01*
X155490748Y-89111125D01*
X155497126Y-89111459D01*
X155698097Y-89081065D01*
X155888852Y-89010881D01*
X155894273Y-89007520D01*
X156056176Y-88907137D01*
X156056180Y-88907134D01*
X156061599Y-88903774D01*
X156209280Y-88764119D01*
X156325863Y-88597621D01*
X156406586Y-88411081D01*
X156434003Y-88279845D01*
X156447162Y-88216856D01*
X156447163Y-88216851D01*
X156448151Y-88212120D01*
X156448500Y-88205461D01*
X156448500Y-88157800D01*
X156987500Y-88157800D01*
X156987823Y-88160979D01*
X157000284Y-88283654D01*
X157002880Y-88309216D01*
X157063662Y-88503172D01*
X157162203Y-88680944D01*
X157294477Y-88835271D01*
X157455081Y-88959848D01*
X157637455Y-89049587D01*
X157643633Y-89051196D01*
X157643635Y-89051197D01*
X157827966Y-89099212D01*
X157827969Y-89099212D01*
X157834148Y-89100822D01*
X157915328Y-89105076D01*
X158030744Y-89111125D01*
X158030748Y-89111125D01*
X158037126Y-89111459D01*
X158238097Y-89081065D01*
X158428852Y-89010881D01*
X158434273Y-89007520D01*
X158596176Y-88907137D01*
X158596180Y-88907134D01*
X158601599Y-88903774D01*
X158749280Y-88764119D01*
X158865863Y-88597621D01*
X158946586Y-88411081D01*
X158974003Y-88279845D01*
X158987162Y-88216856D01*
X158987163Y-88216851D01*
X158988151Y-88212120D01*
X158988500Y-88205461D01*
X158988500Y-88157800D01*
X159527500Y-88157800D01*
X159527823Y-88160979D01*
X159540284Y-88283654D01*
X159542880Y-88309216D01*
X159603662Y-88503172D01*
X159702203Y-88680944D01*
X159834477Y-88835271D01*
X159995081Y-88959848D01*
X160177455Y-89049587D01*
X160183633Y-89051196D01*
X160183635Y-89051197D01*
X160367966Y-89099212D01*
X160367969Y-89099212D01*
X160374148Y-89100822D01*
X160455328Y-89105076D01*
X160570744Y-89111125D01*
X160570748Y-89111125D01*
X160577126Y-89111459D01*
X160778097Y-89081065D01*
X160968852Y-89010881D01*
X160974273Y-89007520D01*
X161136176Y-88907137D01*
X161136180Y-88907134D01*
X161141599Y-88903774D01*
X161289280Y-88764119D01*
X161405863Y-88597621D01*
X161486586Y-88411081D01*
X161514003Y-88279845D01*
X161527162Y-88216856D01*
X161527163Y-88216851D01*
X161528151Y-88212120D01*
X161528500Y-88205461D01*
X161528500Y-87656200D01*
X161522501Y-87597144D01*
X161513765Y-87511132D01*
X161513765Y-87511130D01*
X161513120Y-87504784D01*
X161452338Y-87310828D01*
X161353797Y-87133056D01*
X161221523Y-86978729D01*
X161060919Y-86854152D01*
X160878545Y-86764413D01*
X160872367Y-86762804D01*
X160872365Y-86762803D01*
X160688034Y-86714788D01*
X160688031Y-86714788D01*
X160681852Y-86713178D01*
X160600672Y-86708924D01*
X160485256Y-86702875D01*
X160485252Y-86702875D01*
X160478874Y-86702541D01*
X160277903Y-86732935D01*
X160087148Y-86803119D01*
X160081728Y-86806479D01*
X160081727Y-86806480D01*
X159919824Y-86906863D01*
X159919820Y-86906866D01*
X159914401Y-86910226D01*
X159766720Y-87049881D01*
X159650137Y-87216379D01*
X159569414Y-87402919D01*
X159568108Y-87409171D01*
X159539054Y-87548246D01*
X159527849Y-87601880D01*
X159527500Y-87608539D01*
X159527500Y-88157800D01*
X158988500Y-88157800D01*
X158988500Y-87656200D01*
X158982501Y-87597144D01*
X158973765Y-87511132D01*
X158973765Y-87511130D01*
X158973120Y-87504784D01*
X158912338Y-87310828D01*
X158813797Y-87133056D01*
X158681523Y-86978729D01*
X158520919Y-86854152D01*
X158338545Y-86764413D01*
X158332367Y-86762804D01*
X158332365Y-86762803D01*
X158148034Y-86714788D01*
X158148031Y-86714788D01*
X158141852Y-86713178D01*
X158060672Y-86708924D01*
X157945256Y-86702875D01*
X157945252Y-86702875D01*
X157938874Y-86702541D01*
X157737903Y-86732935D01*
X157547148Y-86803119D01*
X157541728Y-86806479D01*
X157541727Y-86806480D01*
X157379824Y-86906863D01*
X157379820Y-86906866D01*
X157374401Y-86910226D01*
X157226720Y-87049881D01*
X157110137Y-87216379D01*
X157029414Y-87402919D01*
X157028108Y-87409171D01*
X156999054Y-87548246D01*
X156987849Y-87601880D01*
X156987500Y-87608539D01*
X156987500Y-88157800D01*
X156448500Y-88157800D01*
X156448500Y-87656200D01*
X156442501Y-87597144D01*
X156433765Y-87511132D01*
X156433765Y-87511130D01*
X156433120Y-87504784D01*
X156372338Y-87310828D01*
X156273797Y-87133056D01*
X156141523Y-86978729D01*
X155980919Y-86854152D01*
X155798545Y-86764413D01*
X155792367Y-86762804D01*
X155792365Y-86762803D01*
X155608034Y-86714788D01*
X155608031Y-86714788D01*
X155601852Y-86713178D01*
X155520672Y-86708924D01*
X155405256Y-86702875D01*
X155405252Y-86702875D01*
X155398874Y-86702541D01*
X155197903Y-86732935D01*
X155007148Y-86803119D01*
X155001728Y-86806479D01*
X155001727Y-86806480D01*
X154839824Y-86906863D01*
X154839820Y-86906866D01*
X154834401Y-86910226D01*
X154686720Y-87049881D01*
X154570137Y-87216379D01*
X154489414Y-87402919D01*
X154488108Y-87409171D01*
X154459054Y-87548246D01*
X154447849Y-87601880D01*
X154447500Y-87608539D01*
X154447500Y-88157800D01*
X153908500Y-88157800D01*
X153908500Y-87656200D01*
X153902501Y-87597144D01*
X153893765Y-87511132D01*
X153893765Y-87511130D01*
X153893120Y-87504784D01*
X153832338Y-87310828D01*
X153733797Y-87133056D01*
X153601523Y-86978729D01*
X153440919Y-86854152D01*
X153258545Y-86764413D01*
X153252367Y-86762804D01*
X153252365Y-86762803D01*
X153068034Y-86714788D01*
X153068031Y-86714788D01*
X153061852Y-86713178D01*
X152980672Y-86708924D01*
X152865256Y-86702875D01*
X152865252Y-86702875D01*
X152858874Y-86702541D01*
X152657903Y-86732935D01*
X152467148Y-86803119D01*
X152461728Y-86806479D01*
X152461727Y-86806480D01*
X152299824Y-86906863D01*
X152299820Y-86906866D01*
X152294401Y-86910226D01*
X152146720Y-87049881D01*
X152030137Y-87216379D01*
X151949414Y-87402919D01*
X151948108Y-87409171D01*
X151919054Y-87548246D01*
X151907849Y-87601880D01*
X151907500Y-87608539D01*
X151907500Y-88157800D01*
X151368500Y-88157800D01*
X151368500Y-87656200D01*
X151362501Y-87597144D01*
X151353765Y-87511132D01*
X151353765Y-87511130D01*
X151353120Y-87504784D01*
X151292338Y-87310828D01*
X151193797Y-87133056D01*
X151061523Y-86978729D01*
X150900919Y-86854152D01*
X150718545Y-86764413D01*
X150712367Y-86762804D01*
X150712365Y-86762803D01*
X150528034Y-86714788D01*
X150528031Y-86714788D01*
X150521852Y-86713178D01*
X150440672Y-86708924D01*
X150325256Y-86702875D01*
X150325252Y-86702875D01*
X150318874Y-86702541D01*
X150117903Y-86732935D01*
X149927148Y-86803119D01*
X149921728Y-86806479D01*
X149921727Y-86806480D01*
X149759824Y-86906863D01*
X149759820Y-86906866D01*
X149754401Y-86910226D01*
X149606720Y-87049881D01*
X149490137Y-87216379D01*
X149409414Y-87402919D01*
X149408108Y-87409171D01*
X149379054Y-87548246D01*
X149367849Y-87601880D01*
X149367500Y-87608539D01*
X149367500Y-88157800D01*
X148828500Y-88157800D01*
X148828500Y-87656200D01*
X148822501Y-87597144D01*
X148813765Y-87511132D01*
X148813765Y-87511130D01*
X148813120Y-87504784D01*
X148752338Y-87310828D01*
X148653797Y-87133056D01*
X148521523Y-86978729D01*
X148360919Y-86854152D01*
X148178545Y-86764413D01*
X148172367Y-86762804D01*
X148172365Y-86762803D01*
X147988034Y-86714788D01*
X147988031Y-86714788D01*
X147981852Y-86713178D01*
X147900672Y-86708924D01*
X147785256Y-86702875D01*
X147785252Y-86702875D01*
X147778874Y-86702541D01*
X147577903Y-86732935D01*
X147387148Y-86803119D01*
X147381728Y-86806479D01*
X147381727Y-86806480D01*
X147219824Y-86906863D01*
X147219820Y-86906866D01*
X147214401Y-86910226D01*
X147066720Y-87049881D01*
X146950137Y-87216379D01*
X146869414Y-87402919D01*
X146868108Y-87409171D01*
X146835965Y-87563031D01*
X146802456Y-87625622D01*
X146740426Y-87660160D01*
X146669571Y-87655680D01*
X146612386Y-87613604D01*
X146587107Y-87548246D01*
X146581528Y-87484480D01*
X146579625Y-87473688D01*
X146523236Y-87263239D01*
X146519490Y-87252947D01*
X146427414Y-87055489D01*
X146421931Y-87045993D01*
X146296972Y-86867533D01*
X146289916Y-86859125D01*
X146135875Y-86705084D01*
X146127467Y-86698028D01*
X145949007Y-86573069D01*
X145939511Y-86567586D01*
X145742053Y-86475510D01*
X145731761Y-86471764D01*
X145559497Y-86425606D01*
X145545401Y-86425942D01*
X145542000Y-86433884D01*
X145542000Y-89374967D01*
X145034000Y-89374967D01*
X145034000Y-86439033D01*
X145030027Y-86425502D01*
X145021478Y-86424273D01*
X144844239Y-86471764D01*
X144833947Y-86475510D01*
X144636489Y-86567586D01*
X144626993Y-86573069D01*
X144448533Y-86698028D01*
X144440125Y-86705084D01*
X144286084Y-86859125D01*
X144279028Y-86867533D01*
X144154069Y-87045993D01*
X144148586Y-87055489D01*
X144056510Y-87252947D01*
X144052764Y-87263239D01*
X143996375Y-87473688D01*
X143994472Y-87484480D01*
X143988752Y-87549857D01*
X143962888Y-87615975D01*
X143905385Y-87657614D01*
X143834498Y-87661555D01*
X143772733Y-87626546D01*
X143739701Y-87563701D01*
X143737876Y-87551608D01*
X143733765Y-87511132D01*
X143733765Y-87511130D01*
X143733120Y-87504784D01*
X143672338Y-87310828D01*
X143573797Y-87133056D01*
X143441523Y-86978729D01*
X143280919Y-86854152D01*
X143098545Y-86764413D01*
X143092367Y-86762804D01*
X143092365Y-86762803D01*
X142908034Y-86714788D01*
X142908031Y-86714788D01*
X142901852Y-86713178D01*
X142820672Y-86708924D01*
X142705256Y-86702875D01*
X142705252Y-86702875D01*
X142698874Y-86702541D01*
X142497903Y-86732935D01*
X142307148Y-86803119D01*
X142301728Y-86806479D01*
X142301727Y-86806480D01*
X142139824Y-86906863D01*
X142139820Y-86906866D01*
X142134401Y-86910226D01*
X141986720Y-87049881D01*
X141870137Y-87216379D01*
X141867602Y-87222238D01*
X141867600Y-87222241D01*
X141838750Y-87288910D01*
X141793340Y-87343485D01*
X141723113Y-87364870D01*
X140253748Y-87364870D01*
X140185627Y-87344868D01*
X140164653Y-87327965D01*
X138562035Y-85725348D01*
X138528010Y-85663036D01*
X138525130Y-85636253D01*
X138525130Y-83766244D01*
X162509852Y-83766244D01*
X162525942Y-83957855D01*
X162578943Y-84142693D01*
X162581762Y-84148178D01*
X162664019Y-84308233D01*
X162664022Y-84308238D01*
X162666837Y-84313715D01*
X162786275Y-84464408D01*
X162790968Y-84468402D01*
X162790969Y-84468403D01*
X162820442Y-84493486D01*
X162932708Y-84589032D01*
X163100559Y-84682841D01*
X163106418Y-84684745D01*
X163106421Y-84684746D01*
X163140396Y-84695785D01*
X163283433Y-84742261D01*
X163289543Y-84742990D01*
X163289545Y-84742990D01*
X163350650Y-84750276D01*
X163474367Y-84765028D01*
X163480502Y-84764556D01*
X163480504Y-84764556D01*
X163659944Y-84750749D01*
X163659948Y-84750748D01*
X163666086Y-84750276D01*
X163753218Y-84725948D01*
X163845344Y-84700226D01*
X163845348Y-84700225D01*
X163851288Y-84698566D01*
X163856792Y-84695786D01*
X163856794Y-84695785D01*
X164017417Y-84614649D01*
X164017419Y-84614648D01*
X164022920Y-84611869D01*
X164174444Y-84493486D01*
X164199544Y-84464408D01*
X164296063Y-84352588D01*
X164296063Y-84352587D01*
X164300087Y-84347926D01*
X164395065Y-84180735D01*
X164455760Y-83998279D01*
X164479860Y-83807510D01*
X164480244Y-83780000D01*
X164461480Y-83588632D01*
X164459260Y-83581277D01*
X164407684Y-83410453D01*
X164405903Y-83404553D01*
X164315631Y-83234774D01*
X164306330Y-83223370D01*
X164197995Y-83090538D01*
X164197992Y-83090535D01*
X164194100Y-83085763D01*
X164188088Y-83080789D01*
X164119409Y-83023974D01*
X164045941Y-82963196D01*
X163876797Y-82871740D01*
X163693111Y-82814879D01*
X163686993Y-82814236D01*
X163686988Y-82814235D01*
X163508007Y-82795424D01*
X163508005Y-82795424D01*
X163501878Y-82794780D01*
X163383600Y-82805544D01*
X163316525Y-82811648D01*
X163316524Y-82811648D01*
X163310384Y-82812207D01*
X163125921Y-82866498D01*
X162955517Y-82955583D01*
X162805661Y-83076070D01*
X162682062Y-83223370D01*
X162679093Y-83228771D01*
X162679092Y-83228772D01*
X162672801Y-83240215D01*
X162589427Y-83391871D01*
X162531286Y-83575156D01*
X162530600Y-83581273D01*
X162530599Y-83581277D01*
X162529774Y-83588632D01*
X162509852Y-83766244D01*
X138525130Y-83766244D01*
X138525130Y-83168500D01*
X138545132Y-83100379D01*
X138598788Y-83053886D01*
X138651130Y-83042500D01*
X138802748Y-83042500D01*
X138808816Y-83041293D01*
X138849061Y-83033288D01*
X138849062Y-83033288D01*
X138861231Y-83030867D01*
X138927552Y-82986552D01*
X138971867Y-82920231D01*
X138983500Y-82861748D01*
X138983500Y-81222252D01*
X138978314Y-81196180D01*
X138974288Y-81175939D01*
X138974288Y-81175938D01*
X138971867Y-81163769D01*
X138927552Y-81097448D01*
X138861231Y-81053133D01*
X138849062Y-81050712D01*
X138849061Y-81050712D01*
X138808816Y-81042707D01*
X138802748Y-81041500D01*
X138651130Y-81041500D01*
X138583009Y-81021498D01*
X138536516Y-80967842D01*
X138525130Y-80915500D01*
X138525130Y-77988553D01*
X158476652Y-77988553D01*
X158490472Y-78146519D01*
X158492375Y-78157312D01*
X158548764Y-78367761D01*
X158552510Y-78378053D01*
X158644586Y-78575511D01*
X158650069Y-78585007D01*
X158775028Y-78763467D01*
X158782084Y-78771875D01*
X158936125Y-78925916D01*
X158944533Y-78932972D01*
X159122993Y-79057931D01*
X159132489Y-79063414D01*
X159134195Y-79064209D01*
X159134820Y-79064759D01*
X159137253Y-79066164D01*
X159136971Y-79066653D01*
X159187480Y-79111126D01*
X159206941Y-79179404D01*
X159186399Y-79247364D01*
X159167518Y-79269952D01*
X159027361Y-79402492D01*
X159022720Y-79406881D01*
X158906137Y-79573379D01*
X158825414Y-79759919D01*
X158783849Y-79958880D01*
X158783500Y-79965539D01*
X158783500Y-80514800D01*
X158798880Y-80666216D01*
X158859662Y-80860172D01*
X158958203Y-81037944D01*
X158962359Y-81042792D01*
X158962359Y-81042793D01*
X158976978Y-81059850D01*
X159090477Y-81192271D01*
X159095514Y-81196178D01*
X159095516Y-81196180D01*
X159170779Y-81254559D01*
X159251081Y-81316848D01*
X159433455Y-81406587D01*
X159439633Y-81408196D01*
X159439635Y-81408197D01*
X159623966Y-81456212D01*
X159623969Y-81456212D01*
X159630148Y-81457822D01*
X159711328Y-81462076D01*
X159826744Y-81468125D01*
X159826748Y-81468125D01*
X159833126Y-81468459D01*
X160034097Y-81438065D01*
X160224852Y-81367881D01*
X160230273Y-81364520D01*
X160388778Y-81266244D01*
X167509852Y-81266244D01*
X167525942Y-81457855D01*
X167537533Y-81498279D01*
X167574564Y-81627420D01*
X167578943Y-81642693D01*
X167581762Y-81648178D01*
X167664019Y-81808233D01*
X167664022Y-81808238D01*
X167666837Y-81813715D01*
X167786275Y-81964408D01*
X167790968Y-81968402D01*
X167790969Y-81968403D01*
X167892500Y-82054812D01*
X167932708Y-82089032D01*
X168100559Y-82182841D01*
X168106418Y-82184745D01*
X168106421Y-82184746D01*
X168140396Y-82195785D01*
X168283433Y-82242261D01*
X168289543Y-82242990D01*
X168289545Y-82242990D01*
X168350650Y-82250276D01*
X168474367Y-82265028D01*
X168480502Y-82264556D01*
X168480504Y-82264556D01*
X168659944Y-82250749D01*
X168659948Y-82250748D01*
X168666086Y-82250276D01*
X168753218Y-82225948D01*
X168845344Y-82200226D01*
X168845348Y-82200225D01*
X168851288Y-82198566D01*
X168856792Y-82195786D01*
X168856794Y-82195785D01*
X169017417Y-82114649D01*
X169017419Y-82114648D01*
X169022920Y-82111869D01*
X169174444Y-81993486D01*
X169199544Y-81964408D01*
X169296063Y-81852588D01*
X169296063Y-81852587D01*
X169300087Y-81847926D01*
X169395065Y-81680735D01*
X169455760Y-81498279D01*
X169479860Y-81307510D01*
X169480244Y-81280000D01*
X169461480Y-81088632D01*
X169459260Y-81081277D01*
X169424972Y-80967713D01*
X169405903Y-80904553D01*
X169315631Y-80734774D01*
X169306330Y-80723370D01*
X169197995Y-80590538D01*
X169197992Y-80590535D01*
X169194100Y-80585763D01*
X169188088Y-80580789D01*
X169108320Y-80514800D01*
X169045941Y-80463196D01*
X168876797Y-80371740D01*
X168693111Y-80314879D01*
X168686993Y-80314236D01*
X168686988Y-80314235D01*
X168508007Y-80295424D01*
X168508005Y-80295424D01*
X168501878Y-80294780D01*
X168383600Y-80305544D01*
X168316525Y-80311648D01*
X168316524Y-80311648D01*
X168310384Y-80312207D01*
X168125921Y-80366498D01*
X167955517Y-80455583D01*
X167805661Y-80576070D01*
X167682062Y-80723370D01*
X167679093Y-80728771D01*
X167679092Y-80728772D01*
X167672801Y-80740215D01*
X167589427Y-80891871D01*
X167531286Y-81075156D01*
X167530600Y-81081273D01*
X167530599Y-81081277D01*
X167510539Y-81260119D01*
X167509852Y-81266244D01*
X160388778Y-81266244D01*
X160392176Y-81264137D01*
X160392180Y-81264134D01*
X160397599Y-81260774D01*
X160475162Y-81187426D01*
X160540639Y-81125508D01*
X160540640Y-81125507D01*
X160545280Y-81121119D01*
X160661863Y-80954621D01*
X160742586Y-80768081D01*
X160781495Y-80581834D01*
X160783162Y-80573856D01*
X160783163Y-80573851D01*
X160784151Y-80569120D01*
X160784500Y-80562461D01*
X160784500Y-80013200D01*
X160769120Y-79861784D01*
X160708338Y-79667828D01*
X160659514Y-79579748D01*
X162514500Y-79579748D01*
X162526133Y-79638231D01*
X162570448Y-79704552D01*
X162636769Y-79748867D01*
X162648938Y-79751288D01*
X162648939Y-79751288D01*
X162689184Y-79759293D01*
X162695252Y-79760500D01*
X164294748Y-79760500D01*
X164300816Y-79759293D01*
X164341061Y-79751288D01*
X164341062Y-79751288D01*
X164353231Y-79748867D01*
X164419552Y-79704552D01*
X164463867Y-79638231D01*
X164475500Y-79579748D01*
X164475500Y-77980252D01*
X164463867Y-77921769D01*
X164419552Y-77855448D01*
X164353231Y-77811133D01*
X164341062Y-77808712D01*
X164341061Y-77808712D01*
X164300816Y-77800707D01*
X164294748Y-77799500D01*
X162695252Y-77799500D01*
X162689184Y-77800707D01*
X162648939Y-77808712D01*
X162648938Y-77808712D01*
X162636769Y-77811133D01*
X162570448Y-77855448D01*
X162526133Y-77921769D01*
X162514500Y-77980252D01*
X162514500Y-79579748D01*
X160659514Y-79579748D01*
X160609797Y-79490056D01*
X160477523Y-79335729D01*
X160459525Y-79321768D01*
X160405596Y-79279936D01*
X160364030Y-79222380D01*
X160360180Y-79151488D01*
X160395268Y-79089768D01*
X160429577Y-79066181D01*
X160435505Y-79063417D01*
X160445007Y-79057931D01*
X160623467Y-78932972D01*
X160631875Y-78925916D01*
X160785916Y-78771875D01*
X160792972Y-78763467D01*
X160917931Y-78585007D01*
X160923414Y-78575511D01*
X161015490Y-78378053D01*
X161019236Y-78367761D01*
X161075625Y-78157312D01*
X161077528Y-78146519D01*
X161090988Y-77992670D01*
X161087525Y-77980876D01*
X161086135Y-77979671D01*
X161078452Y-77978000D01*
X158494115Y-77978000D01*
X158478876Y-77982475D01*
X158477671Y-77983865D01*
X158476652Y-77988553D01*
X138525130Y-77988553D01*
X138525130Y-77685748D01*
X138545132Y-77617627D01*
X138562035Y-77596653D01*
X142300652Y-73858035D01*
X142362964Y-73824009D01*
X142389747Y-73821130D01*
X150091252Y-73821130D01*
X150159373Y-73841132D01*
X150180347Y-73858035D01*
X151879158Y-75556845D01*
X151882812Y-75560654D01*
X151924184Y-75605646D01*
X151931483Y-75610172D01*
X151931486Y-75610174D01*
X151960529Y-75628181D01*
X151970299Y-75634895D01*
X152004364Y-75660752D01*
X152017974Y-75666140D01*
X152037983Y-75676204D01*
X152043124Y-75679392D01*
X152043127Y-75679393D01*
X152050423Y-75683917D01*
X152091493Y-75695849D01*
X152102721Y-75699694D01*
X152134481Y-75712268D01*
X152142468Y-75715430D01*
X152151008Y-75716328D01*
X152151013Y-75716329D01*
X152157022Y-75716961D01*
X152178994Y-75721271D01*
X152193059Y-75725357D01*
X152203586Y-75726130D01*
X152237659Y-75726130D01*
X152250828Y-75726820D01*
X152290188Y-75730957D01*
X152298654Y-75729525D01*
X152298657Y-75729525D01*
X152308299Y-75727894D01*
X152329311Y-75726130D01*
X158755486Y-75726130D01*
X158823607Y-75746132D01*
X158865688Y-75791044D01*
X158958203Y-75957944D01*
X159090477Y-76112271D01*
X159095518Y-76116181D01*
X159162404Y-76168064D01*
X159203970Y-76225620D01*
X159207820Y-76296512D01*
X159172732Y-76358232D01*
X159138423Y-76381819D01*
X159132495Y-76384583D01*
X159122993Y-76390069D01*
X158944533Y-76515028D01*
X158936125Y-76522084D01*
X158782084Y-76676125D01*
X158775028Y-76684533D01*
X158650069Y-76862993D01*
X158644586Y-76872489D01*
X158552510Y-77069947D01*
X158548764Y-77080239D01*
X158492375Y-77290688D01*
X158490472Y-77301481D01*
X158477012Y-77455330D01*
X158480475Y-77467124D01*
X158481865Y-77468329D01*
X158489548Y-77470000D01*
X161073885Y-77470000D01*
X161089124Y-77465525D01*
X161090329Y-77464135D01*
X161091348Y-77459447D01*
X161077528Y-77301481D01*
X161075625Y-77290688D01*
X161019236Y-77080239D01*
X161015490Y-77069947D01*
X160923414Y-76872489D01*
X160917931Y-76862993D01*
X160792972Y-76684533D01*
X160785916Y-76676125D01*
X160631875Y-76522084D01*
X160623467Y-76515028D01*
X160445007Y-76390069D01*
X160435511Y-76384586D01*
X160433805Y-76383791D01*
X160433180Y-76383241D01*
X160430747Y-76381836D01*
X160431029Y-76381347D01*
X160380520Y-76336874D01*
X160361059Y-76268596D01*
X160381601Y-76200636D01*
X160400482Y-76178048D01*
X160540639Y-76045508D01*
X160540640Y-76045507D01*
X160545280Y-76041119D01*
X160661863Y-75874621D01*
X160742586Y-75688081D01*
X160784151Y-75489120D01*
X160784500Y-75482461D01*
X160784500Y-74933200D01*
X160769120Y-74781784D01*
X160708338Y-74587828D01*
X160609797Y-74410056D01*
X160477523Y-74255729D01*
X160316919Y-74131152D01*
X160134545Y-74041413D01*
X160128367Y-74039804D01*
X160128365Y-74039803D01*
X159944034Y-73991788D01*
X159944031Y-73991788D01*
X159937852Y-73990178D01*
X159856672Y-73985924D01*
X159741256Y-73979875D01*
X159741252Y-73979875D01*
X159734874Y-73979541D01*
X159533903Y-74009935D01*
X159343148Y-74080119D01*
X159337728Y-74083479D01*
X159337727Y-74083480D01*
X159175824Y-74183863D01*
X159175820Y-74183866D01*
X159170401Y-74187226D01*
X159022720Y-74326881D01*
X158906137Y-74493379D01*
X158903601Y-74499239D01*
X158903600Y-74499241D01*
X158874750Y-74565910D01*
X158829340Y-74620485D01*
X158759113Y-74641870D01*
X152549748Y-74641870D01*
X152481627Y-74621868D01*
X152460653Y-74604965D01*
X150947035Y-73091348D01*
X150913010Y-73029036D01*
X150910130Y-73002253D01*
X150910130Y-68234514D01*
X150930132Y-68166393D01*
X150975044Y-68124312D01*
X151102114Y-68053875D01*
X151141944Y-68031797D01*
X151296271Y-67899523D01*
X151332336Y-67853029D01*
X151371514Y-67802520D01*
X151420848Y-67738919D01*
X151510587Y-67556545D01*
X151517137Y-67531398D01*
X151553663Y-67470520D01*
X151617305Y-67439053D01*
X151687857Y-67446988D01*
X151742918Y-67491807D01*
X151757318Y-67519651D01*
X151804119Y-67646852D01*
X151807479Y-67652272D01*
X151807480Y-67652273D01*
X151907863Y-67814176D01*
X151907866Y-67814180D01*
X151911226Y-67819599D01*
X151915612Y-67824237D01*
X151956058Y-67867007D01*
X152050881Y-67967280D01*
X152217379Y-68083863D01*
X152403919Y-68164586D01*
X152412569Y-68166393D01*
X152598144Y-68205162D01*
X152598149Y-68205163D01*
X152602880Y-68206151D01*
X152607762Y-68206407D01*
X152607871Y-68206413D01*
X152607887Y-68206413D01*
X152609539Y-68206500D01*
X153158800Y-68206500D01*
X153233504Y-68198912D01*
X153303868Y-68191765D01*
X153303870Y-68191765D01*
X153310216Y-68191120D01*
X153504172Y-68130338D01*
X153681944Y-68031797D01*
X153836271Y-67899523D01*
X153872336Y-67853029D01*
X153911514Y-67802520D01*
X153960848Y-67738919D01*
X154050587Y-67556545D01*
X154057137Y-67531398D01*
X154093663Y-67470520D01*
X154157305Y-67439053D01*
X154227857Y-67446988D01*
X154282918Y-67491807D01*
X154297318Y-67519651D01*
X154344119Y-67646852D01*
X154347479Y-67652272D01*
X154347480Y-67652273D01*
X154447863Y-67814176D01*
X154447866Y-67814180D01*
X154451226Y-67819599D01*
X154455612Y-67824237D01*
X154496058Y-67867007D01*
X154590881Y-67967280D01*
X154757379Y-68083863D01*
X154943919Y-68164586D01*
X155022267Y-68180954D01*
X155084857Y-68214462D01*
X155119395Y-68276491D01*
X155122500Y-68304290D01*
X155122500Y-69662983D01*
X155102498Y-69731104D01*
X155085595Y-69752078D01*
X152818784Y-72018890D01*
X152810681Y-72026316D01*
X152781806Y-72050545D01*
X152776293Y-72060094D01*
X152762961Y-72083185D01*
X152757055Y-72092456D01*
X152735446Y-72123316D01*
X152732592Y-72133966D01*
X152731115Y-72137134D01*
X152729923Y-72140410D01*
X152724412Y-72149955D01*
X152718462Y-72183699D01*
X152717870Y-72187058D01*
X152715492Y-72197785D01*
X152705736Y-72234193D01*
X152706697Y-72245178D01*
X152706697Y-72245180D01*
X152709020Y-72271728D01*
X152709500Y-72282710D01*
X152709500Y-72963714D01*
X152689498Y-73031835D01*
X152660204Y-73063677D01*
X152606718Y-73104718D01*
X152510464Y-73230159D01*
X152449956Y-73376238D01*
X152429318Y-73533000D01*
X152449956Y-73689762D01*
X152510464Y-73835841D01*
X152606718Y-73961282D01*
X152613264Y-73966305D01*
X152642918Y-73989059D01*
X152732159Y-74057536D01*
X152878238Y-74118044D01*
X153035000Y-74138682D01*
X153043188Y-74137604D01*
X153183574Y-74119122D01*
X153191762Y-74118044D01*
X153337841Y-74057536D01*
X153427082Y-73989059D01*
X153456736Y-73966305D01*
X153463282Y-73961282D01*
X153559536Y-73835841D01*
X153620044Y-73689762D01*
X153640682Y-73533000D01*
X153620044Y-73376238D01*
X153559536Y-73230159D01*
X153463282Y-73104718D01*
X153409796Y-73063677D01*
X153367929Y-73006339D01*
X153360500Y-72963714D01*
X153360500Y-72450016D01*
X153380502Y-72381895D01*
X153397405Y-72360921D01*
X155664222Y-70094105D01*
X155672326Y-70086678D01*
X155692750Y-70069540D01*
X155701194Y-70062455D01*
X155706704Y-70052912D01*
X155706707Y-70052908D01*
X155720036Y-70029821D01*
X155725941Y-70020551D01*
X155741232Y-69998713D01*
X155747554Y-69989684D01*
X155750407Y-69979036D01*
X155751886Y-69975865D01*
X155753078Y-69972589D01*
X155758588Y-69963045D01*
X155765134Y-69925924D01*
X155767508Y-69915217D01*
X155777263Y-69878807D01*
X155773979Y-69841269D01*
X155773500Y-69830288D01*
X155773500Y-68307717D01*
X155793502Y-68239596D01*
X155847158Y-68193103D01*
X155861818Y-68187484D01*
X156044172Y-68130338D01*
X156221944Y-68031797D01*
X156376271Y-67899523D01*
X156412336Y-67853029D01*
X156451514Y-67802520D01*
X156500848Y-67738919D01*
X156590587Y-67556545D01*
X156611017Y-67478115D01*
X156640212Y-67366034D01*
X156640212Y-67366031D01*
X156641822Y-67359852D01*
X156652459Y-67156874D01*
X156622065Y-66955903D01*
X156551881Y-66765148D01*
X156498345Y-66678802D01*
X156448137Y-66597824D01*
X156448134Y-66597820D01*
X156444774Y-66592401D01*
X156408922Y-66554489D01*
X156309508Y-66449361D01*
X156309507Y-66449360D01*
X156305119Y-66444720D01*
X156138621Y-66328137D01*
X155952081Y-66247414D01*
X155906053Y-66237798D01*
X155757856Y-66206838D01*
X155757851Y-66206837D01*
X155753120Y-66205849D01*
X155748238Y-66205593D01*
X155748129Y-66205587D01*
X155748113Y-66205587D01*
X155746461Y-66205500D01*
X155197200Y-66205500D01*
X155149207Y-66210375D01*
X155052132Y-66220235D01*
X155052130Y-66220235D01*
X155045784Y-66220880D01*
X154851828Y-66281662D01*
X154674056Y-66380203D01*
X154519729Y-66512477D01*
X154515822Y-66517514D01*
X154515820Y-66517516D01*
X154482538Y-66560423D01*
X154395152Y-66673081D01*
X154305413Y-66855455D01*
X154298863Y-66880602D01*
X154262337Y-66941480D01*
X154198695Y-66972947D01*
X154128143Y-66965012D01*
X154073082Y-66920193D01*
X154058682Y-66892349D01*
X154041433Y-66845467D01*
X154011881Y-66765148D01*
X153958345Y-66678802D01*
X153908137Y-66597824D01*
X153908134Y-66597820D01*
X153904774Y-66592401D01*
X153868922Y-66554489D01*
X153769508Y-66449361D01*
X153769507Y-66449360D01*
X153765119Y-66444720D01*
X153598621Y-66328137D01*
X153412081Y-66247414D01*
X153366053Y-66237798D01*
X153217856Y-66206838D01*
X153217851Y-66206837D01*
X153213120Y-66205849D01*
X153208238Y-66205593D01*
X153208129Y-66205587D01*
X153208113Y-66205587D01*
X153206461Y-66205500D01*
X152657200Y-66205500D01*
X152609207Y-66210375D01*
X152512132Y-66220235D01*
X152512130Y-66220235D01*
X152505784Y-66220880D01*
X152311828Y-66281662D01*
X152134056Y-66380203D01*
X151979729Y-66512477D01*
X151975822Y-66517514D01*
X151975820Y-66517516D01*
X151942538Y-66560423D01*
X151855152Y-66673081D01*
X151765413Y-66855455D01*
X151758863Y-66880602D01*
X151722337Y-66941480D01*
X151658695Y-66972947D01*
X151588143Y-66965012D01*
X151533082Y-66920193D01*
X151518682Y-66892349D01*
X151501433Y-66845467D01*
X151471881Y-66765148D01*
X151418345Y-66678802D01*
X151368137Y-66597824D01*
X151368134Y-66597820D01*
X151364774Y-66592401D01*
X151328922Y-66554489D01*
X151229508Y-66449361D01*
X151229507Y-66449360D01*
X151225119Y-66444720D01*
X151058621Y-66328137D01*
X151052761Y-66325601D01*
X151052759Y-66325600D01*
X150986090Y-66296750D01*
X150931515Y-66251340D01*
X150910130Y-66181113D01*
X150910130Y-64792748D01*
X150930132Y-64724627D01*
X150947035Y-64703653D01*
X151063653Y-64587035D01*
X151125965Y-64553009D01*
X151152748Y-64550130D01*
X153528200Y-64550130D01*
X153533477Y-64550241D01*
X153594499Y-64552799D01*
X153611445Y-64548824D01*
X153636133Y-64543034D01*
X153647805Y-64540871D01*
X153662562Y-64538849D01*
X153690160Y-64535069D01*
X153698034Y-64531662D01*
X153698040Y-64531660D01*
X153703599Y-64529254D01*
X153724859Y-64522223D01*
X153739109Y-64518880D01*
X153776588Y-64498276D01*
X153787234Y-64493061D01*
X153818595Y-64479490D01*
X153818599Y-64479488D01*
X153826478Y-64476078D01*
X153837847Y-64466872D01*
X153856439Y-64454378D01*
X153863486Y-64450504D01*
X153863487Y-64450504D01*
X153869270Y-64447324D01*
X153877261Y-64440427D01*
X153901352Y-64416336D01*
X153911153Y-64407510D01*
X153935237Y-64388008D01*
X153935239Y-64388006D01*
X153941911Y-64382603D01*
X153946884Y-64375605D01*
X153946889Y-64375600D01*
X153952551Y-64367632D01*
X153966162Y-64351526D01*
X154550857Y-63766831D01*
X154554666Y-63763178D01*
X154593321Y-63727633D01*
X154593324Y-63727629D01*
X154599646Y-63721816D01*
X154622175Y-63685479D01*
X154628899Y-63675696D01*
X154654752Y-63641636D01*
X154660142Y-63628023D01*
X154670204Y-63608018D01*
X154673391Y-63602878D01*
X154673393Y-63602874D01*
X154677917Y-63595577D01*
X154689846Y-63554517D01*
X154693691Y-63543288D01*
X154706268Y-63511521D01*
X154706268Y-63511520D01*
X154709431Y-63503532D01*
X154710328Y-63494993D01*
X154710331Y-63494983D01*
X154710962Y-63488976D01*
X154715273Y-63466999D01*
X154717516Y-63459277D01*
X154719357Y-63452941D01*
X154720130Y-63442414D01*
X154720130Y-63408343D01*
X154720820Y-63395172D01*
X154724059Y-63364353D01*
X154724957Y-63355811D01*
X154721894Y-63337701D01*
X154720130Y-63316689D01*
X154720130Y-61777914D01*
X154740132Y-61709793D01*
X154785044Y-61667712D01*
X154912114Y-61597275D01*
X154951944Y-61575197D01*
X155106271Y-61442923D01*
X155142336Y-61396429D01*
X155188254Y-61337231D01*
X155230848Y-61282319D01*
X155320587Y-61099945D01*
X155342092Y-61017386D01*
X155370212Y-60909434D01*
X155370212Y-60909431D01*
X155371822Y-60903252D01*
X155382459Y-60700274D01*
X155352065Y-60499303D01*
X155281881Y-60308548D01*
X155228345Y-60222202D01*
X155178137Y-60141224D01*
X155178134Y-60141220D01*
X155174774Y-60135801D01*
X155138922Y-60097889D01*
X155039508Y-59992761D01*
X155039507Y-59992760D01*
X155035119Y-59988120D01*
X154868621Y-59871537D01*
X154766169Y-59827202D01*
X166261306Y-59827202D01*
X166261316Y-59827376D01*
X166275514Y-60073615D01*
X166276651Y-60078661D01*
X166276652Y-60078667D01*
X166290750Y-60141224D01*
X166329777Y-60314398D01*
X166372027Y-60418449D01*
X166403274Y-60495400D01*
X166422637Y-60543087D01*
X166551602Y-60753537D01*
X166713206Y-60940099D01*
X166903111Y-61097761D01*
X167116217Y-61222290D01*
X167346799Y-61310341D01*
X167351865Y-61311372D01*
X167351866Y-61311372D01*
X167426022Y-61326459D01*
X167588667Y-61359549D01*
X167727417Y-61364637D01*
X167830159Y-61368405D01*
X167830163Y-61368405D01*
X167835323Y-61368594D01*
X167840443Y-61367938D01*
X167840445Y-61367938D01*
X167961305Y-61352455D01*
X168080145Y-61337231D01*
X168085093Y-61335746D01*
X168085100Y-61335745D01*
X168311607Y-61267789D01*
X168311606Y-61267789D01*
X168316557Y-61266304D01*
X168538210Y-61157717D01*
X168542415Y-61154717D01*
X168542421Y-61154714D01*
X168734948Y-61017386D01*
X168734950Y-61017384D01*
X168739152Y-61014387D01*
X168913986Y-60840162D01*
X169058017Y-60639722D01*
X169167377Y-60418449D01*
X169200768Y-60308548D01*
X169237625Y-60187238D01*
X169237626Y-60187232D01*
X169239129Y-60182286D01*
X169271346Y-59937575D01*
X169271586Y-59927759D01*
X169273062Y-59867365D01*
X169273062Y-59867361D01*
X169273144Y-59864000D01*
X169252920Y-59618008D01*
X169192790Y-59378621D01*
X169094370Y-59152271D01*
X168960302Y-58945034D01*
X168938114Y-58920649D01*
X168797666Y-58766298D01*
X168797664Y-58766296D01*
X168794188Y-58762476D01*
X168790137Y-58759277D01*
X168790133Y-58759273D01*
X168604545Y-58612706D01*
X168600487Y-58609501D01*
X168384403Y-58490216D01*
X168171243Y-58414732D01*
X168156607Y-58409549D01*
X168156605Y-58409548D01*
X168151738Y-58407825D01*
X168030240Y-58386183D01*
X167913829Y-58365446D01*
X167913825Y-58365446D01*
X167908741Y-58364540D01*
X167829359Y-58363570D01*
X167667107Y-58361588D01*
X167667105Y-58361588D01*
X167661937Y-58361525D01*
X167417954Y-58398859D01*
X167183346Y-58475541D01*
X166964412Y-58589511D01*
X166960279Y-58592614D01*
X166960276Y-58592616D01*
X166933519Y-58612706D01*
X166767032Y-58737708D01*
X166596506Y-58916153D01*
X166457415Y-59120052D01*
X166455239Y-59124741D01*
X166455235Y-59124747D01*
X166355671Y-59339240D01*
X166353494Y-59343931D01*
X166352114Y-59348909D01*
X166352112Y-59348913D01*
X166321440Y-59459515D01*
X166287534Y-59581777D01*
X166283111Y-59623169D01*
X166264924Y-59793350D01*
X166261306Y-59827202D01*
X154766169Y-59827202D01*
X154682081Y-59790814D01*
X154636053Y-59781198D01*
X154487856Y-59750238D01*
X154487851Y-59750237D01*
X154483120Y-59749249D01*
X154478238Y-59748993D01*
X154478129Y-59748987D01*
X154478113Y-59748987D01*
X154476461Y-59748900D01*
X153927200Y-59748900D01*
X153879207Y-59753775D01*
X153782132Y-59763635D01*
X153782130Y-59763635D01*
X153775784Y-59764280D01*
X153581828Y-59825062D01*
X153404056Y-59923603D01*
X153249729Y-60055877D01*
X153245822Y-60060914D01*
X153245820Y-60060916D01*
X153212538Y-60103823D01*
X153125152Y-60216481D01*
X153035413Y-60398855D01*
X153028863Y-60424002D01*
X152992337Y-60484880D01*
X152928695Y-60516347D01*
X152858143Y-60508412D01*
X152803082Y-60463593D01*
X152788682Y-60435749D01*
X152745794Y-60319184D01*
X152741881Y-60308548D01*
X152688345Y-60222202D01*
X152638137Y-60141224D01*
X152638134Y-60141220D01*
X152634774Y-60135801D01*
X152598922Y-60097889D01*
X152499508Y-59992761D01*
X152499507Y-59992760D01*
X152495119Y-59988120D01*
X152328621Y-59871537D01*
X152142081Y-59790814D01*
X152096053Y-59781198D01*
X151947856Y-59750238D01*
X151947851Y-59750237D01*
X151943120Y-59749249D01*
X151938238Y-59748993D01*
X151938129Y-59748987D01*
X151938113Y-59748987D01*
X151936461Y-59748900D01*
X151387200Y-59748900D01*
X151339207Y-59753775D01*
X151242132Y-59763635D01*
X151242130Y-59763635D01*
X151235784Y-59764280D01*
X151041828Y-59825062D01*
X150864056Y-59923603D01*
X150709729Y-60055877D01*
X150705819Y-60060918D01*
X150653936Y-60127804D01*
X150596380Y-60169370D01*
X150525488Y-60173220D01*
X150463768Y-60138132D01*
X150440181Y-60103823D01*
X150437417Y-60097895D01*
X150431931Y-60088393D01*
X150306972Y-59909933D01*
X150299916Y-59901525D01*
X150145875Y-59747484D01*
X150137467Y-59740428D01*
X149959007Y-59615469D01*
X149949511Y-59609986D01*
X149752053Y-59517910D01*
X149741761Y-59514164D01*
X149531312Y-59457775D01*
X149520519Y-59455872D01*
X149366670Y-59442412D01*
X149354876Y-59445875D01*
X149353671Y-59447265D01*
X149352000Y-59454948D01*
X149352000Y-62039285D01*
X149356475Y-62054524D01*
X149357865Y-62055729D01*
X149362553Y-62056748D01*
X149520519Y-62042928D01*
X149531312Y-62041025D01*
X149741761Y-61984636D01*
X149752053Y-61980890D01*
X149949511Y-61888814D01*
X149959007Y-61883331D01*
X150137467Y-61758372D01*
X150145875Y-61751316D01*
X150299916Y-61597275D01*
X150306972Y-61588867D01*
X150431931Y-61410407D01*
X150437414Y-61400911D01*
X150438209Y-61399205D01*
X150438759Y-61398580D01*
X150440164Y-61396147D01*
X150440653Y-61396429D01*
X150485126Y-61345920D01*
X150553404Y-61326459D01*
X150621364Y-61347001D01*
X150643952Y-61365882D01*
X150776492Y-61506039D01*
X150780881Y-61510680D01*
X150947379Y-61627263D01*
X151133919Y-61707986D01*
X151142569Y-61709793D01*
X151328144Y-61748562D01*
X151328149Y-61748563D01*
X151332880Y-61749551D01*
X151337762Y-61749807D01*
X151337871Y-61749813D01*
X151337887Y-61749813D01*
X151339539Y-61749900D01*
X151888800Y-61749900D01*
X151936793Y-61745025D01*
X152033868Y-61735165D01*
X152033870Y-61735165D01*
X152040216Y-61734520D01*
X152234172Y-61673738D01*
X152411944Y-61575197D01*
X152566271Y-61442923D01*
X152602336Y-61396429D01*
X152648254Y-61337231D01*
X152690848Y-61282319D01*
X152780587Y-61099945D01*
X152787137Y-61074798D01*
X152823663Y-61013920D01*
X152887305Y-60982453D01*
X152957857Y-60990388D01*
X153012918Y-61035207D01*
X153027318Y-61063051D01*
X153074119Y-61190252D01*
X153077479Y-61195672D01*
X153077480Y-61195673D01*
X153177863Y-61357576D01*
X153177866Y-61357580D01*
X153181226Y-61362999D01*
X153185612Y-61367637D01*
X153226058Y-61410407D01*
X153320881Y-61510680D01*
X153487379Y-61627263D01*
X153493237Y-61629798D01*
X153493241Y-61629800D01*
X153559910Y-61658650D01*
X153614485Y-61704060D01*
X153635870Y-61774287D01*
X153635870Y-63096253D01*
X153615868Y-63164374D01*
X153598965Y-63185348D01*
X153355348Y-63428965D01*
X153293036Y-63462991D01*
X153266253Y-63465870D01*
X150890800Y-63465870D01*
X150885523Y-63465759D01*
X150824501Y-63463201D01*
X150808309Y-63466999D01*
X150782867Y-63472966D01*
X150771195Y-63475129D01*
X150756438Y-63477151D01*
X150728840Y-63480931D01*
X150720966Y-63484338D01*
X150720960Y-63484340D01*
X150715401Y-63486746D01*
X150694141Y-63493777D01*
X150679891Y-63497120D01*
X150672368Y-63501256D01*
X150672365Y-63501257D01*
X150642414Y-63517723D01*
X150631757Y-63522944D01*
X150592522Y-63539922D01*
X150585849Y-63545326D01*
X150581151Y-63549130D01*
X150562561Y-63561622D01*
X150549729Y-63568676D01*
X150541739Y-63575573D01*
X150517648Y-63599664D01*
X150507848Y-63608489D01*
X150477089Y-63633397D01*
X150472115Y-63640396D01*
X150472114Y-63640397D01*
X150466453Y-63648363D01*
X150452844Y-63664468D01*
X149995143Y-64122170D01*
X149991333Y-64125824D01*
X149946354Y-64167184D01*
X149941828Y-64174483D01*
X149941826Y-64174486D01*
X149923819Y-64203529D01*
X149917105Y-64213299D01*
X149891248Y-64247364D01*
X149888085Y-64255354D01*
X149885861Y-64260971D01*
X149875796Y-64280983D01*
X149872608Y-64286124D01*
X149872607Y-64286127D01*
X149868083Y-64293423D01*
X149856151Y-64334493D01*
X149852306Y-64345721D01*
X149840477Y-64375600D01*
X149836570Y-64385468D01*
X149835672Y-64394008D01*
X149835671Y-64394013D01*
X149835039Y-64400022D01*
X149830729Y-64421994D01*
X149826643Y-64436059D01*
X149825870Y-64446586D01*
X149825870Y-64480659D01*
X149825180Y-64493828D01*
X149821043Y-64533188D01*
X149822475Y-64541654D01*
X149822475Y-64541657D01*
X149824106Y-64551299D01*
X149825870Y-64572311D01*
X149825870Y-66177486D01*
X149805868Y-66245607D01*
X149760956Y-66287688D01*
X149692562Y-66325600D01*
X149594056Y-66380203D01*
X149439729Y-66512477D01*
X149435819Y-66517518D01*
X149383936Y-66584404D01*
X149326380Y-66625970D01*
X149255488Y-66629820D01*
X149193768Y-66594732D01*
X149170181Y-66560423D01*
X149167417Y-66554495D01*
X149161931Y-66544993D01*
X149036972Y-66366533D01*
X149029916Y-66358125D01*
X148875875Y-66204084D01*
X148867467Y-66197028D01*
X148689007Y-66072069D01*
X148679511Y-66066586D01*
X148482053Y-65974510D01*
X148471761Y-65970764D01*
X148261312Y-65914375D01*
X148250519Y-65912472D01*
X148096670Y-65899012D01*
X148084876Y-65902475D01*
X148083671Y-65903865D01*
X148082000Y-65911548D01*
X148082000Y-68495885D01*
X148086475Y-68511124D01*
X148087865Y-68512329D01*
X148092553Y-68513348D01*
X148250519Y-68499528D01*
X148261312Y-68497625D01*
X148471761Y-68441236D01*
X148482053Y-68437490D01*
X148679511Y-68345414D01*
X148689007Y-68339931D01*
X148867467Y-68214972D01*
X148875875Y-68207916D01*
X149029916Y-68053875D01*
X149036972Y-68045467D01*
X149161931Y-67867007D01*
X149167414Y-67857511D01*
X149168209Y-67855805D01*
X149168759Y-67855180D01*
X149170164Y-67852747D01*
X149170653Y-67853029D01*
X149215126Y-67802520D01*
X149283404Y-67783059D01*
X149351364Y-67803601D01*
X149373952Y-67822482D01*
X149506492Y-67962639D01*
X149510881Y-67967280D01*
X149677379Y-68083863D01*
X149683237Y-68086398D01*
X149683241Y-68086400D01*
X149749910Y-68115250D01*
X149804485Y-68160660D01*
X149825870Y-68230887D01*
X149825870Y-72610870D01*
X149805868Y-72678991D01*
X149752212Y-72725484D01*
X149699870Y-72736870D01*
X142127800Y-72736870D01*
X142122523Y-72736759D01*
X142061501Y-72734201D01*
X142044555Y-72738176D01*
X142019867Y-72743966D01*
X142008195Y-72746129D01*
X141993438Y-72748151D01*
X141965840Y-72751931D01*
X141957966Y-72755338D01*
X141957960Y-72755340D01*
X141952401Y-72757746D01*
X141931141Y-72764777D01*
X141916891Y-72768120D01*
X141879412Y-72788724D01*
X141868766Y-72793939D01*
X141837405Y-72807510D01*
X141837401Y-72807512D01*
X141829522Y-72810922D01*
X141822845Y-72816328D01*
X141822846Y-72816328D01*
X141818153Y-72820128D01*
X141799562Y-72832621D01*
X141786730Y-72839676D01*
X141778739Y-72846573D01*
X141754648Y-72870664D01*
X141744847Y-72879490D01*
X141720763Y-72898992D01*
X141720761Y-72898994D01*
X141714089Y-72904397D01*
X141709116Y-72911395D01*
X141709111Y-72911400D01*
X141703449Y-72919368D01*
X141689838Y-72935474D01*
X137610143Y-77015170D01*
X137606334Y-77018823D01*
X137561354Y-77060184D01*
X137556831Y-77067479D01*
X137556826Y-77067485D01*
X137538819Y-77096529D01*
X137532105Y-77106299D01*
X137506248Y-77140364D01*
X137503085Y-77148354D01*
X137500861Y-77153971D01*
X137490796Y-77173983D01*
X137487608Y-77179124D01*
X137487607Y-77179127D01*
X137483083Y-77186423D01*
X137471151Y-77227493D01*
X137467306Y-77238721D01*
X137454732Y-77270481D01*
X137451570Y-77278468D01*
X137450672Y-77287008D01*
X137450671Y-77287013D01*
X137450039Y-77293022D01*
X137445729Y-77314994D01*
X137441643Y-77329059D01*
X137440870Y-77339586D01*
X137440870Y-77373659D01*
X137440180Y-77386828D01*
X137436043Y-77426188D01*
X137437475Y-77434654D01*
X137437475Y-77434657D01*
X137439106Y-77444299D01*
X137440870Y-77465311D01*
X137440870Y-80915500D01*
X137420868Y-80983621D01*
X137367212Y-81030114D01*
X137314870Y-81041500D01*
X137163252Y-81041500D01*
X137157184Y-81042707D01*
X137116939Y-81050712D01*
X137116938Y-81050712D01*
X137104769Y-81053133D01*
X137038448Y-81097448D01*
X136994133Y-81163769D01*
X136991712Y-81175938D01*
X136991712Y-81175939D01*
X136987686Y-81196180D01*
X136982500Y-81222252D01*
X136982500Y-81627420D01*
X136962498Y-81695541D01*
X136908842Y-81742034D01*
X136838568Y-81752138D01*
X136773988Y-81722644D01*
X136734793Y-81660031D01*
X136718236Y-81598239D01*
X136714490Y-81587947D01*
X136622414Y-81390489D01*
X136616931Y-81380994D01*
X136580491Y-81328952D01*
X136570012Y-81320576D01*
X136556566Y-81327644D01*
X135855022Y-82029188D01*
X135847408Y-82043132D01*
X135117356Y-82043132D01*
X135118592Y-82040868D01*
X135118461Y-82039035D01*
X135114210Y-82032420D01*
X134408713Y-81326923D01*
X134396938Y-81320493D01*
X134384923Y-81329789D01*
X134349069Y-81380994D01*
X134343586Y-81390489D01*
X134251510Y-81587947D01*
X134247764Y-81598239D01*
X134191375Y-81808688D01*
X134189472Y-81819481D01*
X134170483Y-82036525D01*
X134170483Y-82047475D01*
X133224000Y-82047475D01*
X133224000Y-80954988D01*
X134761576Y-80954988D01*
X134768644Y-80968434D01*
X135470188Y-81669978D01*
X135484132Y-81677592D01*
X135485965Y-81677461D01*
X135492580Y-81673210D01*
X136198077Y-80967713D01*
X136204507Y-80955938D01*
X136195211Y-80943923D01*
X136144006Y-80908069D01*
X136134511Y-80902586D01*
X135937053Y-80810510D01*
X135926761Y-80806764D01*
X135716312Y-80750375D01*
X135705519Y-80748472D01*
X135488475Y-80729483D01*
X135477525Y-80729483D01*
X135260481Y-80748472D01*
X135249688Y-80750375D01*
X135039239Y-80806764D01*
X135028947Y-80810510D01*
X134831489Y-80902586D01*
X134821994Y-80908069D01*
X134769952Y-80944509D01*
X134761576Y-80954988D01*
X133224000Y-80954988D01*
X133224000Y-67472522D01*
X146345273Y-67472522D01*
X146392764Y-67649761D01*
X146396510Y-67660053D01*
X146488586Y-67857511D01*
X146494069Y-67867007D01*
X146619028Y-68045467D01*
X146626084Y-68053875D01*
X146780125Y-68207916D01*
X146788533Y-68214972D01*
X146966993Y-68339931D01*
X146976489Y-68345414D01*
X147173947Y-68437490D01*
X147184239Y-68441236D01*
X147394688Y-68497625D01*
X147405481Y-68499528D01*
X147559330Y-68512988D01*
X147571124Y-68509525D01*
X147572329Y-68508135D01*
X147574000Y-68500452D01*
X147574000Y-67478115D01*
X147569525Y-67462876D01*
X147568135Y-67461671D01*
X147560452Y-67460000D01*
X146360033Y-67460000D01*
X146346502Y-67463973D01*
X146345273Y-67472522D01*
X133224000Y-67472522D01*
X133224000Y-66934503D01*
X146346606Y-66934503D01*
X146346942Y-66948599D01*
X146354884Y-66952000D01*
X147555885Y-66952000D01*
X147571124Y-66947525D01*
X147572329Y-66946135D01*
X147574000Y-66938452D01*
X147574000Y-65916115D01*
X147569525Y-65900876D01*
X147568135Y-65899671D01*
X147563447Y-65898652D01*
X147405481Y-65912472D01*
X147394688Y-65914375D01*
X147184239Y-65970764D01*
X147173947Y-65974510D01*
X146976489Y-66066586D01*
X146966993Y-66072069D01*
X146788533Y-66197028D01*
X146780125Y-66204084D01*
X146626084Y-66358125D01*
X146619028Y-66366533D01*
X146494069Y-66544993D01*
X146488586Y-66554489D01*
X146396510Y-66751947D01*
X146392764Y-66762239D01*
X146346606Y-66934503D01*
X133224000Y-66934503D01*
X133224000Y-61015922D01*
X147615273Y-61015922D01*
X147662764Y-61193161D01*
X147666510Y-61203453D01*
X147758586Y-61400911D01*
X147764069Y-61410407D01*
X147889028Y-61588867D01*
X147896084Y-61597275D01*
X148050125Y-61751316D01*
X148058533Y-61758372D01*
X148236993Y-61883331D01*
X148246489Y-61888814D01*
X148443947Y-61980890D01*
X148454239Y-61984636D01*
X148664688Y-62041025D01*
X148675481Y-62042928D01*
X148829330Y-62056388D01*
X148841124Y-62052925D01*
X148842329Y-62051535D01*
X148844000Y-62043852D01*
X148844000Y-61021515D01*
X148839525Y-61006276D01*
X148838135Y-61005071D01*
X148830452Y-61003400D01*
X147630033Y-61003400D01*
X147616502Y-61007373D01*
X147615273Y-61015922D01*
X133224000Y-61015922D01*
X133224000Y-60477903D01*
X147616606Y-60477903D01*
X147616942Y-60491999D01*
X147624884Y-60495400D01*
X148825885Y-60495400D01*
X148841124Y-60490925D01*
X148842329Y-60489535D01*
X148844000Y-60481852D01*
X148844000Y-59459515D01*
X148839525Y-59444276D01*
X148838135Y-59443071D01*
X148833447Y-59442052D01*
X148675481Y-59455872D01*
X148664688Y-59457775D01*
X148454239Y-59514164D01*
X148443947Y-59517910D01*
X148246489Y-59609986D01*
X148236993Y-59615469D01*
X148058533Y-59740428D01*
X148050125Y-59747484D01*
X147896084Y-59901525D01*
X147889028Y-59909933D01*
X147764069Y-60088393D01*
X147758586Y-60097889D01*
X147666510Y-60295347D01*
X147662764Y-60305639D01*
X147616606Y-60477903D01*
X133224000Y-60477903D01*
X133224000Y-57658000D01*
X133244002Y-57589879D01*
X133297658Y-57543386D01*
X133350000Y-57532000D01*
X169926000Y-57532000D01*
X169994121Y-57552002D01*
G37*
%TD.AperFunction*%
%TD*%
M02*
