%TF.GenerationSoftware,KiCad,Pcbnew,(6.0.4)*%
%TF.CreationDate,2022-08-05T18:27:13+05:30*%
%TF.ProjectId,led_web,6c65645f-7765-4622-9e6b-696361645f70,v1*%
%TF.SameCoordinates,Original*%
%TF.FileFunction,Legend,Bot*%
%TF.FilePolarity,Positive*%
%FSLAX46Y46*%
G04 Gerber Fmt 4.6, Leading zero omitted, Abs format (unit mm)*
G04 Created by KiCad (PCBNEW (6.0.4)) date 2022-08-05 18:27:13*
%MOMM*%
%LPD*%
G01*
G04 APERTURE LIST*
%ADD10C,0.150000*%
%ADD11C,0.127000*%
%ADD12C,0.120000*%
G04 APERTURE END LIST*
D10*
%TO.C,C1*%
X136564666Y-78716142D02*
X136612285Y-78763761D01*
X136755142Y-78811380D01*
X136850380Y-78811380D01*
X136993238Y-78763761D01*
X137088476Y-78668523D01*
X137136095Y-78573285D01*
X137183714Y-78382809D01*
X137183714Y-78239952D01*
X137136095Y-78049476D01*
X137088476Y-77954238D01*
X136993238Y-77859000D01*
X136850380Y-77811380D01*
X136755142Y-77811380D01*
X136612285Y-77859000D01*
X136564666Y-77906619D01*
X135612285Y-78811380D02*
X136183714Y-78811380D01*
X135898000Y-78811380D02*
X135898000Y-77811380D01*
X135993238Y-77954238D01*
X136088476Y-78049476D01*
X136183714Y-78097095D01*
%TO.C,L1*%
X151471333Y-62811619D02*
X150995142Y-62811619D01*
X150995142Y-63811619D01*
X152328476Y-62811619D02*
X151757047Y-62811619D01*
X152042761Y-62811619D02*
X152042761Y-63811619D01*
X151947523Y-63668761D01*
X151852285Y-63573523D01*
X151757047Y-63525904D01*
D11*
X153500666Y-59097190D02*
X153670000Y-58589190D01*
X153839333Y-59097190D01*
X154298952Y-58637571D02*
X154274761Y-58613380D01*
X154202190Y-58589190D01*
X154153809Y-58589190D01*
X154081238Y-58613380D01*
X154032857Y-58661761D01*
X154008666Y-58710142D01*
X153984476Y-58806904D01*
X153984476Y-58879476D01*
X154008666Y-58976238D01*
X154032857Y-59024619D01*
X154081238Y-59073000D01*
X154153809Y-59097190D01*
X154202190Y-59097190D01*
X154274761Y-59073000D01*
X154298952Y-59048809D01*
X154806952Y-58637571D02*
X154782761Y-58613380D01*
X154710190Y-58589190D01*
X154661809Y-58589190D01*
X154589238Y-58613380D01*
X154540857Y-58661761D01*
X154516666Y-58710142D01*
X154492476Y-58806904D01*
X154492476Y-58879476D01*
X154516666Y-58976238D01*
X154540857Y-59024619D01*
X154589238Y-59073000D01*
X154661809Y-59097190D01*
X154710190Y-59097190D01*
X154782761Y-59073000D01*
X154806952Y-59048809D01*
X150876000Y-58589190D02*
X150876000Y-59097190D01*
X150996952Y-59097190D01*
X151069523Y-59073000D01*
X151117904Y-59024619D01*
X151142095Y-58976238D01*
X151166285Y-58879476D01*
X151166285Y-58806904D01*
X151142095Y-58710142D01*
X151117904Y-58661761D01*
X151069523Y-58613380D01*
X150996952Y-58589190D01*
X150876000Y-58589190D01*
X151359809Y-58734333D02*
X151601714Y-58734333D01*
X151311428Y-58589190D02*
X151480761Y-59097190D01*
X151650095Y-58589190D01*
X151746857Y-59097190D02*
X152037142Y-59097190D01*
X151892000Y-58589190D02*
X151892000Y-59097190D01*
X152182285Y-58734333D02*
X152424190Y-58734333D01*
X152133904Y-58589190D02*
X152303238Y-59097190D01*
X152472571Y-58589190D01*
X148710952Y-59073000D02*
X148662571Y-59097190D01*
X148590000Y-59097190D01*
X148517428Y-59073000D01*
X148469047Y-59024619D01*
X148444857Y-58976238D01*
X148420666Y-58879476D01*
X148420666Y-58806904D01*
X148444857Y-58710142D01*
X148469047Y-58661761D01*
X148517428Y-58613380D01*
X148590000Y-58589190D01*
X148638380Y-58589190D01*
X148710952Y-58613380D01*
X148735142Y-58637571D01*
X148735142Y-58806904D01*
X148638380Y-58806904D01*
X148952857Y-58589190D02*
X148952857Y-59097190D01*
X149243142Y-58589190D01*
X149243142Y-59097190D01*
X149485047Y-58589190D02*
X149485047Y-59097190D01*
X149606000Y-59097190D01*
X149678571Y-59073000D01*
X149726952Y-59024619D01*
X149751142Y-58976238D01*
X149775333Y-58879476D01*
X149775333Y-58806904D01*
X149751142Y-58710142D01*
X149726952Y-58661761D01*
X149678571Y-58613380D01*
X149606000Y-58589190D01*
X149485047Y-58589190D01*
D10*
%TO.C,U3*%
X163067904Y-70826380D02*
X163067904Y-71635904D01*
X163020285Y-71731142D01*
X162972666Y-71778761D01*
X162877428Y-71826380D01*
X162686952Y-71826380D01*
X162591714Y-71778761D01*
X162544095Y-71731142D01*
X162496476Y-71635904D01*
X162496476Y-70826380D01*
X162115523Y-70826380D02*
X161496476Y-70826380D01*
X161829809Y-71207333D01*
X161686952Y-71207333D01*
X161591714Y-71254952D01*
X161544095Y-71302571D01*
X161496476Y-71397809D01*
X161496476Y-71635904D01*
X161544095Y-71731142D01*
X161591714Y-71778761D01*
X161686952Y-71826380D01*
X161972666Y-71826380D01*
X162067904Y-71778761D01*
X162115523Y-71731142D01*
D11*
X158514000Y-78111047D02*
X158538190Y-78159428D01*
X158538190Y-78232000D01*
X158514000Y-78304571D01*
X158465619Y-78352952D01*
X158417238Y-78377142D01*
X158320476Y-78401333D01*
X158247904Y-78401333D01*
X158151142Y-78377142D01*
X158102761Y-78352952D01*
X158054380Y-78304571D01*
X158030190Y-78232000D01*
X158030190Y-78183619D01*
X158054380Y-78111047D01*
X158078571Y-78086857D01*
X158247904Y-78086857D01*
X158247904Y-78183619D01*
X158030190Y-77869142D02*
X158538190Y-77869142D01*
X158030190Y-77578857D01*
X158538190Y-77578857D01*
X158030190Y-77336952D02*
X158538190Y-77336952D01*
X158538190Y-77216000D01*
X158514000Y-77143428D01*
X158465619Y-77095047D01*
X158417238Y-77070857D01*
X158320476Y-77046666D01*
X158247904Y-77046666D01*
X158151142Y-77070857D01*
X158102761Y-77095047D01*
X158054380Y-77143428D01*
X158030190Y-77216000D01*
X158030190Y-77336952D01*
X161568190Y-75861333D02*
X161060190Y-75692000D01*
X161568190Y-75522666D01*
X161108571Y-75063047D02*
X161084380Y-75087238D01*
X161060190Y-75159809D01*
X161060190Y-75208190D01*
X161084380Y-75280761D01*
X161132761Y-75329142D01*
X161181142Y-75353333D01*
X161277904Y-75377523D01*
X161350476Y-75377523D01*
X161447238Y-75353333D01*
X161495619Y-75329142D01*
X161544000Y-75280761D01*
X161568190Y-75208190D01*
X161568190Y-75159809D01*
X161544000Y-75087238D01*
X161519809Y-75063047D01*
X161108571Y-74555047D02*
X161084380Y-74579238D01*
X161060190Y-74651809D01*
X161060190Y-74700190D01*
X161084380Y-74772761D01*
X161132761Y-74821142D01*
X161181142Y-74845333D01*
X161277904Y-74869523D01*
X161350476Y-74869523D01*
X161447238Y-74845333D01*
X161495619Y-74821142D01*
X161544000Y-74772761D01*
X161568190Y-74700190D01*
X161568190Y-74651809D01*
X161544000Y-74579238D01*
X161519809Y-74555047D01*
X158538190Y-80772000D02*
X158538190Y-80675238D01*
X158514000Y-80626857D01*
X158465619Y-80578476D01*
X158368857Y-80554285D01*
X158199523Y-80554285D01*
X158102761Y-80578476D01*
X158054380Y-80626857D01*
X158030190Y-80675238D01*
X158030190Y-80772000D01*
X158054380Y-80820380D01*
X158102761Y-80868761D01*
X158199523Y-80892952D01*
X158368857Y-80892952D01*
X158465619Y-80868761D01*
X158514000Y-80820380D01*
X158538190Y-80772000D01*
X158538190Y-80336571D02*
X158126952Y-80336571D01*
X158078571Y-80312380D01*
X158054380Y-80288190D01*
X158030190Y-80239809D01*
X158030190Y-80143047D01*
X158054380Y-80094666D01*
X158078571Y-80070476D01*
X158126952Y-80046285D01*
X158538190Y-80046285D01*
X158538190Y-79876952D02*
X158538190Y-79586666D01*
X158030190Y-79731809D02*
X158538190Y-79731809D01*
D10*
%TO.C,RV1*%
X168108238Y-77541380D02*
X168441571Y-77065190D01*
X168679666Y-77541380D02*
X168679666Y-76541380D01*
X168298714Y-76541380D01*
X168203476Y-76589000D01*
X168155857Y-76636619D01*
X168108238Y-76731857D01*
X168108238Y-76874714D01*
X168155857Y-76969952D01*
X168203476Y-77017571D01*
X168298714Y-77065190D01*
X168679666Y-77065190D01*
X167822523Y-76541380D02*
X167489190Y-77541380D01*
X167155857Y-76541380D01*
X166298714Y-77541380D02*
X166870142Y-77541380D01*
X166584428Y-77541380D02*
X166584428Y-76541380D01*
X166679666Y-76684238D01*
X166774904Y-76779476D01*
X166870142Y-76827095D01*
%TO.C,U2*%
X135889904Y-84923380D02*
X135889904Y-85732904D01*
X135842285Y-85828142D01*
X135794666Y-85875761D01*
X135699428Y-85923380D01*
X135508952Y-85923380D01*
X135413714Y-85875761D01*
X135366095Y-85828142D01*
X135318476Y-85732904D01*
X135318476Y-84923380D01*
X134889904Y-85018619D02*
X134842285Y-84971000D01*
X134747047Y-84923380D01*
X134508952Y-84923380D01*
X134413714Y-84971000D01*
X134366095Y-85018619D01*
X134318476Y-85113857D01*
X134318476Y-85209095D01*
X134366095Y-85351952D01*
X134937523Y-85923380D01*
X134318476Y-85923380D01*
D12*
%TO.C,C1*%
X136373000Y-83082000D02*
X136373000Y-84598000D01*
X134492000Y-83082000D02*
X134492000Y-83361000D01*
X136173000Y-83082000D02*
X136173000Y-84562000D01*
X135052000Y-80071000D02*
X135052000Y-81002000D01*
X136493000Y-83082000D02*
X136493000Y-84611000D01*
X135532000Y-83082000D02*
X135532000Y-84332000D01*
X135372000Y-79842000D02*
X135372000Y-81002000D01*
X134572000Y-80599000D02*
X134572000Y-81002000D01*
X136213000Y-79514000D02*
X136213000Y-81002000D01*
X136293000Y-79499000D02*
X136293000Y-81002000D01*
X136293000Y-83082000D02*
X136293000Y-84585000D01*
X134772000Y-80343000D02*
X134772000Y-81002000D01*
X135212000Y-83082000D02*
X135212000Y-84137000D01*
X135692000Y-79677000D02*
X135692000Y-81002000D01*
X135972000Y-79574000D02*
X135972000Y-81002000D01*
X136653000Y-79463000D02*
X136653000Y-84621000D01*
X135132000Y-80007000D02*
X135132000Y-81002000D01*
X136133000Y-83082000D02*
X136133000Y-84553000D01*
X136012000Y-83082000D02*
X136012000Y-84522000D01*
X136053000Y-79551000D02*
X136053000Y-81002000D01*
X135452000Y-79795000D02*
X135452000Y-81002000D01*
X135852000Y-79614000D02*
X135852000Y-81002000D01*
X136413000Y-83082000D02*
X136413000Y-84603000D01*
X136253000Y-79506000D02*
X136253000Y-81002000D01*
X134572000Y-83082000D02*
X134572000Y-83485000D01*
X134332000Y-81031000D02*
X134332000Y-83053000D01*
X136613000Y-79464000D02*
X136613000Y-84620000D01*
X135292000Y-83082000D02*
X135292000Y-84191000D01*
X136253000Y-83082000D02*
X136253000Y-84578000D01*
X134852000Y-83082000D02*
X134852000Y-83827000D01*
X134932000Y-80178000D02*
X134932000Y-81002000D01*
X135092000Y-80038000D02*
X135092000Y-81002000D01*
X134972000Y-80141000D02*
X134972000Y-81002000D01*
X134932000Y-83082000D02*
X134932000Y-83906000D01*
X136333000Y-79492000D02*
X136333000Y-81002000D01*
X136373000Y-79486000D02*
X136373000Y-81002000D01*
X135212000Y-79947000D02*
X135212000Y-81002000D01*
X135172000Y-83082000D02*
X135172000Y-84107000D01*
X134452000Y-80791000D02*
X134452000Y-81002000D01*
X135732000Y-83082000D02*
X135732000Y-84424000D01*
X135652000Y-79694000D02*
X135652000Y-81002000D01*
X136012000Y-79562000D02*
X136012000Y-81002000D01*
X134692000Y-83082000D02*
X134692000Y-83647000D01*
X135412000Y-83082000D02*
X135412000Y-84266000D01*
X134692000Y-80437000D02*
X134692000Y-81002000D01*
X136693000Y-79462000D02*
X136693000Y-84622000D01*
X135292000Y-79893000D02*
X135292000Y-81002000D01*
X136733000Y-79462000D02*
X136733000Y-84622000D01*
X135972000Y-83082000D02*
X135972000Y-84510000D01*
X136173000Y-79522000D02*
X136173000Y-81002000D01*
X135852000Y-83082000D02*
X135852000Y-84470000D01*
X135612000Y-79713000D02*
X135612000Y-81002000D01*
X134612000Y-83082000D02*
X134612000Y-83542000D01*
X136093000Y-83082000D02*
X136093000Y-84543000D01*
X135612000Y-83082000D02*
X135612000Y-84371000D01*
X134532000Y-83082000D02*
X134532000Y-83425000D01*
X135772000Y-83082000D02*
X135772000Y-84440000D01*
X136453000Y-83082000D02*
X136453000Y-84607000D01*
X135492000Y-79774000D02*
X135492000Y-81002000D01*
X136413000Y-79481000D02*
X136413000Y-81002000D01*
X135332000Y-83082000D02*
X135332000Y-84217000D01*
X135252000Y-79920000D02*
X135252000Y-81002000D01*
X135372000Y-83082000D02*
X135372000Y-84242000D01*
X134412000Y-80864000D02*
X134412000Y-83220000D01*
X135812000Y-79628000D02*
X135812000Y-81002000D01*
X135812000Y-83082000D02*
X135812000Y-84456000D01*
X139537775Y-80567000D02*
X139037775Y-80567000D01*
X135452000Y-83082000D02*
X135452000Y-84289000D01*
X135652000Y-83082000D02*
X135652000Y-84390000D01*
X134892000Y-80216000D02*
X134892000Y-81002000D01*
X134532000Y-80659000D02*
X134532000Y-81002000D01*
X135532000Y-79752000D02*
X135532000Y-81002000D01*
X135132000Y-83082000D02*
X135132000Y-84077000D01*
X135772000Y-79644000D02*
X135772000Y-81002000D01*
X134652000Y-80488000D02*
X134652000Y-81002000D01*
X134132000Y-81758000D02*
X134132000Y-82326000D01*
X134212000Y-81365000D02*
X134212000Y-82719000D01*
X135012000Y-80105000D02*
X135012000Y-81002000D01*
X136333000Y-83082000D02*
X136333000Y-84592000D01*
X136493000Y-79473000D02*
X136493000Y-81002000D01*
X135412000Y-79818000D02*
X135412000Y-81002000D01*
X134292000Y-81127000D02*
X134292000Y-82957000D01*
X136133000Y-79531000D02*
X136133000Y-81002000D01*
X136533000Y-79469000D02*
X136533000Y-84615000D01*
X136213000Y-83082000D02*
X136213000Y-84570000D01*
X135892000Y-83082000D02*
X135892000Y-84484000D01*
X135572000Y-79732000D02*
X135572000Y-81002000D01*
X134492000Y-80723000D02*
X134492000Y-81002000D01*
X139287775Y-80317000D02*
X139287775Y-80817000D01*
X134892000Y-83082000D02*
X134892000Y-83868000D01*
X135012000Y-83082000D02*
X135012000Y-83979000D01*
X134172000Y-81524000D02*
X134172000Y-82560000D01*
X135692000Y-83082000D02*
X135692000Y-84407000D01*
X134732000Y-83082000D02*
X134732000Y-83695000D01*
X134252000Y-81237000D02*
X134252000Y-82847000D01*
X134372000Y-80944000D02*
X134372000Y-83140000D01*
X135052000Y-83082000D02*
X135052000Y-84013000D01*
X135932000Y-83082000D02*
X135932000Y-84497000D01*
X134452000Y-83082000D02*
X134452000Y-83293000D01*
X134972000Y-83082000D02*
X134972000Y-83943000D01*
X136453000Y-79477000D02*
X136453000Y-81002000D01*
X136573000Y-79466000D02*
X136573000Y-84618000D01*
X135732000Y-79660000D02*
X135732000Y-81002000D01*
X134652000Y-83082000D02*
X134652000Y-83596000D01*
X134812000Y-80299000D02*
X134812000Y-81002000D01*
X134852000Y-80257000D02*
X134852000Y-81002000D01*
X136093000Y-79541000D02*
X136093000Y-81002000D01*
X135572000Y-83082000D02*
X135572000Y-84352000D01*
X135892000Y-79600000D02*
X135892000Y-81002000D01*
X135332000Y-79867000D02*
X135332000Y-81002000D01*
X135492000Y-83082000D02*
X135492000Y-84310000D01*
X135252000Y-83082000D02*
X135252000Y-84164000D01*
X134732000Y-80389000D02*
X134732000Y-81002000D01*
X134812000Y-83082000D02*
X134812000Y-83785000D01*
X134612000Y-80542000D02*
X134612000Y-81002000D01*
X136053000Y-83082000D02*
X136053000Y-84533000D01*
X135092000Y-83082000D02*
X135092000Y-84046000D01*
X135932000Y-79587000D02*
X135932000Y-81002000D01*
X134772000Y-83082000D02*
X134772000Y-83741000D01*
X135172000Y-79977000D02*
X135172000Y-81002000D01*
X139353000Y-82042000D02*
G75*
G03*
X139353000Y-82042000I-2620000J0D01*
G01*
%TO.C,RV1*%
X162085000Y-84490000D02*
X162285000Y-84490000D01*
X162085000Y-83070000D02*
X162085000Y-84490000D01*
X169305000Y-80770000D02*
X169305000Y-79280000D01*
X169305000Y-83280000D02*
X169305000Y-81790000D01*
X162085000Y-78070000D02*
X162085000Y-79490000D01*
X167995000Y-77970000D02*
X164455000Y-77970000D01*
X162085000Y-78070000D02*
X162285000Y-78070000D01*
X162285000Y-84490000D02*
X162285000Y-84590000D01*
X162285000Y-79490000D02*
X162085000Y-79490000D01*
X162285000Y-83070000D02*
X162085000Y-83070000D01*
X162285000Y-79490000D02*
X162285000Y-83070000D01*
X162285000Y-78070000D02*
X162285000Y-77970000D01*
X164015000Y-84590000D02*
X167995000Y-84590000D01*
X162285000Y-84590000D02*
X162975000Y-84590000D01*
X162285000Y-77970000D02*
X162535000Y-77970000D01*
X169305000Y-79280000D02*
G75*
G03*
X167995000Y-77970000I-1310000J0D01*
G01*
X167995000Y-84590000D02*
G75*
G03*
X169305000Y-83280000I0J1310000D01*
G01*
%TO.C,U2*%
X141308000Y-109727000D02*
X134408000Y-109727000D01*
X134408000Y-109727000D02*
X134408000Y-86407000D01*
X141308000Y-112267000D02*
X141308000Y-109727000D01*
X141308000Y-112267000D02*
X166738000Y-112267000D01*
X168868000Y-88527000D02*
X168868000Y-110137000D01*
X134408000Y-86407000D02*
X166738000Y-86407000D01*
X166738000Y-112267000D02*
G75*
G03*
X168868000Y-110137000I-2J2130002D01*
G01*
X168868000Y-88537000D02*
G75*
G03*
X166738000Y-86407000I-2130000J0D01*
G01*
G36*
X161163000Y-113307000D02*
G01*
X159893000Y-113307000D01*
X160528000Y-112672000D01*
X161163000Y-113307000D01*
G37*
D10*
X161163000Y-113307000D02*
X159893000Y-113307000D01*
X160528000Y-112672000D01*
X161163000Y-113307000D01*
%TD*%
M02*
