%TF.GenerationSoftware,KiCad,Pcbnew,(6.0.2)*%
%TF.CreationDate,2022-03-14T12:25:25+05:30*%
%TF.ProjectId,led_web,6c65645f-7765-4622-9e6b-696361645f70,v1*%
%TF.SameCoordinates,Original*%
%TF.FileFunction,AssemblyDrawing,Top*%
%FSLAX46Y46*%
G04 Gerber Fmt 4.6, Leading zero omitted, Abs format (unit mm)*
G04 Created by KiCad (PCBNEW (6.0.2)) date 2022-03-14 12:25:25*
%MOMM*%
%LPD*%
G01*
G04 APERTURE LIST*
%ADD10C,0.150000*%
%ADD11C,0.120000*%
%ADD12C,0.100000*%
G04 APERTURE END LIST*
D10*
%TO.C,C1*%
X139578221Y-69572142D02*
X139530602Y-69619761D01*
X139387745Y-69667380D01*
X139292507Y-69667380D01*
X139149649Y-69619761D01*
X139054411Y-69524523D01*
X139006792Y-69429285D01*
X138959173Y-69238809D01*
X138959173Y-69095952D01*
X139006792Y-68905476D01*
X139054411Y-68810238D01*
X139149649Y-68715000D01*
X139292507Y-68667380D01*
X139387745Y-68667380D01*
X139530602Y-68715000D01*
X139578221Y-68762619D01*
X140530602Y-69667380D02*
X139959173Y-69667380D01*
X140244888Y-69667380D02*
X140244888Y-68667380D01*
X140149649Y-68810238D01*
X140054411Y-68905476D01*
X139959173Y-68953095D01*
%TO.C,U2*%
X127358095Y-93907380D02*
X127358095Y-94716904D01*
X127405714Y-94812142D01*
X127453333Y-94859761D01*
X127548571Y-94907380D01*
X127739047Y-94907380D01*
X127834285Y-94859761D01*
X127881904Y-94812142D01*
X127929523Y-94716904D01*
X127929523Y-93907380D01*
X128358095Y-94002619D02*
X128405714Y-93955000D01*
X128500952Y-93907380D01*
X128739047Y-93907380D01*
X128834285Y-93955000D01*
X128881904Y-94002619D01*
X128929523Y-94097857D01*
X128929523Y-94193095D01*
X128881904Y-94335952D01*
X128310476Y-94907380D01*
X128929523Y-94907380D01*
D11*
%TO.C,U3*%
X121920000Y-66040000D02*
X132080000Y-66040000D01*
X121920000Y-63500000D02*
X121920000Y-66040000D01*
X132080000Y-66040000D02*
X132080000Y-63500000D01*
X132080000Y-63500000D02*
X121920000Y-63500000D01*
D12*
%TO.C,C1*%
X137611283Y-68127500D02*
X138111283Y-68127500D01*
X137861283Y-67877500D02*
X137861283Y-68377500D01*
X142244888Y-69215000D02*
G75*
G03*
X142244888Y-69215000I-2500000J0D01*
G01*
D11*
%TO.C,U1*%
X109855000Y-59690000D02*
X109855000Y-62230000D01*
X109855000Y-62230000D02*
X116205000Y-62230000D01*
X116205000Y-59690000D02*
X109855000Y-59690000D01*
X116205000Y-62230000D02*
X116205000Y-59690000D01*
%TO.C,L1*%
X125095000Y-54610000D02*
X131445000Y-54610000D01*
X131445000Y-54610000D02*
X131445000Y-57150000D01*
X131445000Y-57150000D02*
X125095000Y-57150000D01*
X125095000Y-57150000D02*
X125095000Y-54610000D01*
D12*
%TO.C,U2*%
X138920000Y-76245000D02*
X117320000Y-76245000D01*
X117860000Y-110445000D02*
X140920000Y-110445000D01*
X140920000Y-110445000D02*
X140920000Y-78245000D01*
X115320000Y-103545000D02*
X117860000Y-103545000D01*
X115320000Y-85455000D02*
X115320000Y-103545000D01*
X117860000Y-103545000D02*
X117860000Y-110445000D01*
X115320000Y-78245000D02*
X115320000Y-83455000D01*
X115320000Y-85455000D02*
X116320000Y-84455000D01*
X116320000Y-84455000D02*
X115320000Y-83455000D01*
X140920000Y-78265000D02*
G75*
G03*
X138940000Y-76245000I-2000000J20000D01*
G01*
X117320000Y-76245000D02*
G75*
G03*
X115320000Y-78245000I-1J-1999999D01*
G01*
%TD*%
M02*
