M48
; DRILL file {KiCad (6.0.4)} date Fri Aug  5 19:54:19 2022
; FORMAT={-:-/ absolute / metric / decimal}
; #@! TF.CreationDate,2022-08-05T19:54:19+05:30
; #@! TF.GenerationSoftware,Kicad,Pcbnew,(6.0.4)
; #@! TF.FileFunction,Plated,1,2,PTH
FMAT,2
METRIC
; #@! TA.AperFunction,Plated,PTH,ViaDrill
T1C0.400
; #@! TA.AperFunction,Plated,PTH,ComponentDrill
T2C0.800
; #@! TA.AperFunction,Plated,PTH,ComponentDrill
T3C1.000
%
G90
G05
T1
X153.035Y-73.533
T2
X135.483Y-82.042
X137.983Y-82.042
T3
X142.748Y-87.907
X142.748Y-110.767
X145.288Y-87.907
X145.288Y-110.767
X147.828Y-67.206
X147.828Y-87.907
X147.828Y-110.767
X149.098Y-60.749
X150.368Y-67.206
X150.368Y-87.907
X150.368Y-110.767
X151.638Y-60.749
X152.908Y-67.206
X152.908Y-87.907
X152.908Y-110.767
X154.178Y-60.749
X155.448Y-67.206
X155.448Y-87.907
X155.448Y-110.767
X157.988Y-87.907
X157.988Y-110.767
X159.784Y-75.184
X159.784Y-77.724
X159.784Y-80.264
X160.528Y-87.907
X160.528Y-110.767
X163.495Y-78.78
X163.495Y-83.78
X168.495Y-81.28
T0
M30
