%TF.GenerationSoftware,KiCad,Pcbnew,(6.0.4)*%
%TF.CreationDate,2022-08-05T18:27:13+05:30*%
%TF.ProjectId,led_web,6c65645f-7765-4622-9e6b-696361645f70,v1*%
%TF.SameCoordinates,Original*%
%TF.FileFunction,Legend,Top*%
%TF.FilePolarity,Positive*%
%FSLAX46Y46*%
G04 Gerber Fmt 4.6, Leading zero omitted, Abs format (unit mm)*
G04 Created by KiCad (PCBNEW (6.0.4)) date 2022-08-05 18:27:13*
%MOMM*%
%LPD*%
G01*
G04 APERTURE LIST*
%ADD10C,0.300000*%
%ADD11C,0.150000*%
%ADD12C,0.127000*%
G04 APERTURE END LIST*
D10*
X135116571Y-60391571D02*
X134402285Y-60391571D01*
X134402285Y-58891571D01*
X135616571Y-59605857D02*
X136116571Y-59605857D01*
X136330857Y-60391571D02*
X135616571Y-60391571D01*
X135616571Y-58891571D01*
X136330857Y-58891571D01*
X136973714Y-60391571D02*
X136973714Y-58891571D01*
X137330857Y-58891571D01*
X137545142Y-58963000D01*
X137688000Y-59105857D01*
X137759428Y-59248714D01*
X137830857Y-59534428D01*
X137830857Y-59748714D01*
X137759428Y-60034428D01*
X137688000Y-60177285D01*
X137545142Y-60320142D01*
X137330857Y-60391571D01*
X136973714Y-60391571D01*
X138116571Y-60534428D02*
X139259428Y-60534428D01*
X139473714Y-58891571D02*
X139830857Y-60391571D01*
X140116571Y-59320142D01*
X140402285Y-60391571D01*
X140759428Y-58891571D01*
X141330857Y-59605857D02*
X141830857Y-59605857D01*
X142045142Y-60391571D02*
X141330857Y-60391571D01*
X141330857Y-58891571D01*
X142045142Y-58891571D01*
X143188000Y-59605857D02*
X143402285Y-59677285D01*
X143473714Y-59748714D01*
X143545142Y-59891571D01*
X143545142Y-60105857D01*
X143473714Y-60248714D01*
X143402285Y-60320142D01*
X143259428Y-60391571D01*
X142688000Y-60391571D01*
X142688000Y-58891571D01*
X143188000Y-58891571D01*
X143330857Y-58963000D01*
X143402285Y-59034428D01*
X143473714Y-59177285D01*
X143473714Y-59320142D01*
X143402285Y-59463000D01*
X143330857Y-59534428D01*
X143188000Y-59605857D01*
X142688000Y-59605857D01*
D11*
%TO.C,U1*%
X138303095Y-64603380D02*
X138303095Y-65412904D01*
X138350714Y-65508142D01*
X138398333Y-65555761D01*
X138493571Y-65603380D01*
X138684047Y-65603380D01*
X138779285Y-65555761D01*
X138826904Y-65508142D01*
X138874523Y-65412904D01*
X138874523Y-64603380D01*
X139874523Y-65603380D02*
X139303095Y-65603380D01*
X139588809Y-65603380D02*
X139588809Y-64603380D01*
X139493571Y-64746238D01*
X139398333Y-64841476D01*
X139303095Y-64889095D01*
D12*
X152303238Y-68681619D02*
X152375809Y-68705809D01*
X152496761Y-68705809D01*
X152545142Y-68681619D01*
X152569333Y-68657428D01*
X152593523Y-68609047D01*
X152593523Y-68560666D01*
X152569333Y-68512285D01*
X152545142Y-68488095D01*
X152496761Y-68463904D01*
X152400000Y-68439714D01*
X152351619Y-68415523D01*
X152327428Y-68391333D01*
X152303238Y-68342952D01*
X152303238Y-68294571D01*
X152327428Y-68246190D01*
X152351619Y-68222000D01*
X152400000Y-68197809D01*
X152520952Y-68197809D01*
X152593523Y-68222000D01*
X153101523Y-68657428D02*
X153077333Y-68681619D01*
X153004761Y-68705809D01*
X152956380Y-68705809D01*
X152883809Y-68681619D01*
X152835428Y-68633238D01*
X152811238Y-68584857D01*
X152787047Y-68488095D01*
X152787047Y-68415523D01*
X152811238Y-68318761D01*
X152835428Y-68270380D01*
X152883809Y-68222000D01*
X152956380Y-68197809D01*
X153004761Y-68197809D01*
X153077333Y-68222000D01*
X153101523Y-68246190D01*
X153561142Y-68705809D02*
X153319238Y-68705809D01*
X153319238Y-68197809D01*
X147440952Y-68222000D02*
X147392571Y-68197809D01*
X147320000Y-68197809D01*
X147247428Y-68222000D01*
X147199047Y-68270380D01*
X147174857Y-68318761D01*
X147150666Y-68415523D01*
X147150666Y-68488095D01*
X147174857Y-68584857D01*
X147199047Y-68633238D01*
X147247428Y-68681619D01*
X147320000Y-68705809D01*
X147368380Y-68705809D01*
X147440952Y-68681619D01*
X147465142Y-68657428D01*
X147465142Y-68488095D01*
X147368380Y-68488095D01*
X147682857Y-68705809D02*
X147682857Y-68197809D01*
X147973142Y-68705809D01*
X147973142Y-68197809D01*
X148215047Y-68705809D02*
X148215047Y-68197809D01*
X148336000Y-68197809D01*
X148408571Y-68222000D01*
X148456952Y-68270380D01*
X148481142Y-68318761D01*
X148505333Y-68415523D01*
X148505333Y-68488095D01*
X148481142Y-68584857D01*
X148456952Y-68633238D01*
X148408571Y-68681619D01*
X148336000Y-68705809D01*
X148215047Y-68705809D01*
X154831142Y-68681619D02*
X154903714Y-68705809D01*
X155024666Y-68705809D01*
X155073047Y-68681619D01*
X155097238Y-68657428D01*
X155121428Y-68609047D01*
X155121428Y-68560666D01*
X155097238Y-68512285D01*
X155073047Y-68488095D01*
X155024666Y-68463904D01*
X154927904Y-68439714D01*
X154879523Y-68415523D01*
X154855333Y-68391333D01*
X154831142Y-68342952D01*
X154831142Y-68294571D01*
X154855333Y-68246190D01*
X154879523Y-68222000D01*
X154927904Y-68197809D01*
X155048857Y-68197809D01*
X155121428Y-68222000D01*
X155339142Y-68705809D02*
X155339142Y-68197809D01*
X155460095Y-68197809D01*
X155532666Y-68222000D01*
X155581047Y-68270380D01*
X155605238Y-68318761D01*
X155629428Y-68415523D01*
X155629428Y-68488095D01*
X155605238Y-68584857D01*
X155581047Y-68633238D01*
X155532666Y-68681619D01*
X155460095Y-68705809D01*
X155339142Y-68705809D01*
X155822952Y-68560666D02*
X156064857Y-68560666D01*
X155774571Y-68705809D02*
X155943904Y-68197809D01*
X156113238Y-68705809D01*
X149690666Y-68197809D02*
X149860000Y-68705809D01*
X150029333Y-68197809D01*
X150488952Y-68657428D02*
X150464761Y-68681619D01*
X150392190Y-68705809D01*
X150343809Y-68705809D01*
X150271238Y-68681619D01*
X150222857Y-68633238D01*
X150198666Y-68584857D01*
X150174476Y-68488095D01*
X150174476Y-68415523D01*
X150198666Y-68318761D01*
X150222857Y-68270380D01*
X150271238Y-68222000D01*
X150343809Y-68197809D01*
X150392190Y-68197809D01*
X150464761Y-68222000D01*
X150488952Y-68246190D01*
X150996952Y-68657428D02*
X150972761Y-68681619D01*
X150900190Y-68705809D01*
X150851809Y-68705809D01*
X150779238Y-68681619D01*
X150730857Y-68633238D01*
X150706666Y-68584857D01*
X150682476Y-68488095D01*
X150682476Y-68415523D01*
X150706666Y-68318761D01*
X150730857Y-68270380D01*
X150779238Y-68222000D01*
X150851809Y-68197809D01*
X150900190Y-68197809D01*
X150972761Y-68222000D01*
X150996952Y-68246190D01*
%TD*%
M02*
