%TF.GenerationSoftware,KiCad,Pcbnew,(6.0.4)*%
%TF.CreationDate,2022-08-05T18:27:13+05:30*%
%TF.ProjectId,led_web,6c65645f-7765-4622-9e6b-696361645f70,v1*%
%TF.SameCoordinates,Original*%
%TF.FileFunction,AssemblyDrawing,Bot*%
%FSLAX46Y46*%
G04 Gerber Fmt 4.6, Leading zero omitted, Abs format (unit mm)*
G04 Created by KiCad (PCBNEW (6.0.4)) date 2022-08-05 18:27:13*
%MOMM*%
%LPD*%
G01*
G04 APERTURE LIST*
%ADD10C,0.150000*%
%ADD11C,0.100000*%
%ADD12C,0.120000*%
G04 APERTURE END LIST*
D10*
%TO.C,C1*%
X136899666Y-82399142D02*
X136947285Y-82446761D01*
X137090142Y-82494380D01*
X137185380Y-82494380D01*
X137328238Y-82446761D01*
X137423476Y-82351523D01*
X137471095Y-82256285D01*
X137518714Y-82065809D01*
X137518714Y-81922952D01*
X137471095Y-81732476D01*
X137423476Y-81637238D01*
X137328238Y-81542000D01*
X137185380Y-81494380D01*
X137090142Y-81494380D01*
X136947285Y-81542000D01*
X136899666Y-81589619D01*
X135947285Y-82494380D02*
X136518714Y-82494380D01*
X136233000Y-82494380D02*
X136233000Y-81494380D01*
X136328238Y-81637238D01*
X136423476Y-81732476D01*
X136518714Y-81780095D01*
%TO.C,RV1*%
X166447380Y-80684761D02*
X165971190Y-80351428D01*
X166447380Y-80113333D02*
X165447380Y-80113333D01*
X165447380Y-80494285D01*
X165495000Y-80589523D01*
X165542619Y-80637142D01*
X165637857Y-80684761D01*
X165780714Y-80684761D01*
X165875952Y-80637142D01*
X165923571Y-80589523D01*
X165971190Y-80494285D01*
X165971190Y-80113333D01*
X165447380Y-80970476D02*
X166447380Y-81303809D01*
X165447380Y-81637142D01*
X166447380Y-82494285D02*
X166447380Y-81922857D01*
X166447380Y-82208571D02*
X165447380Y-82208571D01*
X165590238Y-82113333D01*
X165685476Y-82018095D01*
X165733095Y-81922857D01*
%TO.C,U2*%
X149980380Y-98575095D02*
X150789904Y-98575095D01*
X150885142Y-98622714D01*
X150932761Y-98670333D01*
X150980380Y-98765571D01*
X150980380Y-98956047D01*
X150932761Y-99051285D01*
X150885142Y-99098904D01*
X150789904Y-99146523D01*
X149980380Y-99146523D01*
X150075619Y-99575095D02*
X150028000Y-99622714D01*
X149980380Y-99717952D01*
X149980380Y-99956047D01*
X150028000Y-100051285D01*
X150075619Y-100098904D01*
X150170857Y-100146523D01*
X150266095Y-100146523D01*
X150408952Y-100098904D01*
X150980380Y-99527476D01*
X150980380Y-100146523D01*
D11*
%TO.C,C1*%
X138616605Y-80704500D02*
X138616605Y-81204500D01*
X138866605Y-80954500D02*
X138366605Y-80954500D01*
X139233000Y-82042000D02*
G75*
G03*
X139233000Y-82042000I-2500000J0D01*
G01*
D12*
%TO.C,L1*%
X147828000Y-61994000D02*
X155448000Y-61994000D01*
X155448000Y-61994000D02*
X155448000Y-59454000D01*
X155448000Y-59454000D02*
X147828000Y-59454000D01*
X147828000Y-59454000D02*
X147828000Y-61994000D01*
%TO.C,U3*%
X161054000Y-70824000D02*
X140254000Y-70824000D01*
X161054000Y-70824000D02*
X161054000Y-84624000D01*
X140254000Y-70824000D02*
X140254000Y-84624000D01*
X161054000Y-84624000D02*
X140254000Y-84624000D01*
D11*
%TO.C,RV1*%
X167995000Y-84480000D02*
X162395000Y-84480000D01*
X167995000Y-78080000D02*
X162395000Y-78080000D01*
X169195000Y-79280000D02*
X169195000Y-83280000D01*
X162395000Y-84480000D02*
X162395000Y-78080000D01*
X162195000Y-84380000D02*
X162195000Y-83190000D01*
X162195000Y-78180000D02*
X162195000Y-79380000D01*
X162195000Y-83180000D02*
X162395000Y-83180000D01*
X162195000Y-79380000D02*
X162395000Y-79380000D01*
X162395000Y-84380000D02*
X162195000Y-84380000D01*
X162395000Y-78180000D02*
X162195000Y-78180000D01*
X167995000Y-84480000D02*
G75*
G03*
X169195000Y-83280000I0J1200000D01*
G01*
X169195000Y-79280000D02*
G75*
G03*
X167995000Y-78080000I-1200000J0D01*
G01*
X168995000Y-81280000D02*
G75*
G03*
X168995000Y-81280000I-3000000J0D01*
G01*
%TO.C,U2*%
X168738000Y-88537000D02*
X168738000Y-110137000D01*
X141438000Y-109597000D02*
X134538000Y-109597000D01*
X159528000Y-112137000D02*
X141438000Y-112137000D01*
X159528000Y-112137000D02*
X160528000Y-111137000D01*
X160528000Y-111137000D02*
X161528000Y-112137000D01*
X166738000Y-112137000D02*
X161528000Y-112137000D01*
X141438000Y-112137000D02*
X141438000Y-109597000D01*
X134538000Y-86537000D02*
X166738000Y-86537000D01*
X134538000Y-109597000D02*
X134538000Y-86537000D01*
X168738000Y-88517000D02*
G75*
G03*
X166718000Y-86537000I-2000000J-20000D01*
G01*
X166738000Y-112137000D02*
G75*
G03*
X168738000Y-110137000I1J1999999D01*
G01*
%TD*%
M02*
