%TF.GenerationSoftware,KiCad,Pcbnew,(6.0.4)*%
%TF.CreationDate,2022-08-05T18:27:13+05:30*%
%TF.ProjectId,led_web,6c65645f-7765-4622-9e6b-696361645f70,v1*%
%TF.SameCoordinates,Original*%
%TF.FileFunction,Copper,L1,Top*%
%TF.FilePolarity,Positive*%
%FSLAX46Y46*%
G04 Gerber Fmt 4.6, Leading zero omitted, Abs format (unit mm)*
G04 Created by KiCad (PCBNEW (6.0.4)) date 2022-08-05 18:27:13*
%MOMM*%
%LPD*%
G01*
G04 APERTURE LIST*
%ADD10C,0.300000*%
%TA.AperFunction,NonConductor*%
%ADD11C,0.300000*%
%TD*%
%TA.AperFunction,ComponentPad*%
%ADD12O,2.000000X1.600000*%
%TD*%
%TA.AperFunction,ComponentPad*%
%ADD13R,1.600000X1.600000*%
%TD*%
%TA.AperFunction,ComponentPad*%
%ADD14C,1.600000*%
%TD*%
%TA.AperFunction,ComponentPad*%
%ADD15O,1.600000X2.000000*%
%TD*%
%TA.AperFunction,ComponentPad*%
%ADD16R,1.560000X1.560000*%
%TD*%
%TA.AperFunction,ComponentPad*%
%ADD17C,1.560000*%
%TD*%
%TA.AperFunction,ComponentPad*%
%ADD18R,2.000000X2.000000*%
%TD*%
%TA.AperFunction,ViaPad*%
%ADD19C,0.800000*%
%TD*%
%TA.AperFunction,Conductor*%
%ADD20C,0.250000*%
%TD*%
G04 APERTURE END LIST*
D10*
D11*
X179607142Y-170430000D02*
X180321428Y-170430000D01*
X179464285Y-170858571D02*
X179964285Y-169358571D01*
X180464285Y-170858571D01*
X180964285Y-170858571D02*
X180964285Y-169358571D01*
X181821428Y-170858571D01*
X181821428Y-169358571D01*
X182321428Y-169358571D02*
X182821428Y-170858571D01*
X183321428Y-169358571D01*
X183821428Y-170072857D02*
X184321428Y-170072857D01*
X184535714Y-170858571D02*
X183821428Y-170858571D01*
X183821428Y-169358571D01*
X184535714Y-169358571D01*
X185107142Y-170787142D02*
X185321428Y-170858571D01*
X185678571Y-170858571D01*
X185821428Y-170787142D01*
X185892857Y-170715714D01*
X185964285Y-170572857D01*
X185964285Y-170430000D01*
X185892857Y-170287142D01*
X185821428Y-170215714D01*
X185678571Y-170144285D01*
X185392857Y-170072857D01*
X185250000Y-170001428D01*
X185178571Y-169930000D01*
X185107142Y-169787142D01*
X185107142Y-169644285D01*
X185178571Y-169501428D01*
X185250000Y-169430000D01*
X185392857Y-169358571D01*
X185750000Y-169358571D01*
X185964285Y-169430000D01*
X186607142Y-170858571D02*
X186607142Y-169358571D01*
X186607142Y-170072857D02*
X187464285Y-170072857D01*
X187464285Y-170858571D02*
X187464285Y-169358571D01*
X188107142Y-170430000D02*
X188821428Y-170430000D01*
X187964285Y-170858571D02*
X188464285Y-169358571D01*
X188964285Y-170858571D01*
X189464285Y-170858571D02*
X189464285Y-169358571D01*
X190321428Y-170858571D02*
X189678571Y-170001428D01*
X190321428Y-169358571D02*
X189464285Y-170215714D01*
X192964285Y-170858571D02*
X192464285Y-170144285D01*
X192107142Y-170858571D02*
X192107142Y-169358571D01*
X192678571Y-169358571D01*
X192821428Y-169430000D01*
X192892857Y-169501428D01*
X192964285Y-169644285D01*
X192964285Y-169858571D01*
X192892857Y-170001428D01*
X192821428Y-170072857D01*
X192678571Y-170144285D01*
X192107142Y-170144285D01*
X193535714Y-170430000D02*
X194250000Y-170430000D01*
X193392857Y-170858571D02*
X193892857Y-169358571D01*
X194392857Y-170858571D01*
X194678571Y-169358571D02*
X195535714Y-169358571D01*
X195107142Y-170858571D02*
X195107142Y-169358571D01*
X196035714Y-170858571D02*
X196035714Y-169358571D01*
X196035714Y-170072857D02*
X196892857Y-170072857D01*
X196892857Y-170858571D02*
X196892857Y-169358571D01*
X197892857Y-169358571D02*
X198178571Y-169358571D01*
X198321428Y-169430000D01*
X198464285Y-169572857D01*
X198535714Y-169858571D01*
X198535714Y-170358571D01*
X198464285Y-170644285D01*
X198321428Y-170787142D01*
X198178571Y-170858571D01*
X197892857Y-170858571D01*
X197750000Y-170787142D01*
X197607142Y-170644285D01*
X197535714Y-170358571D01*
X197535714Y-169858571D01*
X197607142Y-169572857D01*
X197750000Y-169430000D01*
X197892857Y-169358571D01*
X200035714Y-170858571D02*
X199535714Y-170144285D01*
X199178571Y-170858571D02*
X199178571Y-169358571D01*
X199750000Y-169358571D01*
X199892857Y-169430000D01*
X199964285Y-169501428D01*
X200035714Y-169644285D01*
X200035714Y-169858571D01*
X199964285Y-170001428D01*
X199892857Y-170072857D01*
X199750000Y-170144285D01*
X199178571Y-170144285D01*
X200678571Y-170072857D02*
X201178571Y-170072857D01*
X201392857Y-170858571D02*
X200678571Y-170858571D01*
X200678571Y-169358571D01*
X201392857Y-169358571D01*
D10*
D11*
X167060714Y-114367571D02*
X167560714Y-115867571D01*
X168060714Y-114367571D01*
X168489285Y-114510428D02*
X168560714Y-114439000D01*
X168703571Y-114367571D01*
X169060714Y-114367571D01*
X169203571Y-114439000D01*
X169275000Y-114510428D01*
X169346428Y-114653285D01*
X169346428Y-114796142D01*
X169275000Y-115010428D01*
X168417857Y-115867571D01*
X169346428Y-115867571D01*
D12*
%TO.P,U1,1,SDA*%
%TO.N,Net-(U1-Pad1)*%
X155448000Y-67206000D03*
%TO.P,U1,2,SCL*%
%TO.N,Net-(U1-Pad2)*%
X152908000Y-67206000D03*
%TO.P,U1,3,VCC*%
%TO.N,Net-(C1-Pad1)*%
X150368000Y-67206000D03*
%TO.P,U1,4,GND*%
%TO.N,GND*%
X147828000Y-67206000D03*
%TD*%
D13*
%TO.P,C1,1*%
%TO.N,Net-(C1-Pad1)*%
X137983000Y-82042000D03*
D14*
%TO.P,C1,2*%
%TO.N,GND*%
X135483000Y-82042000D03*
%TD*%
D12*
%TO.P,L1,1,VCC*%
%TO.N,Net-(C1-Pad1)*%
X154178000Y-60749400D03*
%TO.P,L1,2,DATA*%
%TO.N,Net-(L1-Pad2)*%
X151638000Y-60749400D03*
%TO.P,L1,3,GND*%
%TO.N,GND*%
X149098000Y-60749400D03*
%TD*%
D15*
%TO.P,U3,1,VCC*%
%TO.N,Net-(C1-Pad1)*%
X159784000Y-75184000D03*
%TO.P,U3,2,GND*%
%TO.N,GND*%
X159784000Y-77724000D03*
%TO.P,U3,3,OUT*%
%TO.N,Net-(RV1-Pad1)*%
X159784000Y-80264000D03*
%TD*%
D16*
%TO.P,RV1,1,1*%
%TO.N,Net-(RV1-Pad1)*%
X163495000Y-78780000D03*
D17*
%TO.P,RV1,2,2*%
%TO.N,Net-(RV1-Pad2)*%
X168495000Y-81280000D03*
%TO.P,RV1,3,3*%
%TO.N,unconnected-(RV1-Pad3)*%
X163495000Y-83780000D03*
%TD*%
D18*
%TO.P,U2,1,~{RST}*%
%TO.N,unconnected-(U2-Pad1)*%
X160528000Y-110767000D03*
D15*
%TO.P,U2,2,A0*%
%TO.N,Net-(RV1-Pad2)*%
X157988000Y-110767000D03*
%TO.P,U2,3,D0*%
%TO.N,unconnected-(U2-Pad3)*%
X155448000Y-110767000D03*
%TO.P,U2,4,SCK/D5*%
%TO.N,unconnected-(U2-Pad4)*%
X152908000Y-110767000D03*
%TO.P,U2,5,MISO/D6*%
%TO.N,unconnected-(U2-Pad5)*%
X150368000Y-110767000D03*
%TO.P,U2,6,MOSI/D7*%
%TO.N,unconnected-(U2-Pad6)*%
X147828000Y-110767000D03*
%TO.P,U2,7,CS/D8*%
%TO.N,unconnected-(U2-Pad7)*%
X145288000Y-110767000D03*
%TO.P,U2,8,3V3*%
%TO.N,unconnected-(U2-Pad8)*%
X142748000Y-110767000D03*
%TO.P,U2,9,5V*%
%TO.N,Net-(C1-Pad1)*%
X142748000Y-87907000D03*
%TO.P,U2,10,GND*%
%TO.N,GND*%
X145288000Y-87907000D03*
%TO.P,U2,11,D4*%
%TO.N,unconnected-(U2-Pad11)*%
X147828000Y-87907000D03*
%TO.P,U2,12,D3*%
%TO.N,unconnected-(U2-Pad12)*%
X150368000Y-87907000D03*
%TO.P,U2,13,SDA/D2*%
%TO.N,Net-(U1-Pad1)*%
X152908000Y-87907000D03*
%TO.P,U2,14,SCL/D1*%
%TO.N,Net-(U1-Pad2)*%
X155448000Y-87907000D03*
%TO.P,U2,15,RX*%
%TO.N,Net-(L1-Pad2)*%
X157988000Y-87907000D03*
%TO.P,U2,16,TX*%
%TO.N,unconnected-(U2-Pad16)*%
X160528000Y-87907000D03*
%TD*%
D19*
%TO.N,Net-(U1-Pad1)*%
X153035000Y-73533000D03*
%TD*%
D20*
%TO.N,Net-(L1-Pad2)*%
X153035000Y-63627000D02*
X156464000Y-63627000D01*
X157226000Y-84963000D02*
X157988000Y-85725000D01*
X151638000Y-62230000D02*
X153035000Y-63627000D01*
X157226000Y-64389000D02*
X157226000Y-84963000D01*
X156464000Y-63627000D02*
X157226000Y-64389000D01*
X151638000Y-60749400D02*
X151638000Y-62230000D01*
X157988000Y-85725000D02*
X157988000Y-87907000D01*
%TO.N,Net-(RV1-Pad1)*%
X159784000Y-80264000D02*
X162011000Y-80264000D01*
X162011000Y-80264000D02*
X163495000Y-78780000D01*
%TO.N,Net-(RV1-Pad2)*%
X165608000Y-101473000D02*
X167132000Y-99949000D01*
X159512000Y-101473000D02*
X165608000Y-101473000D01*
X167132000Y-99949000D02*
X167132000Y-82643000D01*
X157988000Y-110767000D02*
X157988000Y-102997000D01*
X157988000Y-102997000D02*
X159512000Y-101473000D01*
X167132000Y-82643000D02*
X168495000Y-81280000D01*
%TO.N,Net-(U1-Pad1)*%
X153035000Y-73533000D02*
X152908000Y-73660000D01*
X152908000Y-73660000D02*
X152908000Y-87907000D01*
%TO.N,Net-(U1-Pad2)*%
X152908000Y-69850000D02*
X155448000Y-72390000D01*
X155448000Y-72390000D02*
X155448000Y-87907000D01*
X152908000Y-67206000D02*
X152908000Y-69850000D01*
%TD*%
M02*
