%FSLAX45Y45*%
G04 Gerber Fmt 4.5, Leading zero omitted, Abs format (unit mm)*
G04 Created by KiCad (PCBNEW (6.0.4)) date 2022-08-05 19:54:17*
%MOMM*%
%LPD*%
G01*
G04 APERTURE LIST*
%TA.AperFunction,Profile*%
%ADD10C,0.200000*%
%TD*%
%ADD11C,0.200000*%
%ADD12C,0.040000*%
%ADD13C,0.080000*%
%ADD14C,0.100000*%
G04 APERTURE END LIST*
D10*
X13700900Y-11455400D02*
G75*
G03*
X13700900Y-11455400I-150000J0D01*
G01*
X16926700Y-5986400D02*
G75*
G03*
X16926700Y-5986400I-150000J0D01*
G01*
X13322300Y-11664201D02*
X17005300Y-11664201D01*
X17005300Y-11664201D02*
X17005300Y-5753100D01*
X17005300Y-5753100D02*
X13322300Y-5753100D01*
X13322300Y-5753100D02*
X13322300Y-11664201D01*
D11*
D12*
X15283500Y-7333300D02*
X15323500Y-7373300D01*
X15323500Y-7333300D02*
X15283500Y-7373300D01*
D13*
X13588300Y-8204200D02*
G75*
G03*
X13588300Y-8204200I-40000J0D01*
G01*
X13838300Y-8204200D02*
G75*
G03*
X13838300Y-8204200I-40000J0D01*
G01*
D14*
X14274800Y-8740700D02*
X14274800Y-8840700D01*
X14224800Y-8790700D02*
X14324800Y-8790700D01*
X14274800Y-11026700D02*
X14274800Y-11126700D01*
X14224800Y-11076700D02*
X14324800Y-11076700D01*
X14528800Y-8740700D02*
X14528800Y-8840700D01*
X14478800Y-8790700D02*
X14578800Y-8790700D01*
X14528800Y-11026700D02*
X14528800Y-11126700D01*
X14478800Y-11076700D02*
X14578800Y-11076700D01*
X14782800Y-6670600D02*
X14782800Y-6770600D01*
X14732800Y-6720600D02*
X14832800Y-6720600D01*
X14782800Y-8740700D02*
X14782800Y-8840700D01*
X14732800Y-8790700D02*
X14832800Y-8790700D01*
X14782800Y-11026700D02*
X14782800Y-11126700D01*
X14732800Y-11076700D02*
X14832800Y-11076700D01*
X14909800Y-6024940D02*
X14909800Y-6124940D01*
X14859800Y-6074940D02*
X14959800Y-6074940D01*
X15036800Y-6670600D02*
X15036800Y-6770600D01*
X14986800Y-6720600D02*
X15086800Y-6720600D01*
X15036800Y-8740700D02*
X15036800Y-8840700D01*
X14986800Y-8790700D02*
X15086800Y-8790700D01*
X15036800Y-11026700D02*
X15036800Y-11126700D01*
X14986800Y-11076700D02*
X15086800Y-11076700D01*
X15163800Y-6024940D02*
X15163800Y-6124940D01*
X15113800Y-6074940D02*
X15213800Y-6074940D01*
X15290800Y-6670600D02*
X15290800Y-6770600D01*
X15240800Y-6720600D02*
X15340800Y-6720600D01*
X15290800Y-8740700D02*
X15290800Y-8840700D01*
X15240800Y-8790700D02*
X15340800Y-8790700D01*
X15290800Y-11026700D02*
X15290800Y-11126700D01*
X15240800Y-11076700D02*
X15340800Y-11076700D01*
X15417800Y-6024940D02*
X15417800Y-6124940D01*
X15367800Y-6074940D02*
X15467800Y-6074940D01*
X15544800Y-6670600D02*
X15544800Y-6770600D01*
X15494800Y-6720600D02*
X15594800Y-6720600D01*
X15544800Y-8740700D02*
X15544800Y-8840700D01*
X15494800Y-8790700D02*
X15594800Y-8790700D01*
X15544800Y-11026700D02*
X15544800Y-11126700D01*
X15494800Y-11076700D02*
X15594800Y-11076700D01*
X15798800Y-8740700D02*
X15798800Y-8840700D01*
X15748800Y-8790700D02*
X15848800Y-8790700D01*
X15798800Y-11026700D02*
X15798800Y-11126700D01*
X15748800Y-11076700D02*
X15848800Y-11076700D01*
X15978400Y-7468400D02*
X15978400Y-7568400D01*
X15928400Y-7518400D02*
X16028400Y-7518400D01*
X15978400Y-7722400D02*
X15978400Y-7822400D01*
X15928400Y-7772400D02*
X16028400Y-7772400D01*
X15978400Y-7976400D02*
X15978400Y-8076400D01*
X15928400Y-8026400D02*
X16028400Y-8026400D01*
X16052800Y-8740700D02*
X16052800Y-8840700D01*
X16002800Y-8790700D02*
X16102800Y-8790700D01*
X16052800Y-11026700D02*
X16052800Y-11126700D01*
X16002800Y-11076700D02*
X16102800Y-11076700D01*
X16349500Y-7828000D02*
X16349500Y-7928000D01*
X16299500Y-7878000D02*
X16399500Y-7878000D01*
X16349500Y-8328000D02*
X16349500Y-8428000D01*
X16299500Y-8378000D02*
X16399500Y-8378000D01*
X16849500Y-8078000D02*
X16849500Y-8178000D01*
X16799500Y-8128000D02*
X16899500Y-8128000D01*
D11*
X13569919Y-11984677D02*
X13569919Y-11784677D01*
X13617538Y-11784677D01*
X13646109Y-11794201D01*
X13665157Y-11813248D01*
X13674681Y-11832296D01*
X13684205Y-11870391D01*
X13684205Y-11898963D01*
X13674681Y-11937058D01*
X13665157Y-11956105D01*
X13646109Y-11975153D01*
X13617538Y-11984677D01*
X13569919Y-11984677D01*
X13769919Y-11984677D02*
X13769919Y-11851343D01*
X13769919Y-11889439D02*
X13779443Y-11870391D01*
X13788967Y-11860867D01*
X13808014Y-11851343D01*
X13827062Y-11851343D01*
X13893728Y-11984677D02*
X13893728Y-11851343D01*
X13893728Y-11784677D02*
X13884205Y-11794201D01*
X13893728Y-11803724D01*
X13903252Y-11794201D01*
X13893728Y-11784677D01*
X13893728Y-11803724D01*
X14017538Y-11984677D02*
X13998490Y-11975153D01*
X13988967Y-11956105D01*
X13988967Y-11784677D01*
X14122300Y-11984677D02*
X14103252Y-11975153D01*
X14093728Y-11956105D01*
X14093728Y-11784677D01*
X14350871Y-11984677D02*
X14350871Y-11784677D01*
X14417538Y-11927534D01*
X14484205Y-11784677D01*
X14484205Y-11984677D01*
X14665157Y-11984677D02*
X14665157Y-11879915D01*
X14655633Y-11860867D01*
X14636586Y-11851343D01*
X14598490Y-11851343D01*
X14579443Y-11860867D01*
X14665157Y-11975153D02*
X14646109Y-11984677D01*
X14598490Y-11984677D01*
X14579443Y-11975153D01*
X14569919Y-11956105D01*
X14569919Y-11937058D01*
X14579443Y-11918010D01*
X14598490Y-11908486D01*
X14646109Y-11908486D01*
X14665157Y-11898963D01*
X14760395Y-11851343D02*
X14760395Y-12051343D01*
X14760395Y-11860867D02*
X14779443Y-11851343D01*
X14817538Y-11851343D01*
X14836586Y-11860867D01*
X14846109Y-11870391D01*
X14855633Y-11889439D01*
X14855633Y-11946582D01*
X14846109Y-11965629D01*
X14836586Y-11975153D01*
X14817538Y-11984677D01*
X14779443Y-11984677D01*
X14760395Y-11975153D01*
X14941348Y-11965629D02*
X14950871Y-11975153D01*
X14941348Y-11984677D01*
X14931824Y-11975153D01*
X14941348Y-11965629D01*
X14941348Y-11984677D01*
X14941348Y-11860867D02*
X14950871Y-11870391D01*
X14941348Y-11879915D01*
X14931824Y-11870391D01*
X14941348Y-11860867D01*
X14941348Y-11879915D01*
D12*
X13272300Y-12294201D02*
X13312300Y-12334201D01*
X13312300Y-12294201D02*
X13272300Y-12334201D01*
D11*
X13608014Y-12204677D02*
X13627062Y-12204677D01*
X13646109Y-12214201D01*
X13655633Y-12223724D01*
X13665157Y-12242772D01*
X13674681Y-12280867D01*
X13674681Y-12328486D01*
X13665157Y-12366582D01*
X13655633Y-12385629D01*
X13646109Y-12395153D01*
X13627062Y-12404677D01*
X13608014Y-12404677D01*
X13588967Y-12395153D01*
X13579443Y-12385629D01*
X13569919Y-12366582D01*
X13560395Y-12328486D01*
X13560395Y-12280867D01*
X13569919Y-12242772D01*
X13579443Y-12223724D01*
X13588967Y-12214201D01*
X13608014Y-12204677D01*
X13760395Y-12385629D02*
X13769919Y-12395153D01*
X13760395Y-12404677D01*
X13750871Y-12395153D01*
X13760395Y-12385629D01*
X13760395Y-12404677D01*
X13941348Y-12271343D02*
X13941348Y-12404677D01*
X13893728Y-12195153D02*
X13846109Y-12338010D01*
X13969919Y-12338010D01*
X14084205Y-12204677D02*
X14103252Y-12204677D01*
X14122300Y-12214201D01*
X14131824Y-12223724D01*
X14141348Y-12242772D01*
X14150871Y-12280867D01*
X14150871Y-12328486D01*
X14141348Y-12366582D01*
X14131824Y-12385629D01*
X14122300Y-12395153D01*
X14103252Y-12404677D01*
X14084205Y-12404677D01*
X14065157Y-12395153D01*
X14055633Y-12385629D01*
X14046109Y-12366582D01*
X14036586Y-12328486D01*
X14036586Y-12280867D01*
X14046109Y-12242772D01*
X14055633Y-12223724D01*
X14065157Y-12214201D01*
X14084205Y-12204677D01*
X14274681Y-12204677D02*
X14293728Y-12204677D01*
X14312776Y-12214201D01*
X14322300Y-12223724D01*
X14331824Y-12242772D01*
X14341348Y-12280867D01*
X14341348Y-12328486D01*
X14331824Y-12366582D01*
X14322300Y-12385629D01*
X14312776Y-12395153D01*
X14293728Y-12404677D01*
X14274681Y-12404677D01*
X14255633Y-12395153D01*
X14246109Y-12385629D01*
X14236586Y-12366582D01*
X14227062Y-12328486D01*
X14227062Y-12280867D01*
X14236586Y-12242772D01*
X14246109Y-12223724D01*
X14255633Y-12214201D01*
X14274681Y-12204677D01*
X14427062Y-12404677D02*
X14427062Y-12271343D01*
X14427062Y-12290391D02*
X14436586Y-12280867D01*
X14455633Y-12271343D01*
X14484205Y-12271343D01*
X14503252Y-12280867D01*
X14512776Y-12299915D01*
X14512776Y-12404677D01*
X14512776Y-12299915D02*
X14522300Y-12280867D01*
X14541348Y-12271343D01*
X14569919Y-12271343D01*
X14588967Y-12280867D01*
X14598490Y-12299915D01*
X14598490Y-12404677D01*
X14693728Y-12404677D02*
X14693728Y-12271343D01*
X14693728Y-12290391D02*
X14703252Y-12280867D01*
X14722300Y-12271343D01*
X14750871Y-12271343D01*
X14769919Y-12280867D01*
X14779443Y-12299915D01*
X14779443Y-12404677D01*
X14779443Y-12299915D02*
X14788967Y-12280867D01*
X14808014Y-12271343D01*
X14836586Y-12271343D01*
X14855633Y-12280867D01*
X14865157Y-12299915D01*
X14865157Y-12404677D01*
X15255633Y-12195153D02*
X15084205Y-12452296D01*
X15512776Y-12204677D02*
X15531824Y-12204677D01*
X15550871Y-12214201D01*
X15560395Y-12223724D01*
X15569919Y-12242772D01*
X15579443Y-12280867D01*
X15579443Y-12328486D01*
X15569919Y-12366582D01*
X15560395Y-12385629D01*
X15550871Y-12395153D01*
X15531824Y-12404677D01*
X15512776Y-12404677D01*
X15493728Y-12395153D01*
X15484205Y-12385629D01*
X15474681Y-12366582D01*
X15465157Y-12328486D01*
X15465157Y-12280867D01*
X15474681Y-12242772D01*
X15484205Y-12223724D01*
X15493728Y-12214201D01*
X15512776Y-12204677D01*
X15665157Y-12385629D02*
X15674681Y-12395153D01*
X15665157Y-12404677D01*
X15655633Y-12395153D01*
X15665157Y-12385629D01*
X15665157Y-12404677D01*
X15798490Y-12204677D02*
X15817538Y-12204677D01*
X15836586Y-12214201D01*
X15846109Y-12223724D01*
X15855633Y-12242772D01*
X15865157Y-12280867D01*
X15865157Y-12328486D01*
X15855633Y-12366582D01*
X15846109Y-12385629D01*
X15836586Y-12395153D01*
X15817538Y-12404677D01*
X15798490Y-12404677D01*
X15779443Y-12395153D01*
X15769919Y-12385629D01*
X15760395Y-12366582D01*
X15750871Y-12328486D01*
X15750871Y-12280867D01*
X15760395Y-12242772D01*
X15769919Y-12223724D01*
X15779443Y-12214201D01*
X15798490Y-12204677D01*
X16055633Y-12404677D02*
X15941348Y-12404677D01*
X15998490Y-12404677D02*
X15998490Y-12204677D01*
X15979443Y-12233248D01*
X15960395Y-12252296D01*
X15941348Y-12261820D01*
X16236586Y-12204677D02*
X16141348Y-12204677D01*
X16131824Y-12299915D01*
X16141348Y-12290391D01*
X16160395Y-12280867D01*
X16208014Y-12280867D01*
X16227062Y-12290391D01*
X16236586Y-12299915D01*
X16246109Y-12318963D01*
X16246109Y-12366582D01*
X16236586Y-12385629D01*
X16227062Y-12395153D01*
X16208014Y-12404677D01*
X16160395Y-12404677D01*
X16141348Y-12395153D01*
X16131824Y-12385629D01*
X16312776Y-12204677D02*
X16446109Y-12204677D01*
X16360395Y-12404677D01*
X16512776Y-12204677D02*
X16512776Y-12242772D01*
X16588967Y-12204677D02*
X16588967Y-12242772D01*
X16884205Y-12480867D02*
X16874681Y-12471343D01*
X16855633Y-12442772D01*
X16846110Y-12423724D01*
X16836586Y-12395153D01*
X16827062Y-12347534D01*
X16827062Y-12309439D01*
X16836586Y-12261820D01*
X16846110Y-12233248D01*
X16855633Y-12214201D01*
X16874681Y-12185629D01*
X16884205Y-12176105D01*
X17065157Y-12404677D02*
X16950871Y-12404677D01*
X17008014Y-12404677D02*
X17008014Y-12204677D01*
X16988967Y-12233248D01*
X16969919Y-12252296D01*
X16950871Y-12261820D01*
X17303252Y-12404677D02*
X17303252Y-12204677D01*
X17388967Y-12404677D02*
X17388967Y-12299915D01*
X17379443Y-12280867D01*
X17360395Y-12271343D01*
X17331824Y-12271343D01*
X17312776Y-12280867D01*
X17303252Y-12290391D01*
X17512776Y-12404677D02*
X17493729Y-12395153D01*
X17484205Y-12385629D01*
X17474681Y-12366582D01*
X17474681Y-12309439D01*
X17484205Y-12290391D01*
X17493729Y-12280867D01*
X17512776Y-12271343D01*
X17541348Y-12271343D01*
X17560395Y-12280867D01*
X17569919Y-12290391D01*
X17579443Y-12309439D01*
X17579443Y-12366582D01*
X17569919Y-12385629D01*
X17560395Y-12395153D01*
X17541348Y-12404677D01*
X17512776Y-12404677D01*
X17693729Y-12404677D02*
X17674681Y-12395153D01*
X17665157Y-12376105D01*
X17665157Y-12204677D01*
X17846110Y-12395153D02*
X17827062Y-12404677D01*
X17788967Y-12404677D01*
X17769919Y-12395153D01*
X17760395Y-12376105D01*
X17760395Y-12299915D01*
X17769919Y-12280867D01*
X17788967Y-12271343D01*
X17827062Y-12271343D01*
X17846110Y-12280867D01*
X17855633Y-12299915D01*
X17855633Y-12318963D01*
X17760395Y-12338010D01*
X17922300Y-12480867D02*
X17931824Y-12471343D01*
X17950871Y-12442772D01*
X17960395Y-12423724D01*
X17969919Y-12395153D01*
X17979443Y-12347534D01*
X17979443Y-12309439D01*
X17969919Y-12261820D01*
X17960395Y-12233248D01*
X17950871Y-12214201D01*
X17931824Y-12185629D01*
X17922300Y-12176105D01*
D13*
X13312300Y-12578201D02*
G75*
G03*
X13312300Y-12578201I-40000J0D01*
G01*
D11*
X13608014Y-12468677D02*
X13627062Y-12468677D01*
X13646109Y-12478201D01*
X13655633Y-12487724D01*
X13665157Y-12506772D01*
X13674681Y-12544867D01*
X13674681Y-12592486D01*
X13665157Y-12630582D01*
X13655633Y-12649629D01*
X13646109Y-12659153D01*
X13627062Y-12668677D01*
X13608014Y-12668677D01*
X13588967Y-12659153D01*
X13579443Y-12649629D01*
X13569919Y-12630582D01*
X13560395Y-12592486D01*
X13560395Y-12544867D01*
X13569919Y-12506772D01*
X13579443Y-12487724D01*
X13588967Y-12478201D01*
X13608014Y-12468677D01*
X13760395Y-12649629D02*
X13769919Y-12659153D01*
X13760395Y-12668677D01*
X13750871Y-12659153D01*
X13760395Y-12649629D01*
X13760395Y-12668677D01*
X13884205Y-12554391D02*
X13865157Y-12544867D01*
X13855633Y-12535343D01*
X13846109Y-12516296D01*
X13846109Y-12506772D01*
X13855633Y-12487724D01*
X13865157Y-12478201D01*
X13884205Y-12468677D01*
X13922300Y-12468677D01*
X13941348Y-12478201D01*
X13950871Y-12487724D01*
X13960395Y-12506772D01*
X13960395Y-12516296D01*
X13950871Y-12535343D01*
X13941348Y-12544867D01*
X13922300Y-12554391D01*
X13884205Y-12554391D01*
X13865157Y-12563915D01*
X13855633Y-12573439D01*
X13846109Y-12592486D01*
X13846109Y-12630582D01*
X13855633Y-12649629D01*
X13865157Y-12659153D01*
X13884205Y-12668677D01*
X13922300Y-12668677D01*
X13941348Y-12659153D01*
X13950871Y-12649629D01*
X13960395Y-12630582D01*
X13960395Y-12592486D01*
X13950871Y-12573439D01*
X13941348Y-12563915D01*
X13922300Y-12554391D01*
X14084205Y-12468677D02*
X14103252Y-12468677D01*
X14122300Y-12478201D01*
X14131824Y-12487724D01*
X14141348Y-12506772D01*
X14150871Y-12544867D01*
X14150871Y-12592486D01*
X14141348Y-12630582D01*
X14131824Y-12649629D01*
X14122300Y-12659153D01*
X14103252Y-12668677D01*
X14084205Y-12668677D01*
X14065157Y-12659153D01*
X14055633Y-12649629D01*
X14046109Y-12630582D01*
X14036586Y-12592486D01*
X14036586Y-12544867D01*
X14046109Y-12506772D01*
X14055633Y-12487724D01*
X14065157Y-12478201D01*
X14084205Y-12468677D01*
X14274681Y-12468677D02*
X14293728Y-12468677D01*
X14312776Y-12478201D01*
X14322300Y-12487724D01*
X14331824Y-12506772D01*
X14341348Y-12544867D01*
X14341348Y-12592486D01*
X14331824Y-12630582D01*
X14322300Y-12649629D01*
X14312776Y-12659153D01*
X14293728Y-12668677D01*
X14274681Y-12668677D01*
X14255633Y-12659153D01*
X14246109Y-12649629D01*
X14236586Y-12630582D01*
X14227062Y-12592486D01*
X14227062Y-12544867D01*
X14236586Y-12506772D01*
X14246109Y-12487724D01*
X14255633Y-12478201D01*
X14274681Y-12468677D01*
X14427062Y-12668677D02*
X14427062Y-12535343D01*
X14427062Y-12554391D02*
X14436586Y-12544867D01*
X14455633Y-12535343D01*
X14484205Y-12535343D01*
X14503252Y-12544867D01*
X14512776Y-12563915D01*
X14512776Y-12668677D01*
X14512776Y-12563915D02*
X14522300Y-12544867D01*
X14541348Y-12535343D01*
X14569919Y-12535343D01*
X14588967Y-12544867D01*
X14598490Y-12563915D01*
X14598490Y-12668677D01*
X14693728Y-12668677D02*
X14693728Y-12535343D01*
X14693728Y-12554391D02*
X14703252Y-12544867D01*
X14722300Y-12535343D01*
X14750871Y-12535343D01*
X14769919Y-12544867D01*
X14779443Y-12563915D01*
X14779443Y-12668677D01*
X14779443Y-12563915D02*
X14788967Y-12544867D01*
X14808014Y-12535343D01*
X14836586Y-12535343D01*
X14855633Y-12544867D01*
X14865157Y-12563915D01*
X14865157Y-12668677D01*
X15255633Y-12459153D02*
X15084205Y-12716296D01*
X15512776Y-12468677D02*
X15531824Y-12468677D01*
X15550871Y-12478201D01*
X15560395Y-12487724D01*
X15569919Y-12506772D01*
X15579443Y-12544867D01*
X15579443Y-12592486D01*
X15569919Y-12630582D01*
X15560395Y-12649629D01*
X15550871Y-12659153D01*
X15531824Y-12668677D01*
X15512776Y-12668677D01*
X15493728Y-12659153D01*
X15484205Y-12649629D01*
X15474681Y-12630582D01*
X15465157Y-12592486D01*
X15465157Y-12544867D01*
X15474681Y-12506772D01*
X15484205Y-12487724D01*
X15493728Y-12478201D01*
X15512776Y-12468677D01*
X15665157Y-12649629D02*
X15674681Y-12659153D01*
X15665157Y-12668677D01*
X15655633Y-12659153D01*
X15665157Y-12649629D01*
X15665157Y-12668677D01*
X15798490Y-12468677D02*
X15817538Y-12468677D01*
X15836586Y-12478201D01*
X15846109Y-12487724D01*
X15855633Y-12506772D01*
X15865157Y-12544867D01*
X15865157Y-12592486D01*
X15855633Y-12630582D01*
X15846109Y-12649629D01*
X15836586Y-12659153D01*
X15817538Y-12668677D01*
X15798490Y-12668677D01*
X15779443Y-12659153D01*
X15769919Y-12649629D01*
X15760395Y-12630582D01*
X15750871Y-12592486D01*
X15750871Y-12544867D01*
X15760395Y-12506772D01*
X15769919Y-12487724D01*
X15779443Y-12478201D01*
X15798490Y-12468677D01*
X15931824Y-12468677D02*
X16055633Y-12468677D01*
X15988967Y-12544867D01*
X16017538Y-12544867D01*
X16036586Y-12554391D01*
X16046109Y-12563915D01*
X16055633Y-12582963D01*
X16055633Y-12630582D01*
X16046109Y-12649629D01*
X16036586Y-12659153D01*
X16017538Y-12668677D01*
X15960395Y-12668677D01*
X15941348Y-12659153D01*
X15931824Y-12649629D01*
X16246109Y-12668677D02*
X16131824Y-12668677D01*
X16188967Y-12668677D02*
X16188967Y-12468677D01*
X16169919Y-12497248D01*
X16150871Y-12516296D01*
X16131824Y-12525820D01*
X16427062Y-12468677D02*
X16331824Y-12468677D01*
X16322300Y-12563915D01*
X16331824Y-12554391D01*
X16350871Y-12544867D01*
X16398490Y-12544867D01*
X16417538Y-12554391D01*
X16427062Y-12563915D01*
X16436586Y-12582963D01*
X16436586Y-12630582D01*
X16427062Y-12649629D01*
X16417538Y-12659153D01*
X16398490Y-12668677D01*
X16350871Y-12668677D01*
X16331824Y-12659153D01*
X16322300Y-12649629D01*
X16512776Y-12468677D02*
X16512776Y-12506772D01*
X16588967Y-12468677D02*
X16588967Y-12506772D01*
X16884205Y-12744867D02*
X16874681Y-12735343D01*
X16855633Y-12706772D01*
X16846110Y-12687724D01*
X16836586Y-12659153D01*
X16827062Y-12611534D01*
X16827062Y-12573439D01*
X16836586Y-12525820D01*
X16846110Y-12497248D01*
X16855633Y-12478201D01*
X16874681Y-12449629D01*
X16884205Y-12440105D01*
X16950871Y-12487724D02*
X16960395Y-12478201D01*
X16979443Y-12468677D01*
X17027062Y-12468677D01*
X17046110Y-12478201D01*
X17055633Y-12487724D01*
X17065157Y-12506772D01*
X17065157Y-12525820D01*
X17055633Y-12554391D01*
X16941348Y-12668677D01*
X17065157Y-12668677D01*
X17303252Y-12668677D02*
X17303252Y-12468677D01*
X17388967Y-12668677D02*
X17388967Y-12563915D01*
X17379443Y-12544867D01*
X17360395Y-12535343D01*
X17331824Y-12535343D01*
X17312776Y-12544867D01*
X17303252Y-12554391D01*
X17512776Y-12668677D02*
X17493729Y-12659153D01*
X17484205Y-12649629D01*
X17474681Y-12630582D01*
X17474681Y-12573439D01*
X17484205Y-12554391D01*
X17493729Y-12544867D01*
X17512776Y-12535343D01*
X17541348Y-12535343D01*
X17560395Y-12544867D01*
X17569919Y-12554391D01*
X17579443Y-12573439D01*
X17579443Y-12630582D01*
X17569919Y-12649629D01*
X17560395Y-12659153D01*
X17541348Y-12668677D01*
X17512776Y-12668677D01*
X17693729Y-12668677D02*
X17674681Y-12659153D01*
X17665157Y-12640105D01*
X17665157Y-12468677D01*
X17846110Y-12659153D02*
X17827062Y-12668677D01*
X17788967Y-12668677D01*
X17769919Y-12659153D01*
X17760395Y-12640105D01*
X17760395Y-12563915D01*
X17769919Y-12544867D01*
X17788967Y-12535343D01*
X17827062Y-12535343D01*
X17846110Y-12544867D01*
X17855633Y-12563915D01*
X17855633Y-12582963D01*
X17760395Y-12602010D01*
X17931824Y-12659153D02*
X17950871Y-12668677D01*
X17988967Y-12668677D01*
X18008014Y-12659153D01*
X18017538Y-12640105D01*
X18017538Y-12630582D01*
X18008014Y-12611534D01*
X17988967Y-12602010D01*
X17960395Y-12602010D01*
X17941348Y-12592486D01*
X17931824Y-12573439D01*
X17931824Y-12563915D01*
X17941348Y-12544867D01*
X17960395Y-12535343D01*
X17988967Y-12535343D01*
X18008014Y-12544867D01*
X18084205Y-12744867D02*
X18093729Y-12735343D01*
X18112776Y-12706772D01*
X18122300Y-12687724D01*
X18131824Y-12659153D01*
X18141348Y-12611534D01*
X18141348Y-12573439D01*
X18131824Y-12525820D01*
X18122300Y-12497248D01*
X18112776Y-12478201D01*
X18093729Y-12449629D01*
X18084205Y-12440105D01*
D14*
X13262300Y-12792201D02*
X13262300Y-12892201D01*
X13212300Y-12842201D02*
X13312300Y-12842201D01*
D11*
X13674681Y-12932677D02*
X13560395Y-12932677D01*
X13617538Y-12932677D02*
X13617538Y-12732677D01*
X13598490Y-12761248D01*
X13579443Y-12780296D01*
X13560395Y-12789820D01*
X13760395Y-12913629D02*
X13769919Y-12923153D01*
X13760395Y-12932677D01*
X13750871Y-12923153D01*
X13760395Y-12913629D01*
X13760395Y-12932677D01*
X13893728Y-12732677D02*
X13912776Y-12732677D01*
X13931824Y-12742201D01*
X13941348Y-12751724D01*
X13950871Y-12770772D01*
X13960395Y-12808867D01*
X13960395Y-12856486D01*
X13950871Y-12894582D01*
X13941348Y-12913629D01*
X13931824Y-12923153D01*
X13912776Y-12932677D01*
X13893728Y-12932677D01*
X13874681Y-12923153D01*
X13865157Y-12913629D01*
X13855633Y-12894582D01*
X13846109Y-12856486D01*
X13846109Y-12808867D01*
X13855633Y-12770772D01*
X13865157Y-12751724D01*
X13874681Y-12742201D01*
X13893728Y-12732677D01*
X14084205Y-12732677D02*
X14103252Y-12732677D01*
X14122300Y-12742201D01*
X14131824Y-12751724D01*
X14141348Y-12770772D01*
X14150871Y-12808867D01*
X14150871Y-12856486D01*
X14141348Y-12894582D01*
X14131824Y-12913629D01*
X14122300Y-12923153D01*
X14103252Y-12932677D01*
X14084205Y-12932677D01*
X14065157Y-12923153D01*
X14055633Y-12913629D01*
X14046109Y-12894582D01*
X14036586Y-12856486D01*
X14036586Y-12808867D01*
X14046109Y-12770772D01*
X14055633Y-12751724D01*
X14065157Y-12742201D01*
X14084205Y-12732677D01*
X14274681Y-12732677D02*
X14293728Y-12732677D01*
X14312776Y-12742201D01*
X14322300Y-12751724D01*
X14331824Y-12770772D01*
X14341348Y-12808867D01*
X14341348Y-12856486D01*
X14331824Y-12894582D01*
X14322300Y-12913629D01*
X14312776Y-12923153D01*
X14293728Y-12932677D01*
X14274681Y-12932677D01*
X14255633Y-12923153D01*
X14246109Y-12913629D01*
X14236586Y-12894582D01*
X14227062Y-12856486D01*
X14227062Y-12808867D01*
X14236586Y-12770772D01*
X14246109Y-12751724D01*
X14255633Y-12742201D01*
X14274681Y-12732677D01*
X14427062Y-12932677D02*
X14427062Y-12799343D01*
X14427062Y-12818391D02*
X14436586Y-12808867D01*
X14455633Y-12799343D01*
X14484205Y-12799343D01*
X14503252Y-12808867D01*
X14512776Y-12827915D01*
X14512776Y-12932677D01*
X14512776Y-12827915D02*
X14522300Y-12808867D01*
X14541348Y-12799343D01*
X14569919Y-12799343D01*
X14588967Y-12808867D01*
X14598490Y-12827915D01*
X14598490Y-12932677D01*
X14693728Y-12932677D02*
X14693728Y-12799343D01*
X14693728Y-12818391D02*
X14703252Y-12808867D01*
X14722300Y-12799343D01*
X14750871Y-12799343D01*
X14769919Y-12808867D01*
X14779443Y-12827915D01*
X14779443Y-12932677D01*
X14779443Y-12827915D02*
X14788967Y-12808867D01*
X14808014Y-12799343D01*
X14836586Y-12799343D01*
X14855633Y-12808867D01*
X14865157Y-12827915D01*
X14865157Y-12932677D01*
X15255633Y-12723153D02*
X15084205Y-12980296D01*
X15512776Y-12732677D02*
X15531824Y-12732677D01*
X15550871Y-12742201D01*
X15560395Y-12751724D01*
X15569919Y-12770772D01*
X15579443Y-12808867D01*
X15579443Y-12856486D01*
X15569919Y-12894582D01*
X15560395Y-12913629D01*
X15550871Y-12923153D01*
X15531824Y-12932677D01*
X15512776Y-12932677D01*
X15493728Y-12923153D01*
X15484205Y-12913629D01*
X15474681Y-12894582D01*
X15465157Y-12856486D01*
X15465157Y-12808867D01*
X15474681Y-12770772D01*
X15484205Y-12751724D01*
X15493728Y-12742201D01*
X15512776Y-12732677D01*
X15665157Y-12913629D02*
X15674681Y-12923153D01*
X15665157Y-12932677D01*
X15655633Y-12923153D01*
X15665157Y-12913629D01*
X15665157Y-12932677D01*
X15798490Y-12732677D02*
X15817538Y-12732677D01*
X15836586Y-12742201D01*
X15846109Y-12751724D01*
X15855633Y-12770772D01*
X15865157Y-12808867D01*
X15865157Y-12856486D01*
X15855633Y-12894582D01*
X15846109Y-12913629D01*
X15836586Y-12923153D01*
X15817538Y-12932677D01*
X15798490Y-12932677D01*
X15779443Y-12923153D01*
X15769919Y-12913629D01*
X15760395Y-12894582D01*
X15750871Y-12856486D01*
X15750871Y-12808867D01*
X15760395Y-12770772D01*
X15769919Y-12751724D01*
X15779443Y-12742201D01*
X15798490Y-12732677D01*
X15931824Y-12732677D02*
X16055633Y-12732677D01*
X15988967Y-12808867D01*
X16017538Y-12808867D01*
X16036586Y-12818391D01*
X16046109Y-12827915D01*
X16055633Y-12846963D01*
X16055633Y-12894582D01*
X16046109Y-12913629D01*
X16036586Y-12923153D01*
X16017538Y-12932677D01*
X15960395Y-12932677D01*
X15941348Y-12923153D01*
X15931824Y-12913629D01*
X16150871Y-12932677D02*
X16188967Y-12932677D01*
X16208014Y-12923153D01*
X16217538Y-12913629D01*
X16236586Y-12885058D01*
X16246109Y-12846963D01*
X16246109Y-12770772D01*
X16236586Y-12751724D01*
X16227062Y-12742201D01*
X16208014Y-12732677D01*
X16169919Y-12732677D01*
X16150871Y-12742201D01*
X16141348Y-12751724D01*
X16131824Y-12770772D01*
X16131824Y-12818391D01*
X16141348Y-12837439D01*
X16150871Y-12846963D01*
X16169919Y-12856486D01*
X16208014Y-12856486D01*
X16227062Y-12846963D01*
X16236586Y-12837439D01*
X16246109Y-12818391D01*
X16417538Y-12799343D02*
X16417538Y-12932677D01*
X16369919Y-12723153D02*
X16322300Y-12866010D01*
X16446109Y-12866010D01*
X16512776Y-12732677D02*
X16512776Y-12770772D01*
X16588967Y-12732677D02*
X16588967Y-12770772D01*
X16884205Y-13008867D02*
X16874681Y-12999343D01*
X16855633Y-12970772D01*
X16846110Y-12951724D01*
X16836586Y-12923153D01*
X16827062Y-12875534D01*
X16827062Y-12837439D01*
X16836586Y-12789820D01*
X16846110Y-12761248D01*
X16855633Y-12742201D01*
X16874681Y-12713629D01*
X16884205Y-12704105D01*
X16950871Y-12751724D02*
X16960395Y-12742201D01*
X16979443Y-12732677D01*
X17027062Y-12732677D01*
X17046110Y-12742201D01*
X17055633Y-12751724D01*
X17065157Y-12770772D01*
X17065157Y-12789820D01*
X17055633Y-12818391D01*
X16941348Y-12932677D01*
X17065157Y-12932677D01*
X17160395Y-12932677D02*
X17198490Y-12932677D01*
X17217538Y-12923153D01*
X17227062Y-12913629D01*
X17246110Y-12885058D01*
X17255633Y-12846963D01*
X17255633Y-12770772D01*
X17246110Y-12751724D01*
X17236586Y-12742201D01*
X17217538Y-12732677D01*
X17179443Y-12732677D01*
X17160395Y-12742201D01*
X17150871Y-12751724D01*
X17141348Y-12770772D01*
X17141348Y-12818391D01*
X17150871Y-12837439D01*
X17160395Y-12846963D01*
X17179443Y-12856486D01*
X17217538Y-12856486D01*
X17236586Y-12846963D01*
X17246110Y-12837439D01*
X17255633Y-12818391D01*
X17493729Y-12932677D02*
X17493729Y-12732677D01*
X17579443Y-12932677D02*
X17579443Y-12827915D01*
X17569919Y-12808867D01*
X17550871Y-12799343D01*
X17522300Y-12799343D01*
X17503252Y-12808867D01*
X17493729Y-12818391D01*
X17703252Y-12932677D02*
X17684205Y-12923153D01*
X17674681Y-12913629D01*
X17665157Y-12894582D01*
X17665157Y-12837439D01*
X17674681Y-12818391D01*
X17684205Y-12808867D01*
X17703252Y-12799343D01*
X17731824Y-12799343D01*
X17750871Y-12808867D01*
X17760395Y-12818391D01*
X17769919Y-12837439D01*
X17769919Y-12894582D01*
X17760395Y-12913629D01*
X17750871Y-12923153D01*
X17731824Y-12932677D01*
X17703252Y-12932677D01*
X17884205Y-12932677D02*
X17865157Y-12923153D01*
X17855633Y-12904105D01*
X17855633Y-12732677D01*
X18036586Y-12923153D02*
X18017538Y-12932677D01*
X17979443Y-12932677D01*
X17960395Y-12923153D01*
X17950871Y-12904105D01*
X17950871Y-12827915D01*
X17960395Y-12808867D01*
X17979443Y-12799343D01*
X18017538Y-12799343D01*
X18036586Y-12808867D01*
X18046110Y-12827915D01*
X18046110Y-12846963D01*
X17950871Y-12866010D01*
X18122300Y-12923153D02*
X18141348Y-12932677D01*
X18179443Y-12932677D01*
X18198490Y-12923153D01*
X18208014Y-12904105D01*
X18208014Y-12894582D01*
X18198490Y-12875534D01*
X18179443Y-12866010D01*
X18150871Y-12866010D01*
X18131824Y-12856486D01*
X18122300Y-12837439D01*
X18122300Y-12827915D01*
X18131824Y-12808867D01*
X18150871Y-12799343D01*
X18179443Y-12799343D01*
X18198490Y-12808867D01*
X18274681Y-13008867D02*
X18284205Y-12999343D01*
X18303252Y-12970772D01*
X18312776Y-12951724D01*
X18322300Y-12923153D01*
X18331824Y-12875534D01*
X18331824Y-12837439D01*
X18322300Y-12789820D01*
X18312776Y-12761248D01*
X18303252Y-12742201D01*
X18284205Y-12713629D01*
X18274681Y-12704105D01*
M02*
