M48
; DRILL file {KiCad (6.0.2)} date Mon Mar 14 12:25:39 2022
; FORMAT={-:-/ absolute / inch / decimal}
; #@! TF.CreationDate,2022-03-14T12:25:39+05:30
; #@! TF.GenerationSoftware,Kicad,Pcbnew,(6.0.2)
; #@! TF.FileFunction,Plated,1,2,PTH
FMAT,2
INCH
; #@! TA.AperFunction,Plated,PTH,ViaDrill
T1C0.0157
; #@! TA.AperFunction,Plated,PTH,ComponentDrill
T2C0.0300
; #@! TA.AperFunction,Plated,PTH,ComponentDrill
T3C0.0315
; #@! TA.AperFunction,Plated,PTH,ComponentDrill
T4C0.0394
%
G90
G05
T1
X5.35Y-2.925
X5.35Y-3.325
T2
X4.375Y-2.4
X4.45Y-2.4
X4.525Y-2.4
X4.85Y-2.55
X4.95Y-2.55
X4.975Y-2.2
X5.05Y-2.2
X5.05Y-2.55
X5.125Y-2.2
X5.15Y-2.55
T3
X5.4526Y-2.725
X5.551Y-2.725
T4
X4.5941Y-3.325
X4.5941Y-3.425
X4.5941Y-3.525
X4.5941Y-3.625
X4.5941Y-3.725
X4.5941Y-3.825
X4.5941Y-3.925
X4.5941Y-4.025
X5.4941Y-3.325
X5.4941Y-3.425
X5.4941Y-3.525
X5.4941Y-3.625
X5.4941Y-3.725
X5.4941Y-3.825
X5.4941Y-3.925
X5.4941Y-4.025
T0
M30
